<?xml version="1.0" encoding="UTF-8"?> <svg xmlns="http://www.w3.org/2000/svg" id="Слой_1" data-name="Слой 1" viewBox="0 0 390 148.48"> <defs> <style>.cls-1{fill:#e92944;}.cls-2{fill:#f8b65f;}.cls-3{fill:#fff;}</style> </defs> <title>Http</title> <path class="cls-1" d="M175,135.79h-2.07V118.28H175v7.63h9.63v-7.63h2.07v17.51h-2.07v-8.1H175Z"></path> <path d="M195.62,135.79h-2.07V118.28h2.07Z"></path> <path d="M215.12,121.4a5.16,5.16,0,0,0-1-.75,6.1,6.1,0,0,0-1.17-.51,7.48,7.48,0,0,0-1.3-.31,10.39,10.39,0,0,0-1.37-.09,6.63,6.63,0,0,0-2.94.62,6.27,6.27,0,0,0-2.12,1.67,7,7,0,0,0-1.27,2.38,9,9,0,0,0-.43,2.79,9.36,9.36,0,0,0,.42,2.88,6,6,0,0,0,1.27,2.24,5.76,5.76,0,0,0,2.13,1.45,7.94,7.94,0,0,0,3,.52,11.67,11.67,0,0,0,2-.17,9,9,0,0,0,1.83-.52v-5.12h-4.34V126.7h6.41v8.12a12.51,12.51,0,0,1-3,1,17.53,17.53,0,0,1-3.07.28,10.64,10.64,0,0,1-3.81-.63,7.4,7.4,0,0,1-2.76-1.76,7.55,7.55,0,0,1-1.68-2.75,10.61,10.61,0,0,1-.56-3.57,11.22,11.22,0,0,1,.27-2.48,9.17,9.17,0,0,1,.8-2.24,8.66,8.66,0,0,1,1.29-1.91,8.14,8.14,0,0,1,1.77-1.48,8.58,8.58,0,0,1,2.2-1,9.89,9.89,0,0,1,2.62-.33,10.42,10.42,0,0,1,1.69.13,8.27,8.27,0,0,1,1.54.4,6.66,6.66,0,0,1,1.33.68,5.44,5.44,0,0,1,1.06,1Z"></path> <path d="M224.72,135.79h-2.06V118.28h2.06v7.63h9.64v-7.63h2.06v17.51h-2.06v-8.1h-9.64Z"></path> <path d="M254.18,123.45l-.76-2.65-.83,2.65-3.92,12.34h-2.56L241,118.28h2.24L247,131.59l.46,1.93.52-1.75,4.43-13.49h2.18l4.31,13.36.56,1.87.43-1.71,3.74-13.52h2.16l-5.08,17.51h-2.55Z"></path> <path d="M269.41,135.79h-2.24l7.27-17.51h2.22l7.28,17.51h-2.3l-2-4.77h-8.39Zm2.54-6.55h7L276.16,122c-.07-.15-.14-.33-.21-.53s-.14-.4-.2-.59-.16-.43-.23-.66c-.08.26-.16.5-.24.74l-.21.59-.18.46Z"></path> <path d="M290.65,135.79v-7l-6.41-10.51h2.3l5.18,8.77,5.23-8.77h2.3l-6.53,10.48v7Z"></path> <path class="cls-1" d="M307.69,135.79V120.06h-5.64v-1.78h13.38v1.78h-5.67v15.73Z"></path> <path d="M335.09,127.06a10.86,10.86,0,0,1-.59,3.64,8.14,8.14,0,0,1-1.69,2.85,7.5,7.5,0,0,1-2.7,1.86,9.42,9.42,0,0,1-3.62.66,9.71,9.71,0,0,1-3.6-.64,7.41,7.41,0,0,1-2.71-1.82,7.82,7.82,0,0,1-1.7-2.85,11.23,11.23,0,0,1-.59-3.73,10.9,10.9,0,0,1,.59-3.64,8.08,8.08,0,0,1,1.71-2.86,7.6,7.6,0,0,1,2.73-1.89,10.08,10.08,0,0,1,7.2,0,7.42,7.42,0,0,1,2.68,1.84,8.13,8.13,0,0,1,1.7,2.87A11.24,11.24,0,0,1,335.09,127.06Zm-15,0a9.65,9.65,0,0,0,.41,2.84,6.59,6.59,0,0,0,1.2,2.29,5.71,5.71,0,0,0,2,1.53,6.46,6.46,0,0,0,2.77.56,6.57,6.57,0,0,0,2.78-.56,5.53,5.53,0,0,0,2-1.54,6.71,6.71,0,0,0,1.19-2.32,10.39,10.39,0,0,0,.4-2.91,9.65,9.65,0,0,0-.4-2.84,6.43,6.43,0,0,0-1.18-2.3,5.56,5.56,0,0,0-2-1.53,6.46,6.46,0,0,0-2.77-.55,5.91,5.91,0,0,0-4.77,2.21,7,7,0,0,0-1.22,2.34A9.49,9.49,0,0,0,320.1,127.07Z"></path> <path class="cls-1" d="M343.28,135.79V120.06h-5.64v-1.78H351v1.78h-5.68v15.73Z"></path> <path d="M370.68,127.06a10.86,10.86,0,0,1-.58,3.64,8.14,8.14,0,0,1-1.69,2.85,7.54,7.54,0,0,1-2.71,1.86,9.38,9.38,0,0,1-3.62.66,9.78,9.78,0,0,1-3.6-.64,7.37,7.37,0,0,1-2.7-1.82,7.82,7.82,0,0,1-1.7-2.85,11,11,0,0,1-.59-3.73,10.65,10.65,0,0,1,.59-3.64,8.21,8.21,0,0,1,1.7-2.86,7.77,7.77,0,0,1,2.73-1.89,10.1,10.1,0,0,1,7.21,0,7.42,7.42,0,0,1,2.68,1.84,8.11,8.11,0,0,1,1.69,2.87A11,11,0,0,1,370.68,127.06Zm-15,0a9.65,9.65,0,0,0,.4,2.84,6.76,6.76,0,0,0,1.2,2.29,5.74,5.74,0,0,0,2,1.53,7.13,7.13,0,0,0,5.54,0,5.45,5.45,0,0,0,2-1.54,6.54,6.54,0,0,0,1.19-2.32,10.66,10.66,0,0,0,0-5.75,6.43,6.43,0,0,0-1.18-2.3,5.56,5.56,0,0,0-2-1.53,6.49,6.49,0,0,0-2.77-.55,5.87,5.87,0,0,0-4.77,2.21,6.87,6.87,0,0,0-1.22,2.34A9.49,9.49,0,0,0,355.7,127.07Z"></path> <path class="cls-1" d="M378.47,135.79H376.4V118.28h4.1c.68,0,1.35,0,2,.09a11.62,11.62,0,0,1,1.86.32,6.78,6.78,0,0,1,1.62.6,4.34,4.34,0,0,1,1.27,1,4.14,4.14,0,0,1,.84,1.39,5.37,5.37,0,0,1,.3,1.88,4.54,4.54,0,0,1-.59,2.36,5,5,0,0,1-1.6,1.62,7.52,7.52,0,0,1-2.32.93,12.24,12.24,0,0,1-2.74.3h-2.67Zm0-15.73V127h3.14a7.66,7.66,0,0,0,1.83-.2,4.1,4.1,0,0,0,1.44-.61,3,3,0,0,0,1-1.06,3.25,3.25,0,0,0,.34-1.52,3.55,3.55,0,0,0-.38-1.73,2.73,2.73,0,0,0-1.06-1.07,4.49,4.49,0,0,0-1.62-.55,13.42,13.42,0,0,0-2.09-.15Z"></path> <path d="M180.18,105.32h-6.9V46.91h6.9V72.35h32.14V46.91h6.9v58.41h-6.9v-27H180.18Z"></path> <path d="M253.82,105.32V52.85H235V46.91h44.65v5.94H260.72v52.47Z"></path> <path d="M308.64,105.32V52.85H289.83V46.91h44.65v5.94H315.54v52.47Z"></path> <path d="M356.85,105.32H350V46.91h13.68q3.4,0,6.68.3a39.69,39.69,0,0,1,6.2,1,25.34,25.34,0,0,1,5.39,2,14.79,14.79,0,0,1,4.25,3.21,14,14,0,0,1,2.79,4.64,17.92,17.92,0,0,1,1,6.29,15,15,0,0,1-2,7.87,16.09,16.09,0,0,1-5.34,5.39,24.61,24.61,0,0,1-7.72,3.11,40.64,40.64,0,0,1-9.14,1h-8.91Zm0-52.47v23h10.47a26.09,26.09,0,0,0,6.1-.67,14.13,14.13,0,0,0,4.83-2,9.79,9.79,0,0,0,3.17-3.51,10.68,10.68,0,0,0,1.14-5.11,11.75,11.75,0,0,0-1.26-5.76,9.2,9.2,0,0,0-3.53-3.58,15.87,15.87,0,0,0-5.42-1.81,44.79,44.79,0,0,0-7-.5Z"></path> <path class="cls-2" d="M127.06,91.47h0l-.12-.38a2.5,2.5,0,0,0-.09-.25c-1.33-4.09-2.77-8.49-6-11.56-1-.93-4.21-4.22-6.45-4.71a.8.8,0,0,0-.44-.06,1.54,1.54,0,0,0-.83.18.46.46,0,0,0-.25.52,23.19,23.19,0,0,1-3.84,2.39,37.76,37.76,0,0,1-4.7,2.59c-2.59,1-5.65.06-8,1.7a.55.55,0,0,0,.5,1h.05a.91.91,0,0,0,.76.4c-.5,0,.51.69.79.82a22.92,22.92,0,0,1,4.37,2.6c1.45,1.14,1.59,3,3.67,2.59a28.23,28.23,0,0,1,17.71,2.11.87.87,0,0,0,.88-.11c.09.27.19.55.28.83.31,1,2,.64,1.77-.38C127.11,91.61,127.08,91.54,127.06,91.47Z"></path> <path class="cls-1" d="M110,74.65c-3.84-1-6.77-2.12-9.4-5.29-2-2.36-3.41-5.11-5.42-7.44-3.27-3.79-10.59-3.73-15.21-3.55a12,12,0,0,0-6.13.05c-3.29.78-7.21,1.72-10.17,3.34a24.28,24.28,0,0,0-6.87,5.15c-1.54,1.69-4,3.78-4.41,6.18a.6.6,0,0,0,.74.68c1.54,5.94,5.55,12,11.12,14.72s11.08,5.49,17,4.74c-.35.37-.68.74-1,1.1-2.44,2.76-3,5.61-3,9.2,0,6.78,2.75,11.32,9.2,13.64,4.65,1.68,12.6-2.13,14.35-6.66a20.85,20.85,0,0,0,1-9.44,16.51,16.51,0,0,1,.85-7.79c.12-.33,1.06-3.15,1.4-3.18a.54.54,0,0,0,.5-.44l.06,0,.17-.17a.86.86,0,0,0,0-1.06,18.59,18.59,0,0,0-5.13-4.55,21.11,21.11,0,0,0-5.67-2.55c2.8-1.7,6.47-.8,9.6-1.54,2.12-.51,5.51-1.72,6.84-3.61A.93.93,0,0,0,110,74.65Z"></path> <path class="cls-1" d="M120.33,53.65a56,56,0,0,1,5.39-5.82c1.46-1.27,3.3-2.28,4.57-3.72a.9.9,0,0,0-.53-1.45,4,4,0,0,0-3.07.69c-2.29,1.35-4.83,1.94-7.29,2.9S114.48,48,112,48.89c-.95.32-1.92.57-2.88.83.68-3.13,2.92-6.1,3.84-9.1.64-2.08,1.25-4.17,2-6.21A29.62,29.62,0,0,0,116.76,30a.93.93,0,0,0-1.43-.91c-1.36.81-2.37,2.09-3.7,3a67.11,67.11,0,0,1-6,3.24c-3.48,1.82-6.49,4.39-9.81,6.45,0-.54,0-1.08-.12-1.62-.1-1-.16-2.08-.19-3.15,0-2.16.12-4.33.14-6.5,0-3.82-.81-7.91.19-11.66.26-1-1-1.35-1.61-.75-3.56,3.71-6.75,7.67-10.59,11.13-1.85,1.66-4.33,3.26-6.06,5.24-.28-2.92-1.46-5.69-2-8.59a65.94,65.94,0,0,0-1.78-8.93.89.89,0,0,0-1.63-.07,4.07,4.07,0,0,0-.7,2.29c.2,1.54-1.39,3.71-2.18,4.9-1.69,2.55-2.91,5.29-4.45,7.88-3.12-2.61-6.29-5.21-9.47-7.79a.89.89,0,0,0-1.39,1c1.4,3.56,1.83,7.7,2.82,11.42.45,1.68.64,3.44,1.06,5.13.49,1.93.2,3.9,1.1,5.7h0a.65.65,0,0,0,.51,1.07c4.67-.46,9.48-.2,14.18-.24a14.26,14.26,0,0,1,3.84.5.82.82,0,0,0,.33.34c.42.26.85.49,1.28.74a58.81,58.81,0,0,1,7.24,5.45c2.42,2.06,5.59,3.18,8.2,5,1.16.8,1.85,2.56,2.66,3.71,1,1.47,2.1,2.93,3.17,4.36l.28.36a.42.42,0,0,0-.44.66c2.81,3.6,9.47,6.21,13.67,3.82,3.12-1.77,6-4.58,8.73-6.87,2.1-1.76,4.89-3.42,6.24-5.87A.87.87,0,0,0,128,59.1a19.49,19.49,0,0,0-3,1,24.81,24.81,0,0,1-5.81,1,28.5,28.5,0,0,1-4.7.5h-.15c.32-.51.66-1.19.79-1.41A54.14,54.14,0,0,1,120.33,53.65Z"></path> <path class="cls-3" d="M84.48,112.43a1.24,1.24,0,0,1-.69-.21c-3.05-2-4.53-6.25-3.86-11a10.49,10.49,0,0,1,5.33-7.63,1.23,1.23,0,0,1,1.65.56,1.22,1.22,0,0,1-.55,1.64,8,8,0,0,0-4,5.78c-.53,3.74.57,7.12,2.79,8.61a1.23,1.23,0,0,1,.34,1.71A1.24,1.24,0,0,1,84.48,112.43Z"></path> <path d="M33.46,133.6h-5.3a1.24,1.24,0,1,0,0,2.47h5.3a1.24,1.24,0,0,0,0-2.47Z"></path> <path d="M57.75,133.6H40a1.24,1.24,0,0,0,0,2.47H57.75a1.24,1.24,0,0,0,0-2.47Z"></path> <path d="M134,40.45a1.24,1.24,0,0,0-1.46-.46L111.32,48.1l7.9-20.8a1.23,1.23,0,0,0-1.85-1.45l-20,13.77L97.13,16a1.22,1.22,0,0,0-.76-1.12A1.23,1.23,0,0,0,95,15.1L78.71,31.26l-3.1-17.83a1.23,1.23,0,0,0-2.3-.37L64.58,29.32,53.9,20.48a1.23,1.23,0,0,0-2,1.21l5.73,26.49C49.5,50.7,41.7,56.58,33.78,66.09,22.14,80.06,21,93,20.24,101.53c-.13,1.49-.26,2.9-.42,4.15-1.1,8.39-7.57,23.33-10.51,27.92h-8a1.24,1.24,0,1,0,0,2.47H24.35a1.24,1.24,0,0,0,0-2.47H18.62a20.82,20.82,0,0,0,3.66-7.89.74.74,0,0,0-.54-.89.73.73,0,0,0-.89.55,19.07,19.07,0,0,1-4.16,8.23H12.17c3.34-5.89,9-19.44,10.09-27.6.17-1.3.3-2.74.43-4.25.78-8.74,1.84-20.7,13-34.08,11.72-14.08,23-19.86,35.59-18.19a27.86,27.86,0,0,1,8.08,2.46H77.86l-1.31,2.5a18.79,18.79,0,0,0-7.4-2.14A.74.74,0,0,0,69,53.77a17.31,17.31,0,0,1,6.84,2l-.76,1.45a18.62,18.62,0,0,0-7.4-2.14.74.74,0,0,0-.8.67.75.75,0,0,0,.68.8,17.76,17.76,0,0,1,5.5,1.35,31.27,31.27,0,0,0-5.87,1.17c-12.88-3.22-19,1.63-19.23,1.84a.74.74,0,0,0,.47,1.31.7.7,0,0,0,.47-.17C49,62,54,58,64.59,60A26.83,26.83,0,0,0,51.21,71.73a1.17,1.17,0,0,0-.1.8c0,.17,3,13.44,15.86,19.18L64.3,98.92l5.89-6a32.26,32.26,0,0,0,8.12,1.34,13,13,0,0,0-2.5,7.93c0,4.66,1,8.42,2.89,11.16-.1,2.3-.29,12.62,4.07,20.26H75.19a25.38,25.38,0,0,1-5.08-12.52.74.74,0,1,0-1.48.1,26.48,26.48,0,0,0,4.72,12.42H64.22a1.24,1.24,0,0,0,0,2.47H91.58a1.24,1.24,0,0,0,0-2.47H85.66c-3.73-5.5-4.43-13.43-4.51-17.65a13.23,13.23,0,0,0,8.33,2.59,13.93,13.93,0,0,0,14.37-13.43,30,30,0,0,0-.35-4c-.47-3.47-.84-6.22,2.55-9.73,1.78-.52,12.25-3.17,21.14,3.73a1.23,1.23,0,0,0,1.34.11,1.21,1.21,0,0,0,.64-1.19c0-.6-1.37-14.23-13.77-20.45L130.87,60a1.23,1.23,0,0,0-1-2.14l-12,1.69L133.91,42A1.24,1.24,0,0,0,134,40.45Zm-80.4,32c1.12-2,6.83-10.79,19.85-12.11l-.34.65C64.56,62.76,61,66.3,60.88,66.45a.74.74,0,0,0,0,1,.73.73,0,0,0,.52.21.75.75,0,0,0,.53-.23s3.07-3,10.29-4.79L65.91,74.77h7.32l-4.36,11.8a19.66,19.66,0,0,1-6.49-4.94.74.74,0,1,0-1.19.87A20.31,20.31,0,0,0,68.34,88l-.53,1.43C57.34,84.74,54.2,74.69,53.62,72.44Zm47.44,28.94a28.27,28.27,0,0,1,.32,3.73,11.48,11.48,0,0,1-11.9,11c-9.75,0-11.2-8.71-11.2-13.9A10.64,10.64,0,0,1,85.18,92a1.23,1.23,0,0,0-.76-2.34,13.43,13.43,0,0,0-3.78,2.21,32.47,32.47,0,0,1-8.49-.91l1.08-1.1a30,30,0,0,0,3.62.74H77a.74.74,0,0,0,.1-1.47c-.93-.13-1.79-.31-2.63-.51L92.34,70.31h-6l5.41-9.53c2,1.29,3,2.84,4.43,4.93a48.63,48.63,0,0,0,4.44,5.85,11.76,11.76,0,0,0,9,4c-3.78,3.4-6.14,3.9-8.65,3.49a12.43,12.43,0,0,0-7.9,1.52,1.23,1.23,0,0,0-.55,1.28,1.21,1.21,0,0,0,1,1,17.63,17.63,0,0,1,9,5.55c-3.28,2.25-4.86,6.28-4.53,11.76.06,1.11.12,2.19.11,3.19a.72.72,0,0,0,.73.74h0a.73.73,0,0,0,.74-.73c0-1,0-2.19-.11-3.28-.29-5,1.06-8.57,4-10.52.13.17.25.36.37.54C100.11,94.27,100.59,97.89,101.06,101.38Zm4.86-12.57a19.92,19.92,0,0,0-7.41-6.69,23.14,23.14,0,0,1,6.73.83,98,98,0,0,1,10.92,5.13A28.45,28.45,0,0,0,105.92,88.81Zm20.27,2.59a24.53,24.53,0,0,0-4.77-2.17c-5.58-3.09-12.82-6.74-15.72-7.68-.26-.09-.54-.16-.81-.24a11.54,11.54,0,0,0,2.69-1.13,37.17,37.17,0,0,1,5.5,2.86.71.71,0,0,0,.41.13.75.75,0,0,0,.62-.32.74.74,0,0,0-.2-1,34.47,34.47,0,0,0-4.85-2.6l.59-.43a35.1,35.1,0,0,1,5.44,2.84.79.79,0,0,0,.42.12.74.74,0,0,0,.61-.32.75.75,0,0,0-.19-1,35.18,35.18,0,0,0-5-2.67l.6-.53A35.43,35.43,0,0,1,116.77,80a.73.73,0,0,0,1-.2.73.73,0,0,0-.2-1,33.63,33.63,0,0,0-4.93-2.64l.77-.78C122,79.21,125.12,87.16,126.19,91.4Zm-12.46-31a1.23,1.23,0,0,0,1.08,2l11.33-1.59L112.55,72.75A10.58,10.58,0,0,1,108,73l4.26-4.55a.74.74,0,0,0,0-1,.75.75,0,0,0-1.05,0l-4.79,5.12a9.29,9.29,0,0,1-2.44-1.35l5.45-6.27a.74.74,0,0,0-1.11-1l-5.44,6.26a4.11,4.11,0,0,1-.29-.3,46.89,46.89,0,0,1-4.24-5.57l-.2-.31L102,59a.74.74,0,1,0-1.17-.91l-3.63,4.64a18.47,18.47,0,0,0-1.86-2.26l5-7a.74.74,0,0,0-1.21-.86l-4.91,6.9A13.15,13.15,0,0,0,93,58.63l3.8-6.69H84.55c-.75-.46-1.56-.92-2.4-1.36l4.19-9.75A.74.74,0,0,0,85,40.25l-4.15,9.66c-.81-.39-1.65-.76-2.51-1.09L80,42.12a.74.74,0,0,0-1.43-.36l-1.64,6.55A28.6,28.6,0,0,0,71.59,47a33.25,33.25,0,0,0-4.19-.28V36.26a.74.74,0,0,0-1.48,0V46.78c-.78,0-1.55.08-2.32.16L62.13,40a.74.74,0,1,0-1.45.31l1.45,6.82c-.7.11-1.41.25-2.11.41l-5-22.9,9.1,7.54a1.27,1.27,0,0,0,1,.26,1.2,1.2,0,0,0,.84-.63L73.8,17.37,76.69,34a1.23,1.23,0,0,0,2.08.66L94.7,18.89,95,42A1.23,1.23,0,0,0,95.65,43,1.26,1.26,0,0,0,96.92,43l18.59-12.84L108,49.79a1.23,1.23,0,0,0,1.59,1.59l19-7.24Z"></path> <path d="M98.72,105.67a.75.75,0,0,0-.88.56,9.45,9.45,0,0,1-1.43,3.34.74.74,0,0,0,.21,1,.74.74,0,0,0,1-.21,11.21,11.21,0,0,0,1.65-3.84A.75.75,0,0,0,98.72,105.67Z"></path> <path d="M94.07,111.4a9.57,9.57,0,0,1-2,.6,13.54,13.54,0,0,1-2.1.23h0a.74.74,0,0,0-.74.74.72.72,0,0,0,.73.74h0a13.24,13.24,0,0,0,2.39-.26,11.24,11.24,0,0,0,2.32-.7.74.74,0,1,0-.59-1.35Z"></path> <path d="M56.28,72.71a9.9,9.9,0,0,1,1.38-1.59.74.74,0,1,0-1-1.08,9.74,9.74,0,0,0-1.84,2.22.74.74,0,0,0,0,.6,23.72,23.72,0,0,0,3,5.49.75.75,0,0,0,.6.31.76.76,0,0,0,.43-.14.74.74,0,0,0,.17-1A23.65,23.65,0,0,1,56.28,72.71Z"></path> <path d="M84.39,87.05a9,9,0,0,0-5.3,2.22.73.73,0,0,0,0,1,.7.7,0,0,0,.55.25.72.72,0,0,0,.49-.19,7.58,7.58,0,0,1,4.31-1.85.74.74,0,1,0,0-1.47Z"></path> <path d="M36.06,72.06c-.25.22-6,5.41-7,18.13a.73.73,0,0,0,.67.79h.06a.75.75,0,0,0,.74-.68C31.5,78.23,37,73.22,37,73.17a.74.74,0,0,0-1-1.11Z"></path> <path d="M73.4,100.41a.75.75,0,0,0-.91.51c-.07.27-1.76,6.59,2.77,13.73a.72.72,0,0,0,.62.35.74.74,0,0,0,.62-1.14,17,17,0,0,1-2.59-12.54A.74.74,0,0,0,73.4,100.41Z"></path> <path d="M69.9,101.55a.75.75,0,0,0-.91.51c-.07.27-1.76,6.59,2.77,13.73a.74.74,0,0,0,.62.34.71.71,0,0,0,.4-.11.74.74,0,0,0,.23-1,16.84,16.84,0,0,1-2.59-12.54A.73.73,0,0,0,69.9,101.55Z"></path> <path d="M59.81,92A26.86,26.86,0,0,1,49.15,78.87a.73.73,0,0,0-.93-.47.74.74,0,0,0-.47.93,27.78,27.78,0,0,0,11.3,14,.76.76,0,0,0,.38.11.74.74,0,0,0,.63-.36A.75.75,0,0,0,59.81,92Z"></path> <path d="M47.82,86.57a.74.74,0,1,0-1.26.76,28.13,28.13,0,0,0,5.29,6.51.7.7,0,0,0,.49.19.73.73,0,0,0,.55-.25.74.74,0,0,0,0-1A27.16,27.16,0,0,1,47.82,86.57Z"></path> <path d="M22.57,121.79a.76.76,0,0,0,.33.08.74.74,0,0,0,.66-.41,35.6,35.6,0,0,0,3.62-15.08.77.77,0,0,0-.76-.73.74.74,0,0,0-.72.76,34.49,34.49,0,0,1-3.46,14.39A.74.74,0,0,0,22.57,121.79Z"></path> <path d="M27.26,121.87a.74.74,0,0,0,.66-.41,35.25,35.25,0,0,0,3.62-15.08.75.75,0,0,0-.75-.73.74.74,0,0,0-.72.76A34.6,34.6,0,0,1,26.6,120.8a.74.74,0,0,0,.33,1A.8.8,0,0,0,27.26,121.87Z"></path> <path d="M51,111.79a.73.73,0,0,0-.78.7c0,.41-.45,10.11,3.07,17.43a.74.74,0,0,0,.66.42.72.72,0,0,0,.32-.08.74.74,0,0,0,.35-1c-3.35-7-2.92-16.62-2.92-16.72A.74.74,0,0,0,51,111.79Z"></path> <path d="M45.74,111.79a.72.72,0,0,0-.77.7c0,.41-.45,10.11,3.06,17.43a.75.75,0,0,0,.67.42.75.75,0,0,0,.66-1.06c-3.34-7-2.92-16.62-2.91-16.72A.75.75,0,0,0,45.74,111.79Z"></path> <path d="M41.55,126.28l.2,0a.74.74,0,0,0,.51-.91A40.46,40.46,0,0,1,41,118.28a.73.73,0,0,0-.8-.67.75.75,0,0,0-.67.81,41.39,41.39,0,0,0,1.32,7.32A.74.74,0,0,0,41.55,126.28Z"></path> <path d="M55.65,56.07a19.25,19.25,0,0,1,8.13,0l.16,0a.76.76,0,0,0,.73-.58.75.75,0,0,0-.57-.88,20.35,20.35,0,0,0-8.83,0,.75.75,0,0,0-.52.91A.73.73,0,0,0,55.65,56.07Z"></path> <path class="cls-2" d="M83.89,67.88a4.74,4.74,0,1,1-4.74-4.73A4.74,4.74,0,0,1,83.89,67.88Z"></path> <path d="M81.35,67.88a2.2,2.2,0,1,1-2.2-2.19A2.2,2.2,0,0,1,81.35,67.88Z"></path> <path class="cls-3" d="M81.83,65.69a1.28,1.28,0,1,1-1.28-1.28A1.28,1.28,0,0,1,81.83,65.69Z"></path> <path class="cls-3" d="M122.83,88.18a1.24,1.24,0,0,1-1.13-.74,16.1,16.1,0,0,0-2.92-4.14,1.23,1.23,0,0,1,1.74-1.74,18.29,18.29,0,0,1,3.44,4.9,1.23,1.23,0,0,1-.64,1.62A1.19,1.19,0,0,1,122.83,88.18Z"></path> <path class="cls-3" d="M92.2,34.62A1.24,1.24,0,0,1,91,33.38V25.07a1.24,1.24,0,0,1,2.47,0v8.31A1.25,1.25,0,0,1,92.2,34.62Z"></path> <path class="cls-3" d="M95.25,70.27a1.23,1.23,0,0,1-1.16-.82,6.17,6.17,0,0,0-1.76-2.77,1.23,1.23,0,0,1,1.45-2,8.28,8.28,0,0,1,2.63,3.94,1.22,1.22,0,0,1-1.16,1.64Z"></path> <path class="cls-3" d="M107.34,46.37a1.11,1.11,0,0,1-.44-.08,1.21,1.21,0,0,1-.71-1.58l3.37-8.89a1.21,1.21,0,0,1,1.58-.71,1.22,1.22,0,0,1,.72,1.58l-3.37,8.89A1.24,1.24,0,0,1,107.34,46.37Z"></path> <path class="cls-3" d="M73.5,31.18A1.23,1.23,0,0,1,72.28,30L72,25.15A1.23,1.23,0,1,1,74.43,25l.3,4.87a1.23,1.23,0,0,1-1.15,1.31Z"></path> </svg> 