<svg width="180" height="67" viewBox="0 0 180 67" fill="none" xmlns="http://www.w3.org/2000/svg">
<g clip-path="url(#clip0_23_107)">
<path d="M80.7692 60.6964H79.8138V52.8696H80.7692V56.2801H85.2138V52.8696H86.1692V60.6964H85.2138V57.0758H80.7692V60.6964Z" fill="#E92944"/>
<path d="M90.2861 60.6964H89.3307V52.8696H90.2861V60.6964Z" fill="black"/>
<path d="M99.2862 54.2642C99.1469 54.1347 98.9919 54.0222 98.8246 53.929C98.6534 53.8349 98.4724 53.7585 98.2846 53.701C98.0893 53.6376 97.8885 53.5912 97.6846 53.5624C97.475 53.5355 97.2638 53.5221 97.0523 53.5222C96.5841 53.5128 96.1199 53.6076 95.6954 53.7993C95.3172 53.9764 94.9833 54.2311 94.7169 54.5458C94.4522 54.8602 94.2531 55.2216 94.1308 55.6096C93.9973 56.0126 93.9303 56.4335 93.9323 56.8567C93.9272 57.293 93.9926 57.7274 94.1262 58.144C94.2444 58.5149 94.4444 58.8566 94.7123 59.1453C94.9853 59.4305 95.3214 59.6521 95.6954 59.7934C96.1371 59.9567 96.6073 60.0356 97.08 60.0259C97.3894 60.0263 97.6982 60.0008 98.0031 59.9499C98.2923 59.9015 98.5754 59.8236 98.8477 59.7174V57.4289H96.8446V56.6332H99.8031V60.2628C99.3629 60.4679 98.8977 60.6181 98.4185 60.7098C97.9509 60.7917 97.4767 60.8336 97.0016 60.8349C96.4026 60.8457 95.8066 60.7503 95.2431 60.5533C94.7632 60.3865 94.3279 60.1177 93.9693 59.7666C93.6225 59.4157 93.358 58.9964 93.1939 58.5374C93.0141 58.0237 92.9267 57.484 92.9354 56.9417C92.9343 56.5688 92.9761 56.197 93.06 55.8331C93.1377 55.4853 93.2618 55.1487 93.4292 54.8319C93.5875 54.5229 93.7878 54.2357 94.0246 53.9781C94.2631 53.7212 94.5382 53.4984 94.8416 53.3166C95.1566 53.1219 95.4984 52.9715 95.8569 52.8696C96.2514 52.7683 96.6581 52.7187 97.0662 52.7221C97.3274 52.7209 97.5882 52.7403 97.8462 52.7802C98.0885 52.8175 98.3265 52.8774 98.5569 52.959C98.7727 53.0377 98.9786 53.1397 99.1708 53.2629C99.3538 53.39 99.5184 53.5404 99.66 53.7099L99.2862 54.2642Z" fill="black"/>
<path d="M103.717 60.6964H102.766V52.8696H103.717V56.2801H108.166V52.8696H109.117V60.6964H108.166V57.0758H103.717V60.6964Z" fill="black"/>
<path d="M117.314 55.1806L116.963 53.996L116.58 55.1806L114.771 60.6964H113.589L111.231 52.8696H112.265L114 58.819L114.212 59.6817L114.452 58.8995L116.497 52.8696H117.503L119.492 58.8414L119.751 59.6772L119.949 58.9129L121.675 52.8696H122.672L120.328 60.6964H119.151L117.314 55.1806Z" fill="black"/>
<path d="M124.343 60.6964H123.309L126.665 52.8696H127.689L131.049 60.6964H129.988L129.065 58.5643H125.192L124.343 60.6964ZM125.515 57.7686H128.746L127.458 54.5324C127.426 54.4654 127.394 54.3849 127.362 54.2955C127.329 54.2061 127.297 54.1167 127.269 54.0318C127.242 53.9469 127.195 53.8396 127.163 53.7368C127.126 53.853 127.089 53.9603 127.052 54.0676L126.955 54.3313L126.872 54.5369L125.515 57.7686Z" fill="black"/>
<path d="M134.146 60.6964V57.5675L131.188 52.8696H132.249L134.64 56.7897L137.054 52.8696H138.115L135.102 57.5541V60.683L134.146 60.6964Z" fill="black"/>
<path d="M142.011 60.6964V53.6653H139.408V52.8696H145.583V53.6653H142.966V60.6964H142.011Z" fill="#E92944"/>
<path d="M154.657 56.7942C154.663 57.3476 154.57 57.8979 154.385 58.4212C154.218 58.8932 153.952 59.3268 153.605 59.6951C153.258 60.0579 152.832 60.3418 152.358 60.5265C151.827 60.7303 151.259 60.8305 150.688 60.8215C150.12 60.8289 149.556 60.7319 149.026 60.5355C148.552 60.3577 148.125 60.0798 147.775 59.722C147.423 59.3566 147.155 58.9221 146.991 58.448C146.803 57.9111 146.711 57.3474 146.718 56.7808C146.713 56.2274 146.805 55.6772 146.991 55.1537C147.159 54.6791 147.428 54.2437 147.78 53.8754C148.131 53.5073 148.561 53.2188 149.04 53.0305C150.11 52.6343 151.293 52.6343 152.363 53.0305C152.833 53.2128 153.256 53.4937 153.6 53.853C153.95 54.2235 154.217 54.6603 154.385 55.1359C154.571 55.6699 154.663 56.2305 154.657 56.7942ZM147.734 56.7942C147.731 57.2241 147.795 57.652 147.923 58.0636C148.036 58.4369 148.224 58.7848 148.477 59.0872C148.728 59.3789 149.044 59.6125 149.4 59.7711C149.802 59.9449 150.238 60.0304 150.678 60.0214C151.12 60.0294 151.558 59.944 151.962 59.7711C152.32 59.6137 152.636 59.3781 152.885 59.0828C153.136 58.7752 153.323 58.4229 153.434 58.0457C153.559 57.6228 153.621 57.1849 153.618 56.745C153.623 56.3153 153.56 55.8874 153.434 55.4756C153.326 55.1007 153.141 54.7509 152.889 54.4475C152.64 54.1542 152.324 53.9202 151.966 53.7636C151.564 53.5913 151.127 53.5074 150.688 53.5178C150.267 53.5067 149.849 53.5902 149.467 53.7616C149.085 53.9329 148.75 54.1876 148.486 54.5056C148.232 54.8165 148.041 55.1715 147.923 55.5516C147.798 55.956 147.736 56.3764 147.738 56.7987L147.734 56.7942Z" fill="black"/>
<path d="M158.437 60.6964V53.6653H155.834V52.8696H162V53.6653H159.378V60.6964H158.437Z" fill="#E92944"/>
<path d="M171.083 56.7942C171.09 57.3473 171 57.8976 170.815 58.4212C170.648 58.8931 170.383 59.3268 170.035 59.6951C169.687 60.058 169.26 60.3418 168.785 60.5265C168.253 60.7307 167.685 60.831 167.114 60.8215C166.546 60.8282 165.983 60.7311 165.452 60.5354C164.98 60.3576 164.554 60.0797 164.206 59.7219C163.854 59.3565 163.586 58.9221 163.422 58.448C163.232 57.9116 163.14 57.3476 163.149 56.7808C163.142 56.2272 163.234 55.6766 163.422 55.1537C163.59 54.6802 163.857 54.2451 164.206 53.8753C164.558 53.5091 164.988 53.2209 165.466 53.0305C166.538 52.634 167.722 52.634 168.794 53.0305C169.264 53.2128 169.686 53.4937 170.031 53.853C170.38 54.2237 170.645 54.6606 170.811 55.1358C170.999 55.6694 171.091 56.2304 171.083 56.7942ZM164.16 56.7942C164.156 57.2239 164.218 57.6517 164.345 58.0636C164.46 58.4361 164.648 58.7837 164.898 59.0872C165.15 59.3785 165.465 59.6121 165.822 59.7711C166.226 59.9363 166.661 60.0214 167.1 60.0214C167.539 60.0214 167.974 59.9363 168.378 59.7711C168.738 59.6148 169.054 59.379 169.302 59.0827C169.555 58.7763 169.741 58.4236 169.851 58.0457C170.094 57.2052 170.094 56.3161 169.851 55.4755C169.743 55.1007 169.558 54.7509 169.306 54.4475C169.057 54.1541 168.741 53.9202 168.383 53.7636C167.981 53.5917 167.544 53.5078 167.105 53.5177C166.684 53.5053 166.265 53.5882 165.883 53.7596C165.501 53.9311 165.166 54.1865 164.903 54.5056C164.647 54.8157 164.456 55.1709 164.34 55.5515C164.219 55.9567 164.162 56.377 164.169 56.7986L164.16 56.7942Z" fill="black"/>
<path d="M174.678 60.6964H173.723V52.8696H175.615C175.929 52.8696 176.238 52.8696 176.538 52.9099C176.828 52.9349 177.115 52.9828 177.397 53.0529C177.657 53.1111 177.908 53.2012 178.145 53.3211C178.367 53.4332 178.566 53.5848 178.731 53.7681C178.901 53.9484 179.033 54.1595 179.118 54.3894C179.216 54.6593 179.263 54.9439 179.257 55.2297C179.267 55.5988 179.173 55.9635 178.985 56.2846C178.799 56.5778 178.547 56.8256 178.246 57.0087C177.916 57.2042 177.554 57.3447 177.175 57.4244C176.76 57.5151 176.336 57.5601 175.911 57.5585H174.678V60.6964ZM174.678 53.6653V56.7674H176.128C176.412 56.7706 176.696 56.7405 176.972 56.678C177.21 56.6292 177.436 56.5366 177.637 56.4053C177.829 56.2865 177.987 56.1238 178.098 55.9315C178.207 55.7207 178.261 55.4875 178.255 55.2521C178.265 54.9841 178.205 54.7181 178.08 54.4788C177.966 54.2781 177.797 54.1123 177.591 54.0005C177.36 53.8729 177.106 53.7894 176.843 53.7547C176.524 53.708 176.201 53.6856 175.878 53.6876L174.678 53.6653Z" fill="#E92944"/>
<path d="M83.16 47.0768H79.9754V20.9683H83.16V32.3396H97.9939V20.9683H101.178V47.0768H97.9939V35.0081H83.16V47.0768Z" fill="black"/>
<path d="M117.148 47.0768V23.6234H108.462V20.9683H129.069V23.6234H120.332V47.0768H117.148Z" fill="black"/>
<path d="M142.449 47.0768V23.6234H133.768V20.9683H154.375V23.6234H145.634V47.0768H142.449Z" fill="black"/>
<path d="M164.7 47.0768H161.538V20.9683H167.852C168.898 20.9683 169.926 21.013 170.935 21.1024C171.9 21.1779 172.857 21.3274 173.797 21.5493C174.658 21.755 175.493 22.0549 176.285 22.4433C177.023 22.8027 177.687 23.2889 178.246 23.8782C178.811 24.4818 179.248 25.1863 179.534 25.9522C179.86 26.8551 180.016 27.8074 179.995 28.7637C180.027 29.9962 179.708 31.2134 179.072 32.2815C178.461 33.2634 177.616 34.0895 176.608 34.6908C175.51 35.3467 174.305 35.8168 173.045 36.0809C171.66 36.384 170.245 36.5339 168.826 36.5279H164.714L164.7 47.0768ZM164.7 23.6234V33.9041H169.532C170.48 33.9119 171.425 33.8113 172.348 33.6046C173.142 33.4435 173.898 33.1403 174.577 32.7106C175.19 32.3113 175.692 31.7726 176.04 31.1417C176.408 30.4344 176.589 29.6494 176.566 28.8576C176.601 27.9655 176.401 27.0793 175.985 26.2829C175.605 25.6134 175.041 25.0593 174.355 24.6827C173.579 24.2687 172.731 23.9946 171.854 23.8737C170.785 23.7175 169.704 23.6427 168.623 23.6502L164.7 23.6234Z" fill="black"/>
<path d="M58.6431 40.886L58.5877 40.7161C58.5759 40.6782 58.5621 40.6409 58.5462 40.6044C57.9323 38.7762 57.2677 36.8094 55.777 35.4372C55.3154 35.0215 53.8339 33.5509 52.8 33.3319C52.7363 33.3046 52.6659 33.2953 52.597 33.3051C52.464 33.2966 52.3313 33.3245 52.2139 33.3855C52.1701 33.4057 52.1349 33.4398 52.1139 33.482C52.0929 33.5243 52.0875 33.5723 52.0985 33.6179C51.5451 34.0291 50.9515 34.3869 50.3262 34.6862C49.6324 35.1215 48.9075 35.5084 48.157 35.8439C46.9616 36.2909 45.5493 35.8708 44.4646 36.6038C44.4034 36.6335 44.3569 36.6854 44.3353 36.7483C44.3136 36.8112 44.3187 36.8798 44.3493 36.9391C44.3799 36.9983 44.4335 37.0434 44.4984 37.0644C44.5634 37.0853 44.6342 37.0805 44.6954 37.0508H44.7185C44.7572 37.1063 44.8095 37.1516 44.8707 37.1828C44.9319 37.214 45.0001 37.2301 45.0693 37.2296C44.8385 37.2296 45.3046 37.538 45.4339 37.5961C46.1486 37.9099 46.8251 38.2997 47.4508 38.7583C48.12 39.2679 48.1846 40.0993 49.1446 39.916C51.9029 39.3667 54.7707 39.6976 57.3185 40.8591C57.3845 40.887 57.4571 40.8971 57.5285 40.8884C57.6 40.8798 57.6677 40.8527 57.7246 40.81C57.7662 40.9307 57.8123 41.0558 57.8539 41.181C57.997 41.628 58.777 41.4671 58.6708 41.0111C58.6662 40.9485 58.6523 40.9173 58.6431 40.886Z" fill="#F8B65F"/>
<path d="M50.7692 33.3677C48.9969 32.9207 47.6446 32.4201 46.4307 31.0031C45.5077 29.9483 44.8569 28.719 43.9292 27.6776C42.42 25.9835 39.0415 26.0103 36.9092 26.0908C35.98 25.8608 35.0051 25.8686 34.08 26.1131C32.5615 26.4618 30.7523 26.8819 29.3861 27.606C28.1964 28.1849 27.1227 28.9644 26.2154 29.908C25.5046 30.6634 24.3692 31.5976 24.18 32.6704C24.1724 32.7144 24.1763 32.7595 24.1913 32.8017C24.2062 32.8439 24.2318 32.8818 24.2658 32.912C24.2997 32.9421 24.3408 32.9636 24.3855 32.9745C24.4301 32.9854 24.4769 32.9854 24.5215 32.9744C25.2323 35.6295 27.083 38.3382 29.6538 39.554C32.2246 40.7698 34.7677 42.008 37.5 41.6727C37.3384 41.8381 37.1861 42.0035 37.0384 42.1644C35.9123 43.3981 35.6538 44.672 35.6538 46.2767C35.6538 49.3073 36.923 51.3366 39.9 52.3736C42.0461 53.1246 45.7154 51.4215 46.5231 49.3967C47.0099 48.0432 47.1678 46.5993 46.9846 45.1771C46.8249 44.0028 46.9595 42.8085 47.3769 41.6951C47.4323 41.5476 47.8661 40.2871 48.0231 40.2737C48.0787 40.2706 48.1316 40.2495 48.1735 40.2139C48.2153 40.1782 48.2436 40.13 48.2538 40.077H48.2815L48.36 40.001C48.4146 39.9334 48.4443 39.85 48.4443 39.7641C48.4443 39.6782 48.4146 39.5948 48.36 39.5272C47.7078 38.7129 46.9049 38.0233 45.9923 37.4934C45.1828 36.9905 44.301 36.6064 43.3754 36.3536C44.6677 35.5937 46.3615 35.996 47.8061 35.6652C48.7846 35.4373 50.3492 34.8964 50.9631 34.0516C51.0134 33.9997 51.0491 33.9362 51.0667 33.8671C51.0844 33.798 51.0835 33.7257 51.064 33.657C51.0446 33.5884 51.0072 33.5258 50.9556 33.4751C50.904 33.4244 50.8398 33.3875 50.7692 33.3677Z" fill="#E92944"/>
<path d="M55.5369 23.981C56.3016 23.058 57.1329 22.1887 58.0246 21.3795C58.6984 20.8119 59.5477 20.3604 60.1338 19.7167C60.179 19.6627 60.2089 19.5983 60.2207 19.5297C60.2325 19.4612 60.2257 19.3909 60.2011 19.3256C60.1764 19.2603 60.1348 19.2023 60.0801 19.1573C60.0255 19.1123 59.9597 19.0817 59.8892 19.0686C59.6438 19.0246 59.3917 19.0292 59.1481 19.0822C58.9046 19.1352 58.6747 19.2355 58.4723 19.377C57.4154 19.9805 56.2431 20.2442 55.1077 20.6733C53.9723 21.1024 52.8369 21.4555 51.6923 21.8533C51.2538 21.9964 50.8061 22.1081 50.3631 22.2243C50.6769 20.8253 51.7108 19.4977 52.1354 18.1568C52.4308 17.227 52.7123 16.2928 53.0584 15.381C53.3896 14.7466 53.6674 14.0874 53.8892 13.4097C53.9009 13.3306 53.8888 13.2498 53.8543 13.1772C53.8198 13.1045 53.7644 13.043 53.6948 13.0001C53.6251 12.9571 53.5441 12.9346 53.4616 12.9351C53.379 12.9356 53.2983 12.9592 53.2292 13.003C52.6015 13.365 52.1354 13.9372 51.5215 14.344C50.6244 14.8718 49.7001 15.3552 48.7523 15.7922C47.1461 16.6057 45.7569 17.7545 44.2246 18.6753C44.2246 18.4339 44.2246 18.1925 44.1692 17.9511C44.1231 17.5042 44.0954 17.0214 44.0815 16.5431C44.0815 15.5776 44.1369 14.6077 44.1461 13.6377C44.1461 11.9302 43.7723 10.102 44.2338 8.42583C44.3538 7.97885 43.7723 7.8224 43.4908 8.09059C41.8477 9.74892 40.3754 11.519 38.6031 13.0656C37.7492 13.8076 36.6046 14.5227 35.8061 15.4078C35.6769 14.1026 35.1323 12.8644 34.8831 11.5682C34.7045 10.2209 34.43 8.88717 34.0615 7.57656C34.0327 7.50434 33.9828 7.44182 33.9179 7.39667C33.8529 7.35153 33.7758 7.32571 33.6959 7.32239C33.6161 7.31907 33.537 7.33838 33.4683 7.37797C33.3996 7.41756 33.3443 7.4757 33.3092 7.54527C33.098 7.84737 32.9854 8.20401 32.9861 8.56887C33.0784 9.25723 32.3446 10.2272 31.98 10.7591C31.2 11.8989 30.6369 13.1237 29.9261 14.2814C28.4861 13.1147 27.0231 11.9526 25.5554 10.7993C25.4853 10.7455 25.3991 10.7153 25.3097 10.7133C25.2204 10.7113 25.1328 10.7375 25.0602 10.7881C24.9877 10.8386 24.9341 10.9107 24.9077 10.9934C24.8813 11.0761 24.8834 11.1649 24.9138 11.2463C25.56 12.8376 25.7584 14.6881 26.2154 16.3509C26.4231 17.1019 26.5108 17.8886 26.7046 18.644C26.9308 19.5067 26.7969 20.3872 27.2123 21.1918C27.1749 21.2345 27.1511 21.2867 27.1437 21.3422C27.1363 21.3977 27.1455 21.4541 27.1704 21.5046C27.1952 21.5551 27.2346 21.5976 27.2838 21.627C27.333 21.6563 27.3899 21.6713 27.4477 21.6701C29.6031 21.4645 31.8231 21.5807 33.9923 21.5628C34.5908 21.5589 35.1871 21.6341 35.7646 21.7863C35.7988 21.8504 35.8518 21.9032 35.9169 21.9383C36.1108 22.0545 36.3092 22.1573 36.5077 22.269C37.6846 22.9966 38.8017 23.8111 39.8492 24.7051C40.9661 25.6259 42.4292 26.1265 43.6338 26.9401C44.1692 27.2977 44.4877 28.0843 44.8615 28.5984C45.3231 29.2555 45.8308 29.9081 46.3246 30.5472L46.4538 30.7082C46.4149 30.6984 46.3738 30.7007 46.3362 30.7146C46.2986 30.7285 46.2664 30.7534 46.2441 30.7858C46.2218 30.8182 46.2104 30.8566 46.2116 30.8955C46.2128 30.9345 46.2265 30.9721 46.2508 31.0032C47.5477 32.6123 50.6215 33.779 52.56 32.7107C54 31.9195 55.3292 30.6635 56.5892 29.6399C57.5584 28.8532 58.8461 28.1112 59.4692 27.016C59.5118 26.9535 59.5348 26.8804 59.5355 26.8054C59.5362 26.7305 59.5145 26.657 59.473 26.5937C59.4316 26.5304 59.3722 26.4801 59.3019 26.4488C59.2316 26.4174 59.1535 26.4064 59.0769 26.4171C58.6036 26.5295 58.1406 26.679 57.6923 26.8641C56.82 27.1158 55.9198 27.2658 55.0108 27.3111C54.2953 27.4436 53.5697 27.5184 52.8415 27.5346H52.7723C52.92 27.3066 53.0769 27.0026 53.1369 26.9043C53.858 25.8714 54.6603 24.8941 55.5369 23.981Z" fill="#E92944"/>
<path d="M38.9908 50.2547C38.8774 50.2547 38.7665 50.222 38.6723 50.1609C37.2646 49.2669 36.5815 47.3672 36.8908 45.244C37.0022 44.5305 37.2821 43.8516 37.7088 43.2601C38.1355 42.6685 38.6974 42.1803 39.3508 41.8335C39.4177 41.8014 39.4906 41.7824 39.5651 41.7776C39.6396 41.7728 39.7144 41.7823 39.7852 41.8055C39.8559 41.8288 39.9213 41.8653 39.9774 41.9131C40.0335 41.9608 40.0794 42.0189 40.1123 42.0838C40.1455 42.148 40.1653 42.218 40.1705 42.2897C40.1758 42.3614 40.1663 42.4333 40.1427 42.5014C40.1191 42.5696 40.0819 42.6325 40.0331 42.6866C39.9843 42.7408 39.925 42.785 39.8585 42.8169C39.3679 43.083 38.9466 43.454 38.6267 43.9018C38.3068 44.3495 38.0966 44.8621 38.0123 45.4005C37.7677 47.0722 38.2754 48.583 39.3 49.249C39.3623 49.2891 39.4157 49.3407 39.4573 49.4009C39.4989 49.4611 39.5279 49.5286 39.5424 49.5996C39.557 49.6706 39.557 49.7437 39.5423 49.8148C39.5276 49.8858 39.4986 49.9533 39.4569 50.0134C39.405 50.0869 39.3355 50.1473 39.2543 50.1893C39.1732 50.2313 39.0828 50.2538 38.9908 50.2547Z" fill="white"/>
<path d="M15.4431 59.7176H12.9969C12.9178 59.7107 12.838 59.7198 12.7627 59.7444C12.6874 59.769 12.6182 59.8085 12.5595 59.8605C12.5008 59.9124 12.454 59.9756 12.4219 60.046C12.3898 60.1165 12.3733 60.1926 12.3733 60.2696C12.3733 60.3466 12.3898 60.4227 12.4219 60.4931C12.454 60.5636 12.5008 60.6268 12.5595 60.6787C12.6182 60.7307 12.6874 60.7702 12.7627 60.7948C12.838 60.8194 12.9178 60.8285 12.9969 60.8216H15.4431C15.5854 60.8092 15.7178 60.7457 15.8142 60.6435C15.9106 60.5414 15.9641 60.408 15.9641 60.2696C15.9641 60.1312 15.9106 59.9978 15.8142 59.8957C15.7178 59.7935 15.5854 59.73 15.4431 59.7176Z" fill="black"/>
<path d="M26.6538 59.7175H18.4615C18.3192 59.7299 18.1868 59.7935 18.0904 59.8956C17.994 59.9978 17.9406 60.1312 17.9406 60.2696C17.9406 60.408 17.994 60.5413 18.0904 60.6435C18.1868 60.7456 18.3192 60.8092 18.4615 60.8216H26.6538C26.7961 60.8092 26.9285 60.7456 27.0249 60.6435C27.1213 60.5413 27.1748 60.408 27.1748 60.2696C27.1748 60.1312 27.1213 59.9978 27.0249 59.8956C26.9285 59.7935 26.7961 59.7299 26.6538 59.7175Z" fill="black"/>
<path d="M61.8461 18.0806C61.7738 17.9783 61.6681 17.9024 61.5459 17.8651C61.4237 17.8278 61.2922 17.8313 61.1723 17.875L51.3785 21.5001L55.0246 12.2027C55.0679 12.093 55.0739 11.9727 55.0415 11.8595C55.0091 11.7463 54.9401 11.6461 54.8446 11.5736C54.7491 11.5011 54.6322 11.4602 54.5109 11.4567C54.3896 11.4533 54.2704 11.4876 54.1708 11.5546L44.94 17.7096L44.8292 7.15177C44.8283 7.0441 44.7945 6.93911 44.7321 6.85002C44.6697 6.76093 44.5814 6.69173 44.4785 6.65114C44.3751 6.604 44.2594 6.58817 44.1466 6.60571C44.0338 6.62326 43.9291 6.67336 43.8461 6.74948L36.3277 13.9728L34.8969 6.00301C34.8771 5.88973 34.8212 5.7853 34.737 5.70438C34.6527 5.62347 34.5445 5.57015 34.4273 5.5519C34.3102 5.53365 34.1901 5.5514 34.084 5.60265C33.9778 5.65389 33.8909 5.73607 33.8354 5.83762L29.8061 13.1056L24.8769 9.15427C24.7862 9.07877 24.6731 9.03295 24.5539 9.02336C24.4347 9.01377 24.3154 9.04089 24.2131 9.10086C24.1107 9.16083 24.0306 9.25058 23.984 9.3573C23.9374 9.46402 23.9269 9.58225 23.9538 9.69512L26.5985 21.5358C22.8461 22.6622 19.2461 25.2905 15.5908 29.5414C10.2185 35.7858 9.6923 41.5698 9.34153 45.3826C9.28153 46.0486 9.22153 46.6789 9.14768 47.2376C8.63999 50.9878 5.65384 57.6658 4.29692 59.7175H0.604608C0.525443 59.7106 0.445662 59.7197 0.370346 59.7443C0.29503 59.7689 0.225832 59.8085 0.167161 59.8604C0.10849 59.9123 0.0616319 59.9755 0.0295729 60.046C-0.00248602 60.1164 -0.019043 60.1926 -0.019043 60.2695C-0.019043 60.3465 -0.00248602 60.4226 0.0295729 60.4931C0.0616319 60.5635 0.10849 60.6267 0.167161 60.6787C0.225832 60.7306 0.29503 60.7701 0.370346 60.7947C0.445662 60.8193 0.525443 60.8285 0.604608 60.8216H11.2385C11.3808 60.8092 11.5132 60.7456 11.6096 60.6435C11.706 60.5413 11.7594 60.4079 11.7594 60.2695C11.7594 60.1311 11.706 59.9978 11.6096 59.8956C11.5132 59.7935 11.3808 59.7299 11.2385 59.7175H8.59384C9.40701 58.6702 9.98264 57.4684 10.2831 56.1908C10.304 56.106 10.2896 56.0167 10.2429 55.9422C10.1962 55.8678 10.1211 55.8141 10.0338 55.793C9.99017 55.7824 9.94476 55.7804 9.90028 55.787C9.85581 55.7937 9.81316 55.809 9.77487 55.8319C9.73658 55.8548 9.70342 55.8849 9.67735 55.9205C9.65128 55.956 9.63282 55.9962 9.62307 56.0388C9.30345 57.3987 8.64418 58.6619 7.70307 59.7175H5.61692C7.15845 57.0848 9.77076 51.0281 10.2738 47.3806C10.3523 46.7996 10.4123 46.1559 10.4723 45.481C10.8323 41.5743 11.3215 36.2283 16.4723 30.2476C21.8815 23.954 27.0877 21.3704 32.8985 22.1169C34.192 22.2978 35.4495 22.6685 36.6277 23.2165H35.9354L35.3308 24.334C34.2727 23.7901 33.1098 23.4644 31.9154 23.3774C31.8282 23.3736 31.7429 23.4022 31.6768 23.4574C31.6108 23.5126 31.5691 23.5902 31.5602 23.6743C31.5513 23.7583 31.576 23.8425 31.6292 23.9095C31.6824 23.9764 31.76 24.0212 31.8461 24.0345C32.9511 24.1172 34.0262 24.4216 35.0031 24.9285L34.6523 25.5766C33.5951 25.0307 32.4318 24.7048 31.2369 24.62C31.147 24.6126 31.0577 24.6399 30.9885 24.696C30.9193 24.7521 30.8759 24.8325 30.8677 24.9195C30.8613 25.007 30.8905 25.0935 30.9492 25.1604C31.0079 25.2272 31.0913 25.2691 31.1815 25.2771C32.0556 25.3455 32.9126 25.5492 33.72 25.8805C32.8017 25.9706 31.8945 26.1457 31.0108 26.4035C25.0661 24.9642 22.2415 27.1321 22.1354 27.226C22.0813 27.2693 22.0423 27.3278 22.0238 27.3934C22.0052 27.4589 22.008 27.5285 22.0317 27.5925C22.0554 27.6565 22.0989 27.7118 22.1563 27.751C22.2136 27.7902 22.2821 27.8114 22.3523 27.8115C22.4318 27.8129 22.509 27.7859 22.5692 27.7355C22.6154 27.7132 24.9231 25.9252 29.8108 26.8192C27.1964 27.8357 25.0181 29.6852 23.6354 32.0624C23.5767 32.1725 23.5604 32.2992 23.5892 32.42C23.5892 32.496 24.9738 38.4275 30.9092 40.9932L29.6769 44.216L32.3954 41.534C33.6131 41.8878 34.8726 42.0891 36.1431 42.133C35.3682 43.1604 34.9628 44.4056 34.9892 45.6776C34.9892 47.7606 35.4508 49.4413 36.3231 50.666C36.2769 51.6941 36.1892 56.307 38.2015 59.722H34.7031C33.4138 58.096 32.6035 56.162 32.3585 54.1257C32.3554 54.0823 32.3436 54.0398 32.3236 54.0008C32.3037 53.9618 32.276 53.927 32.2421 53.8983C32.2082 53.8697 32.1689 53.8478 32.1263 53.8339C32.0837 53.82 32.0387 53.8143 31.9938 53.8173C31.949 53.8202 31.9052 53.8317 31.8649 53.851C31.8246 53.8703 31.7887 53.8972 31.7591 53.93C31.7295 53.9627 31.7069 54.0009 31.6925 54.0421C31.6782 54.0834 31.6723 54.127 31.6754 54.1704C31.9026 56.1701 32.6523 58.0808 33.8538 59.722H29.64C29.4977 59.7344 29.3653 59.7979 29.2689 59.9001C29.1725 60.0022 29.119 60.1356 29.119 60.274C29.119 60.4124 29.1725 60.5458 29.2689 60.6479C29.3653 60.7501 29.4977 60.8136 29.64 60.826H42.2677C42.41 60.8136 42.5424 60.7501 42.6388 60.6479C42.7352 60.5458 42.7886 60.4124 42.7886 60.274C42.7886 60.1356 42.7352 60.0022 42.6388 59.9001C42.5424 59.7979 42.41 59.7344 42.2677 59.722H39.5354C37.8138 57.2635 37.4908 53.7189 37.4538 51.8326C38.5634 52.6284 39.9186 53.0365 41.2985 52.9903C42.9992 53.0434 44.6523 52.4414 45.8955 51.3161C47.1387 50.1909 47.8706 48.6342 47.9308 46.9873C47.9182 46.3885 47.8642 45.7912 47.7692 45.1994C47.5523 43.6483 47.3815 42.4191 48.9461 40.8502C49.7677 40.6177 54.6 39.4332 58.7031 42.5174C58.7901 42.5829 58.8949 42.6224 59.0048 42.6311C59.1146 42.6398 59.2246 42.6174 59.3215 42.5666C59.4198 42.5164 59.5004 42.439 59.553 42.3443C59.6056 42.2495 59.6279 42.1417 59.6169 42.0347C59.6169 41.7665 58.9846 35.674 53.2615 32.8938L60.4015 26.8192C60.4939 26.7407 60.5575 26.6353 60.5827 26.5188C60.608 26.4023 60.5935 26.281 60.5414 26.1732C60.4894 26.0654 60.4026 25.9768 60.2942 25.9208C60.1857 25.8648 60.0614 25.8444 59.94 25.8627L54.4015 26.6181L61.8046 18.7734C61.8919 18.6798 61.9436 18.5601 61.9512 18.4341C61.9588 18.3081 61.9217 18.1834 61.8461 18.0806ZM24.7385 32.3842C25.2554 31.4902 27.8908 27.5612 33.9 26.9712L33.7431 27.2617C29.7969 28.0529 28.1538 29.6352 28.0985 29.7023C28.0407 29.7633 28.0087 29.843 28.0087 29.9258C28.0087 30.0085 28.0407 30.0883 28.0985 30.1493C28.1301 30.1795 28.1676 30.2033 28.2088 30.2194C28.25 30.2355 28.294 30.2436 28.3385 30.2431C28.3842 30.2425 28.4294 30.2331 28.4714 30.2155C28.5134 30.1978 28.5513 30.1723 28.5831 30.1403C28.5831 30.1403 30 28.7994 33.3323 27.9993L30.42 33.4212H33.7985L31.7861 38.6957C30.6393 38.1705 29.6189 37.4183 28.7908 36.4876C28.7663 36.4482 28.7336 36.4142 28.6949 36.3878C28.6561 36.3613 28.6121 36.343 28.5656 36.3339C28.5191 36.3249 28.4712 36.3253 28.4249 36.3351C28.3786 36.345 28.3349 36.3641 28.2966 36.3912C28.2583 36.4183 28.2263 36.4528 28.2026 36.4926C28.1788 36.5323 28.1639 36.5764 28.1587 36.6221C28.1535 36.6677 28.1582 36.7139 28.1725 36.7577C28.1867 36.8015 28.2102 36.8419 28.2415 36.8764C29.1373 37.9251 30.2652 38.7653 31.5415 39.3349L31.2969 39.9741C26.4646 37.8777 25.0154 33.3855 24.7477 32.3797L24.7385 32.3842ZM46.6338 45.32C46.7211 45.872 46.7704 46.429 46.7815 46.9873C46.7239 48.3438 46.1135 49.6229 45.0841 50.5445C44.0547 51.4661 42.6901 51.955 41.2892 51.9042C36.7892 51.9042 36.12 48.0109 36.12 45.691C36.096 44.7025 36.3907 43.7313 36.9631 42.9126C37.5355 42.0939 38.3572 41.4682 39.3138 41.1228C39.4571 41.0778 39.5759 40.9795 39.6443 40.8495C39.7127 40.7196 39.725 40.5687 39.6785 40.43C39.6319 40.2913 39.5304 40.1762 39.3963 40.1099C39.2621 40.0437 39.1063 40.0318 38.9631 40.0769C38.3296 40.3115 37.7403 40.6452 37.2185 41.0647C35.8995 41.0968 34.582 40.96 33.3 40.658L33.7985 40.1663C34.3478 40.3097 34.9058 40.4201 35.4692 40.497H35.5385C35.6234 40.4949 35.7045 40.4621 35.7658 40.4051C35.8272 40.3481 35.8644 40.271 35.8701 40.1888C35.8759 40.1067 35.8498 40.0254 35.797 39.9609C35.7442 39.8964 35.6685 39.8533 35.5846 39.84C35.1554 39.7819 34.7585 39.7014 34.3708 39.612L42.6185 31.4277H39.8492L42.3461 27.1679C43.2692 27.7445 43.7308 28.4373 44.3908 29.3715C45.0048 30.2919 45.6898 31.166 46.44 31.9864C46.9578 32.5575 47.5972 33.0131 48.3143 33.3218C49.0315 33.6305 49.8092 33.7849 50.5938 33.7743C48.8492 35.2941 47.76 35.5176 46.6015 35.3343C45.342 35.1631 44.0594 35.4021 42.9554 36.0138C42.8583 36.0731 42.7821 36.1595 42.7367 36.2617C42.6914 36.3638 42.6792 36.4769 42.7015 36.5859C42.7203 36.6979 42.775 36.8013 42.8579 36.8815C42.9407 36.9617 43.0475 37.0147 43.1631 37.0329C44.7772 37.4287 46.227 38.2946 47.3169 39.5137C45.8031 40.5194 45.0738 42.3208 45.2261 44.7702C45.2538 45.2664 45.2815 45.7491 45.2769 46.1961C45.2757 46.2395 45.2835 46.2827 45.2999 46.3231C45.3164 46.3635 45.341 46.4002 45.3725 46.4311C45.404 46.462 45.4416 46.4864 45.4831 46.5029C45.5245 46.5194 45.569 46.5275 45.6138 46.5269C45.6585 46.5275 45.7028 46.5195 45.7442 46.5034C45.7856 46.4872 45.8233 46.4633 45.8551 46.4329C45.8868 46.4026 45.9121 46.3664 45.9293 46.3265C45.9465 46.2866 45.9554 46.2438 45.9554 46.2006C45.9554 45.7536 45.9554 45.2217 45.9046 44.7345C45.7708 42.4995 46.3938 40.9038 47.7508 40.0322C47.8108 40.1082 47.8661 40.1931 47.9215 40.2735C46.2046 42.1375 46.4261 43.7556 46.6431 45.3156L46.6338 45.32ZM48.8769 39.7014C48.0175 38.4396 46.8405 37.4105 45.4569 36.7111C46.5055 36.6863 47.5521 36.8113 48.5631 37.0821C50.2901 37.7454 51.9733 38.5112 53.6031 39.3751C52.0236 39.2051 50.4254 39.3141 48.8861 39.6969L48.8769 39.7014ZM58.2323 40.8591C57.5363 40.4606 56.7983 40.1354 56.0308 39.8891C53.4554 38.5079 50.1138 36.8764 48.7754 36.4563C48.6554 36.416 48.5261 36.3848 48.4015 36.349C48.8358 36.2322 49.253 36.0625 49.6431 35.8439C50.5245 36.2008 51.3736 36.6284 52.1815 37.1223C52.2369 37.1601 52.303 37.1804 52.3708 37.1804C52.4269 37.1808 52.4822 37.168 52.5321 37.1431C52.5819 37.1181 52.6248 37.0819 52.6569 37.0374C52.7037 36.9656 52.7201 36.8792 52.703 36.796C52.6858 36.7128 52.6362 36.6392 52.5646 36.5904C51.8516 36.1458 51.1031 35.7572 50.3261 35.4282L50.5985 35.236C51.472 35.5873 52.3122 36.0121 53.1092 36.5054C53.1673 36.5406 53.2345 36.5592 53.3031 36.5591C53.3585 36.5591 53.413 36.5461 53.4621 36.5212C53.5111 36.4963 53.5532 36.4602 53.5846 36.416C53.6307 36.3445 53.6473 36.2588 53.631 36.1759C53.6148 36.0931 53.5669 36.0192 53.4969 35.9691C52.7621 35.5118 51.9903 35.1127 51.1892 34.7756L51.4661 34.5387C52.3091 34.8791 53.1212 35.2873 53.8938 35.759C53.9676 35.8054 54.0572 35.822 54.1434 35.8053C54.2296 35.7886 54.3057 35.7399 54.3554 35.6696C54.4033 35.5981 54.4204 35.5114 54.4032 35.4279C54.3859 35.3444 54.3356 35.2707 54.2631 35.2226C53.5398 34.7687 52.7787 34.374 51.9877 34.0425L52.3431 33.6939C56.3077 35.4058 57.7477 38.9594 58.2415 40.8546L58.2323 40.8591ZM52.4815 27.0025C52.4106 27.0868 52.3672 27.1897 52.3566 27.2979C52.3461 27.4062 52.3689 27.5151 52.4223 27.6108C52.4757 27.7065 52.5571 27.7847 52.6564 27.8356C52.7557 27.8864 52.8683 27.9076 52.98 27.8965L58.2092 27.1857L51.9461 32.5183C51.2628 32.7028 50.5462 32.741 49.8461 32.6301L51.8123 30.5963C51.87 30.5353 51.9021 30.4555 51.9021 30.3728C51.9021 30.29 51.87 30.2103 51.8123 30.1493C51.7476 30.0878 51.6606 30.0534 51.57 30.0534C51.4794 30.0534 51.3924 30.0878 51.3277 30.1493L49.1169 32.4379C48.7123 32.2927 48.3327 32.0893 47.9908 31.8344L50.5061 29.0318C50.5674 28.966 50.5991 28.8794 50.5943 28.7909C50.5895 28.7025 50.5487 28.6195 50.4808 28.5602C50.4128 28.501 50.3234 28.4703 50.232 28.4749C50.1407 28.4795 50.055 28.519 49.9938 28.5848L47.4831 31.383C47.4361 31.3405 47.3915 31.2957 47.3492 31.2489C46.6338 30.4673 45.9796 29.6351 45.3923 28.7591L45.3 28.6206L47.0769 26.3722C47.1045 26.3379 47.1248 26.2986 47.1367 26.2567C47.1486 26.2147 47.1519 26.1709 47.1463 26.1278C47.1408 26.0846 47.1265 26.0429 47.1043 26.0051C47.0821 25.9673 47.0524 25.9341 47.0169 25.9074C46.9815 25.8807 46.9409 25.861 46.8976 25.8494C46.8543 25.8379 46.8091 25.8347 46.7645 25.8401C46.7199 25.8455 46.6769 25.8594 46.6378 25.8809C46.5988 25.9024 46.5645 25.9311 46.5369 25.9655L44.8615 28.0395C44.6034 27.6813 44.3164 27.3435 44.0031 27.0293L46.3108 23.9004C46.3634 23.8287 46.3845 23.7396 46.3693 23.6529C46.3542 23.5661 46.3041 23.4887 46.23 23.4378C46.1559 23.3868 46.064 23.3664 45.9744 23.3811C45.8848 23.3957 45.8049 23.4443 45.7523 23.516L43.4861 26.6002C43.3064 26.4588 43.1184 26.3274 42.9231 26.2068L44.6769 23.2165H39.0231C38.6769 23.0109 38.3031 22.8053 37.9154 22.6086L39.8492 18.2505C39.8688 18.1744 39.8599 18.0941 39.824 18.0239C39.7882 17.9536 39.7278 17.898 39.6535 17.8669C39.5793 17.8357 39.496 17.8311 39.4186 17.8539C39.3412 17.8767 39.2746 17.9253 39.2308 17.9912L37.3154 22.3091C36.9415 22.1348 36.5538 21.9694 36.1569 21.8219L36.9231 18.8271C36.9368 18.7453 36.9184 18.6615 36.8714 18.5923C36.8244 18.5231 36.7523 18.4734 36.6693 18.4532C36.5864 18.433 36.4986 18.4436 36.4234 18.4831C36.3482 18.5225 36.2909 18.5878 36.2631 18.6662L35.5061 21.5939C34.7059 21.3225 33.8806 21.1265 33.0415 21.0084C32.4003 20.9272 31.7544 20.8854 31.1077 20.8832V16.2077C31.1077 16.12 31.0717 16.0359 31.0077 15.9738C30.9436 15.9118 30.8567 15.877 30.7661 15.877C30.6756 15.877 30.5887 15.9118 30.5246 15.9738C30.4606 16.0359 30.4246 16.12 30.4246 16.2077V20.91C30.0646 20.91 29.7092 20.9458 29.3538 20.9816L28.6754 17.8795C28.6564 17.7935 28.603 17.7184 28.5268 17.6706C28.4506 17.6228 28.358 17.6063 28.2692 17.6247C28.1805 17.6431 28.1029 17.6948 28.0536 17.7686C28.0042 17.8424 27.9872 17.9321 28.0061 18.018L28.6754 21.0665C28.3523 21.1157 28.0246 21.1782 27.7015 21.2498L25.3938 11.0137L29.5938 14.384C29.6581 14.4336 29.7323 14.4696 29.8119 14.4896C29.8914 14.5097 29.9743 14.5133 30.0554 14.5002C30.1378 14.4848 30.2156 14.4515 30.2827 14.4027C30.3499 14.3539 30.4047 14.291 30.4431 14.2186L34.0615 7.76414L35.3954 15.1975C35.4132 15.2966 35.4588 15.3891 35.5271 15.4649C35.5955 15.5406 35.6839 15.5968 35.7829 15.6272C35.8819 15.6576 35.9877 15.6611 36.0886 15.6374C36.1895 15.6137 36.2818 15.5636 36.3554 15.4926L43.7077 8.44356L43.8461 18.7734C43.8529 18.8665 43.884 18.9563 43.9365 19.0345C43.9889 19.1127 44.0611 19.1767 44.1461 19.2204C44.2351 19.2707 44.3362 19.2972 44.4392 19.2972C44.5422 19.2972 44.6433 19.2707 44.7323 19.2204L53.3123 13.4811L49.8461 22.2555C49.8066 22.3548 49.7977 22.463 49.8205 22.5671C49.8433 22.6712 49.8968 22.7667 49.9745 22.8419C50.0521 22.9172 50.1507 22.969 50.2582 22.991C50.3657 23.0131 50.4775 23.0044 50.58 22.9662L59.3492 19.73L52.4815 27.0025Z" fill="black"/>
<path d="M45.5631 47.2332C45.4751 47.2157 45.3835 47.232 45.3077 47.2787C45.232 47.3254 45.1779 47.3989 45.157 47.4835C45.0387 48.0178 44.8146 48.5248 44.497 48.9764C44.4507 49.0487 44.4349 49.1355 44.453 49.2187C44.471 49.3019 44.5215 49.3752 44.5939 49.4234C44.6685 49.4682 44.7581 49.4835 44.8441 49.466C44.93 49.4485 45.0057 49.3996 45.0554 49.3295C45.4181 48.8087 45.6765 48.2264 45.817 47.6131C45.8313 47.5305 45.8132 47.4457 45.7662 47.3754C45.7192 47.3051 45.6468 47.2543 45.5631 47.2332Z" fill="black"/>
<path d="M43.4169 49.7943C43.1202 49.9161 42.8107 50.006 42.4938 50.0625C42.174 50.1212 41.8499 50.1556 41.5246 50.1653C41.434 50.1653 41.3471 50.2002 41.2831 50.2622C41.219 50.3242 41.1831 50.4084 41.1831 50.4961C41.1818 50.5395 41.1896 50.5827 41.2061 50.6231C41.2225 50.6634 41.2472 50.7002 41.2787 50.7311C41.3101 50.762 41.3477 50.7864 41.3892 50.8029C41.4307 50.8193 41.4752 50.8275 41.52 50.8269C41.8905 50.8206 42.2598 50.7817 42.623 50.7107C42.9906 50.644 43.3496 50.5391 43.6938 50.3978C43.739 50.3834 43.7807 50.3601 43.816 50.3292C43.8514 50.2984 43.8797 50.2607 43.8991 50.2186C43.9186 50.1766 43.9287 50.131 43.929 50.0849C43.9292 50.0389 43.9194 49.9932 43.9004 49.951C43.8813 49.9088 43.8534 49.8709 43.8183 49.8397C43.7832 49.8085 43.7418 49.7848 43.6967 49.7701C43.6516 49.7553 43.6039 49.7499 43.5565 49.754C43.5091 49.7582 43.4631 49.7719 43.4215 49.7943H43.4169Z" fill="black"/>
<path d="M25.9754 32.5005C26.161 32.2423 26.3745 32.0041 26.6123 31.7898C26.6506 31.762 26.6825 31.7267 26.7059 31.6863C26.7292 31.6458 26.7436 31.601 26.7479 31.5549C26.7522 31.5087 26.7465 31.4622 26.7311 31.4183C26.7157 31.3744 26.6909 31.3342 26.6584 31.3001C26.6259 31.2661 26.5863 31.2391 26.5423 31.2208C26.4983 31.2026 26.4509 31.1935 26.403 31.1941C26.3551 31.1948 26.3079 31.2052 26.2645 31.2246C26.221 31.2441 26.1823 31.2721 26.1508 31.307C25.8184 31.5951 25.5322 31.9296 25.3015 32.2993C25.2822 32.3416 25.2722 32.3872 25.2722 32.4334C25.2722 32.4796 25.2822 32.5253 25.3015 32.5675C25.6492 33.4411 26.1148 34.2663 26.6862 35.0215C26.7179 35.0639 26.7595 35.0986 26.8076 35.1227C26.8557 35.1467 26.9089 35.1595 26.9631 35.16C27.0343 35.1592 27.1035 35.1373 27.1615 35.0975C27.2309 35.0467 27.2777 34.9721 27.2923 34.889C27.3069 34.806 27.2882 34.7206 27.24 34.6505C26.733 33.9842 26.3086 33.2626 25.9754 32.5005Z" fill="black"/>
<path d="M38.9492 38.9103C38.0438 38.9733 37.1846 39.3218 36.5031 39.9026C36.4443 39.9631 36.4116 40.043 36.4116 40.1261C36.4116 40.2091 36.4443 40.289 36.5031 40.3495C36.5341 40.3854 36.573 40.414 36.6169 40.4333C36.6608 40.4526 36.7087 40.4622 36.7569 40.4613C36.8406 40.4616 36.9214 40.4313 36.9831 40.3764C37.5392 39.904 38.2356 39.6145 38.9723 39.5494C39.0202 39.5549 39.0687 39.5504 39.1146 39.5364C39.1606 39.5223 39.203 39.499 39.239 39.468C39.275 39.437 39.3038 39.3989 39.3235 39.3563C39.3433 39.3137 39.3535 39.2676 39.3535 39.2209C39.3535 39.1742 39.3433 39.1281 39.3235 39.0855C39.3038 39.0429 39.275 39.0049 39.239 38.9738C39.203 38.9428 39.1606 38.9195 39.1146 38.9054C39.0687 38.8914 39.0202 38.887 38.9723 38.8924L38.9492 38.9103Z" fill="black"/>
<path d="M16.6431 32.2098C16.5277 32.3082 13.8738 34.6281 13.4123 40.3137C13.4085 40.3566 13.4135 40.3998 13.427 40.4408C13.4405 40.4818 13.4623 40.5198 13.491 40.5526C13.5198 40.5854 13.5549 40.6124 13.5945 40.632C13.6341 40.6516 13.6772 40.6635 13.7215 40.6669H13.7492C13.8349 40.6661 13.9172 40.6346 13.9803 40.5785C14.0434 40.5223 14.0828 40.4455 14.0908 40.3629C14.5385 34.9678 17.0769 32.7284 17.0769 32.706C17.1106 32.6767 17.1379 32.6412 17.1574 32.6016C17.1769 32.562 17.1881 32.5191 17.1905 32.4753C17.1928 32.4315 17.1862 32.3877 17.1711 32.3464C17.156 32.3051 17.1326 32.267 17.1023 32.2344C17.072 32.2019 17.0354 32.1754 16.9945 32.1565C16.9536 32.1376 16.9093 32.1268 16.8641 32.1245C16.8189 32.1222 16.7736 32.1286 16.731 32.1432C16.6883 32.1579 16.649 32.1805 16.6154 32.2098H16.6431Z" fill="black"/>
<path d="M33.8769 44.882C33.79 44.8597 33.6977 44.8711 33.6193 44.9136C33.5409 44.9562 33.4827 45.0266 33.4569 45.1099C33.4246 45.2306 32.6446 48.0556 34.7354 51.2471C34.765 51.2949 34.8069 51.3345 34.8571 51.3619C34.9073 51.3894 34.9639 51.4037 35.0215 51.4035C35.0828 51.4033 35.1428 51.3872 35.1954 51.3568C35.248 51.3264 35.2911 51.2829 35.3204 51.2308C35.3496 51.1787 35.3639 51.1199 35.3617 51.0607C35.3594 51.0014 35.3408 50.9438 35.3077 50.8939C34.1701 49.2478 33.7412 47.2366 34.1123 45.2887C34.1365 45.2046 34.1253 45.1145 34.0812 45.0383C34.0371 44.9621 33.9637 44.9059 33.8769 44.882Z" fill="black"/>
<path d="M32.2616 45.3915C32.1747 45.3693 32.0823 45.3806 32.0039 45.4232C31.9256 45.4657 31.8673 45.5361 31.8416 45.6194C31.8092 45.7401 31.0292 48.5651 33.12 51.7566C33.1508 51.803 33.1932 51.8413 33.2431 51.8678C33.2931 51.8944 33.3492 51.9084 33.4062 51.9086C33.4714 51.9103 33.5357 51.8932 33.5908 51.8594C33.6647 51.8126 33.7171 51.74 33.7369 51.6566C33.7566 51.5733 33.7423 51.4858 33.6969 51.4124C32.5519 49.7693 32.1224 47.7551 32.5016 45.8072C32.5155 45.7646 32.5204 45.7198 32.5157 45.6754C32.5111 45.6309 32.4971 45.5879 32.4746 45.549C32.4521 45.51 32.4216 45.4759 32.3849 45.4488C32.3483 45.4217 32.3063 45.4022 32.2616 45.3915Z" fill="black"/>
<path d="M27.6046 41.1229C25.3549 39.7307 23.6293 37.6723 22.6846 35.254C22.671 35.2126 22.6491 35.1744 22.6201 35.1413C22.591 35.1083 22.5555 35.0812 22.5155 35.0617C22.4756 35.0421 22.432 35.0305 22.3873 35.0274C22.3426 35.0244 22.2978 35.03 22.2554 35.0439C22.1699 35.0715 22.0992 35.1306 22.0586 35.2085C22.0179 35.2863 22.0107 35.3766 22.0385 35.4596C23.012 38.0481 24.8468 40.2495 27.2538 41.7174C27.3068 41.7485 27.3673 41.7655 27.4292 41.7666C27.4879 41.7662 27.5455 41.7512 27.5964 41.723C27.6473 41.6948 27.6899 41.6544 27.72 41.6057C27.7474 41.5673 27.7661 41.5238 27.7752 41.478C27.7842 41.4322 27.7832 41.3851 27.7724 41.3396C27.7615 41.2942 27.741 41.2514 27.7121 41.2141C27.6832 41.1768 27.6466 41.1458 27.6046 41.1229Z" fill="black"/>
<path d="M22.0708 38.6957C22.0506 38.6536 22.0214 38.6161 21.9853 38.5856C21.9491 38.5551 21.9067 38.5324 21.8608 38.5188C21.815 38.5053 21.7667 38.5012 21.7191 38.5069C21.6716 38.5126 21.6257 38.5279 21.5847 38.5519C21.5436 38.5759 21.5083 38.608 21.4809 38.6461C21.4535 38.6842 21.4346 38.7274 21.4256 38.773C21.4166 38.8187 21.4176 38.8656 21.4286 38.9108C21.4396 38.956 21.4602 38.9984 21.4892 39.0354C22.1484 40.1181 22.9713 41.099 23.9308 41.9453C23.9919 42.001 24.073 42.0314 24.1569 42.0302C24.205 42.0302 24.2526 42.0202 24.2964 42.001C24.3401 41.9817 24.3792 41.9536 24.4108 41.9185C24.4685 41.8575 24.5005 41.7777 24.5005 41.695C24.5005 41.6122 24.4685 41.5325 24.4108 41.4715C23.4933 40.6634 22.7047 39.728 22.0708 38.6957Z" fill="black"/>
<path d="M10.4169 54.4385C10.4643 54.4614 10.5163 54.4736 10.5692 54.4743C10.6326 54.4741 10.6946 54.4568 10.7484 54.4245C10.8022 54.3921 10.8456 54.3459 10.8739 54.291C11.9355 52.1903 12.5059 49.8889 12.5446 47.5504C12.5399 47.463 12.5011 47.3807 12.4359 47.3201C12.3708 47.2594 12.2842 47.2251 12.1939 47.2241C12.149 47.2253 12.1048 47.235 12.0638 47.2527C12.0229 47.2704 11.9859 47.2957 11.955 47.3273C11.9242 47.3588 11.9 47.396 11.884 47.4366C11.8679 47.4771 11.8603 47.5204 11.8616 47.5638C11.8161 49.7945 11.2713 51.9891 10.2646 53.996C10.2245 54.0743 10.218 54.1648 10.2465 54.2477C10.2751 54.3306 10.3363 54.3992 10.4169 54.4385Z" fill="black"/>
<path d="M12.5815 54.4743C12.6449 54.4741 12.7069 54.4568 12.7607 54.4245C12.8145 54.3921 12.8579 54.3459 12.8862 54.291C13.9528 52.1921 14.5236 49.8895 14.5569 47.5504C14.5545 47.4631 14.517 47.3801 14.4523 47.3191C14.3877 47.2582 14.301 47.2241 14.2108 47.2241C14.1659 47.2253 14.1217 47.235 14.0808 47.2527C14.0398 47.2704 14.0028 47.2957 13.9719 47.3273C13.9411 47.3588 13.9169 47.396 13.9009 47.4366C13.8849 47.4771 13.8772 47.5204 13.8785 47.5638C13.83 49.7947 13.2836 51.9889 12.2769 53.996C12.2563 54.035 12.2439 54.0775 12.2405 54.1212C12.237 54.1648 12.2425 54.2087 12.2566 54.2503C12.2708 54.2919 12.2934 54.3303 12.323 54.3634C12.3526 54.3965 12.3887 54.4235 12.4292 54.443C12.4771 54.4638 12.5291 54.4744 12.5815 54.4743Z" fill="black"/>
<path d="M23.5385 49.9688C23.4935 49.9658 23.4483 49.9715 23.4056 49.9857C23.363 49.9999 23.3237 50.0223 23.2901 50.0515C23.2565 50.0807 23.2294 50.1161 23.2102 50.1556C23.191 50.1952 23.1802 50.238 23.1785 50.2817C23.1785 50.465 22.9708 54.8007 24.5954 58.0727C24.623 58.1284 24.6662 58.1755 24.72 58.2087C24.7738 58.2419 24.8362 58.2598 24.9 58.2604C24.9514 58.2597 25.002 58.2475 25.0477 58.2247C25.089 58.206 25.126 58.1796 25.1566 58.1468C25.1872 58.1141 25.2107 58.0758 25.2257 58.0341C25.2408 57.9925 25.2471 57.9483 25.2443 57.9043C25.2414 57.8602 25.2295 57.8172 25.2092 57.7777C23.6631 54.6488 23.8615 50.3487 23.8615 50.304C23.8629 50.2186 23.83 50.1359 23.7697 50.0734C23.7095 50.0109 23.6266 49.9734 23.5385 49.9688Z" fill="black"/>
<path d="M21.1108 49.9688C21.066 49.9658 21.0211 49.9716 20.9787 49.9858C20.9363 50.0001 20.8973 50.0225 20.8641 50.0517C20.8309 50.081 20.8041 50.1164 20.7854 50.1559C20.7668 50.1955 20.7566 50.2382 20.7554 50.2817C20.7554 50.465 20.5477 54.8007 22.1677 58.0727C22.1961 58.1288 22.2401 58.1761 22.2947 58.2092C22.3494 58.2424 22.4125 58.2601 22.477 58.2604C22.534 58.2587 22.5896 58.2435 22.6391 58.2159C22.6885 58.1884 22.7301 58.1494 22.7603 58.1025C22.7904 58.0556 22.8081 58.0023 22.8119 57.9472C22.8156 57.892 22.8052 57.8369 22.7816 57.7866C21.24 54.6577 21.4339 50.3577 21.4385 50.313C21.441 50.2255 21.4082 50.1406 21.347 50.0763C21.2857 50.012 21.201 49.9734 21.1108 49.9688Z" fill="black"/>
<path d="M19.1769 56.4456H19.2692C19.356 56.4216 19.4294 56.3654 19.4735 56.2892C19.5176 56.213 19.5288 56.123 19.5046 56.0388C19.2139 55.0013 19.0193 53.9407 18.9231 52.8697C18.9196 52.8264 18.9072 52.7842 18.8867 52.7455C18.8662 52.7069 18.8379 52.6726 18.8035 52.6447C18.7691 52.6169 18.7293 52.5959 18.6864 52.5831C18.6436 52.5703 18.5985 52.5659 18.5538 52.5702C18.4636 52.5793 18.3806 52.6223 18.3228 52.69C18.2649 52.7577 18.2369 52.8447 18.2446 52.9323C18.3459 54.0384 18.5498 55.1335 18.8538 56.2042C18.8737 56.2728 18.9159 56.3333 18.9741 56.3768C19.0323 56.4202 19.1034 56.4444 19.1769 56.4456Z" fill="black"/>
<path d="M25.6846 25.0626C26.9211 24.8039 28.2004 24.8039 29.4369 25.0626H29.5107C29.5887 25.0618 29.6641 25.0358 29.7251 24.9889C29.7861 24.942 29.8292 24.8767 29.8477 24.8034C29.8656 24.7175 29.8481 24.6283 29.7989 24.5548C29.7497 24.4813 29.6728 24.4293 29.5846 24.41C28.2425 24.1211 26.8513 24.1211 25.5092 24.41C25.4223 24.434 25.3485 24.49 25.3037 24.5661C25.2588 24.6421 25.2464 24.732 25.2692 24.8168C25.2789 24.8598 25.2975 24.9005 25.3239 24.9364C25.3503 24.9723 25.3839 25.0026 25.4227 25.0256C25.4615 25.0486 25.5047 25.0637 25.5497 25.0701C25.5947 25.0764 25.6406 25.0739 25.6846 25.0626Z" fill="black"/>
<path d="M38.7185 30.3415C38.7194 30.7608 38.5918 31.1708 38.352 31.5199C38.1122 31.8689 37.7708 32.1411 37.3712 32.3022C36.9715 32.4632 36.5315 32.5058 36.1068 32.4246C35.6821 32.3433 35.2919 32.1419 34.9855 31.8458C34.6791 31.5496 34.4702 31.1721 34.3855 30.761C34.3007 30.3499 34.3437 29.9237 34.5092 29.5363C34.6746 29.1488 34.955 28.8177 35.3149 28.5847C35.6747 28.3517 36.0979 28.2273 36.5308 28.2273C37.1102 28.2273 37.6659 28.4499 38.0761 28.8463C38.4862 29.2426 38.7172 29.7804 38.7185 30.3415Z" fill="#F8B65F"/>
<path d="M37.5461 30.3414C37.5471 30.5361 37.4883 30.7267 37.3773 30.889C37.2663 31.0513 37.108 31.178 36.9225 31.2531C36.7371 31.3283 36.5328 31.3484 36.3355 31.3109C36.1382 31.2735 35.9569 31.1802 35.8144 31.0429C35.672 30.9055 35.5748 30.7303 35.5352 30.5394C35.4957 30.3485 35.5155 30.1506 35.5922 29.9706C35.6689 29.7907 35.7991 29.6368 35.9662 29.5286C36.1332 29.4203 36.3297 29.3626 36.5308 29.3625C36.7993 29.3625 37.0568 29.4655 37.2471 29.649C37.4374 29.8324 37.5449 30.0814 37.5461 30.3414Z" fill="black"/>
<path d="M37.7677 29.3627C37.7677 29.4758 37.733 29.5864 37.6681 29.6805C37.6032 29.7746 37.5109 29.848 37.403 29.8913C37.295 29.9346 37.1762 29.9459 37.0616 29.9238C36.947 29.9017 36.8418 29.8473 36.7592 29.7672C36.6765 29.6872 36.6203 29.5853 36.5975 29.4743C36.5747 29.3633 36.5864 29.2483 36.6311 29.1437C36.6758 29.0392 36.7515 28.9498 36.8487 28.8869C36.9458 28.8241 37.06 28.7905 37.1769 28.7905C37.3336 28.7905 37.4838 28.8508 37.5946 28.9581C37.7054 29.0654 37.7677 29.2109 37.7677 29.3627Z" fill="white"/>
<path d="M56.6908 39.4153C56.5801 39.4149 56.472 39.3834 56.3794 39.3247C56.2868 39.266 56.2138 39.1826 56.1692 39.0845C55.8236 38.4027 55.3688 37.7781 54.8215 37.234C54.715 37.1309 54.6552 36.991 54.6552 36.8451C54.6552 36.6993 54.715 36.5594 54.8215 36.4562C54.928 36.3531 55.0725 36.2952 55.2231 36.2952C55.3737 36.2952 55.5181 36.3531 55.6246 36.4562C56.2745 37.0969 56.8109 37.8369 57.2123 38.6465C57.2421 38.7128 57.2581 38.7842 57.2594 38.8565C57.2607 38.9288 57.2472 39.0006 57.2198 39.0679C57.1923 39.1352 57.1514 39.1965 57.0995 39.2485C57.0475 39.3004 56.9855 39.3419 56.9169 39.3706C56.8457 39.4009 56.7686 39.4161 56.6908 39.4153Z" fill="white"/>
<path d="M42.5538 15.4747C42.4053 15.47 42.2644 15.4096 42.161 15.3062C42.0577 15.2027 41.9999 15.0644 42 14.9204V11.206C42.0128 11.0681 42.0784 10.9399 42.1839 10.8466C42.2894 10.7532 42.4271 10.7014 42.57 10.7014C42.7129 10.7014 42.8506 10.7532 42.9561 10.8466C43.0616 10.9399 43.1272 11.0681 43.14 11.206V14.9204C43.1394 14.9942 43.1237 15.0671 43.0939 15.1349C43.064 15.2028 43.0206 15.2643 42.9661 15.3158C42.9116 15.3673 42.8472 15.4079 42.7764 15.4352C42.7056 15.4624 42.63 15.4759 42.5538 15.4747Z" fill="white"/>
<path d="M43.9615 31.4099C43.8441 31.41 43.7295 31.3747 43.6337 31.3091C43.5378 31.2434 43.4653 31.1506 43.4261 31.0434C43.2757 30.5672 42.995 30.1394 42.6138 29.8052C42.4914 29.7193 42.4093 29.5898 42.3855 29.4452C42.3617 29.3006 42.3981 29.1527 42.4869 29.0342C42.5756 28.9156 42.7094 28.8361 42.8587 28.813C43.008 28.79 43.1606 28.8253 43.283 28.9113C43.8561 29.3713 44.278 29.9834 44.4969 30.6724C44.5283 30.7553 44.5384 30.8444 44.5264 30.932C44.5144 31.0195 44.4806 31.103 44.428 31.1751C44.3753 31.2472 44.3053 31.3058 44.2241 31.346C44.1428 31.3861 44.0527 31.4065 43.9615 31.4055V31.4099Z" fill="white"/>
<path d="M49.5415 20.7268C49.472 20.7283 49.4029 20.7161 49.3384 20.691C49.2685 20.6662 49.2043 20.6281 49.1498 20.579C49.0953 20.5298 49.0515 20.4706 49.0209 20.4048C48.9904 20.3389 48.9738 20.2679 48.972 20.1957C48.9703 20.1236 48.9834 20.0519 49.0108 19.9848L50.5661 16.011C50.5917 15.9433 50.6311 15.8812 50.6818 15.8284C50.7326 15.7755 50.7937 15.7331 50.8617 15.7035C50.9297 15.674 51.003 15.6578 51.0775 15.6562C51.152 15.6545 51.2261 15.6672 51.2954 15.6937C51.3654 15.7185 51.4296 15.7566 51.4842 15.8057C51.5389 15.8547 51.583 15.9138 51.6139 15.9795C51.6448 16.0452 51.662 16.1162 51.6643 16.1884C51.6667 16.2606 51.6542 16.3325 51.6277 16.3999L50.0723 20.3736C50.0306 20.4773 49.9577 20.5664 49.8631 20.6293C49.7684 20.6923 49.6564 20.7263 49.5415 20.7268Z" fill="white"/>
<path d="M33.9231 13.9371C33.7772 13.9361 33.6374 13.8807 33.5325 13.7825C33.4277 13.6843 33.3659 13.5508 33.36 13.4097L33.2307 11.2418C33.2141 11.1646 33.2149 11.0848 33.2329 11.0079C33.2509 10.931 33.2858 10.8588 33.3352 10.7961C33.3846 10.7334 33.4474 10.6817 33.5192 10.6446C33.591 10.6075 33.6703 10.5857 33.7515 10.5809C33.8328 10.576 33.9142 10.5881 33.9902 10.6164C34.0662 10.6447 34.135 10.6885 34.192 10.7449C34.249 10.8012 34.2928 10.8687 34.3205 10.9429C34.3481 11.0171 34.359 11.0961 34.3523 11.1747L34.4907 13.3515C34.4958 13.4238 34.486 13.4963 34.462 13.5648C34.438 13.6334 34.4003 13.6967 34.351 13.7511C34.3016 13.8055 34.2417 13.8499 34.1746 13.8819C34.1075 13.9138 34.0346 13.9326 33.96 13.9371H33.9231Z" fill="white"/>
</g>
<defs>
<clipPath id="clip0_23_107">
<rect width="180" height="66.3687" fill="white"/>
</clipPath>
</defs>
</svg>
