<svg aria-hidden="true" style="position: absolute; width: 0; height: 0; overflow: hidden;" version="1.1" xmlns="http://www.w3.org/2000/svg" xmlns:xlink="http://www.w3.org/1999/xlink">
<defs>
<symbol id="icon-logo" viewBox="0 0 86 32">
<path fill="#e92944" style="fill: var(--color1, #e92944)" d="M38.576 28.989h-0.456v-3.738h0.456v1.629h2.123v-1.629h0.456v3.738h-0.456v-1.729h-2.123v1.729z"></path>
<path fill="#000" style="fill: var(--color2, #000)" d="M43.122 28.989h-0.456v-3.738h0.456v3.738z"></path>
<path fill="#000" style="fill: var(--color2, #000)" d="M47.42 25.917c-0.067-0.062-0.141-0.116-0.22-0.16-0.082-0.045-0.168-0.081-0.258-0.109-0.093-0.030-0.189-0.052-0.287-0.066-0.1-0.013-0.201-0.019-0.302-0.019-0.224-0.005-0.445 0.041-0.648 0.132-0.181 0.085-0.34 0.206-0.467 0.357s-0.222 0.323-0.28 0.508c-0.064 0.192-0.096 0.393-0.095 0.596-0.002 0.208 0.029 0.416 0.093 0.615 0.056 0.177 0.152 0.34 0.28 0.478 0.13 0.136 0.291 0.242 0.47 0.31 0.211 0.078 0.436 0.116 0.661 0.111 0.148 0 0.295-0.012 0.441-0.036 0.138-0.023 0.273-0.060 0.403-0.111v-1.093h-0.957v-0.38h1.413v1.734c-0.21 0.098-0.432 0.17-0.661 0.213-0.223 0.039-0.45 0.059-0.677 0.060-0.286 0.005-0.571-0.040-0.84-0.134-0.229-0.080-0.437-0.208-0.608-0.376-0.166-0.168-0.292-0.368-0.37-0.587-0.086-0.245-0.128-0.503-0.123-0.762-0.001-0.178 0.019-0.356 0.059-0.529 0.037-0.166 0.096-0.327 0.176-0.478 0.076-0.148 0.171-0.285 0.284-0.408s0.245-0.229 0.39-0.316c0.15-0.093 0.314-0.165 0.485-0.213 0.188-0.048 0.383-0.072 0.578-0.070 0.125-0.001 0.249 0.009 0.373 0.028 0.116 0.018 0.229 0.046 0.339 0.085 0.103 0.038 0.201 0.086 0.293 0.145 0.087 0.061 0.166 0.133 0.234 0.213l-0.179 0.265z"></path>
<path fill="#000" style="fill: var(--color2, #000)" d="M49.536 28.989h-0.454v-3.738h0.454v1.629h2.125v-1.629h0.454v3.738h-0.454v-1.729h-2.125v1.729z"></path>
<path fill="#000" style="fill: var(--color2, #000)" d="M56.031 26.355l-0.168-0.566-0.183 0.566-0.864 2.634h-0.565l-1.126-3.738h0.494l0.829 2.841 0.101 0.412 0.115-0.374 0.977-2.88h0.48l0.95 2.852 0.124 0.399 0.095-0.365 0.824-2.886h0.476l-1.12 3.738h-0.562l-0.877-2.634z"></path>
<path fill="#000" style="fill: var(--color2, #000)" d="M59.388 28.989h-0.494l1.603-3.738h0.489l1.605 3.738h-0.507l-0.441-1.018h-1.85l-0.406 1.018zM59.947 27.591h1.543l-0.615-1.546c-0.015-0.032-0.031-0.070-0.046-0.113s-0.031-0.085-0.044-0.126c-0.013-0.041-0.035-0.092-0.051-0.141-0.018 0.055-0.035 0.107-0.053 0.158l-0.046 0.126-0.040 0.098-0.648 1.544z"></path>
<path fill="#000" style="fill: var(--color2, #000)" d="M64.070 28.989v-1.494l-1.413-2.244h0.507l1.142 1.872 1.153-1.872h0.507l-1.439 2.237v1.494l-0.457 0.006z"></path>
<path fill="#e92944" style="fill: var(--color1, #e92944)" d="M67.826 28.989v-3.358h-1.243v-0.38h2.949v0.38h-1.25v3.358h-0.456z"></path>
<path fill="#000" style="fill: var(--color2, #000)" d="M73.866 27.126c0.003 0.264-0.042 0.527-0.13 0.777-0.080 0.225-0.207 0.433-0.373 0.608-0.166 0.173-0.369 0.309-0.596 0.397-0.254 0.097-0.525 0.145-0.798 0.141-0.271 0.004-0.541-0.043-0.794-0.137-0.226-0.085-0.43-0.218-0.597-0.389-0.168-0.175-0.296-0.382-0.374-0.608-0.090-0.256-0.134-0.526-0.13-0.796-0.002-0.264 0.042-0.527 0.13-0.777 0.080-0.227 0.209-0.435 0.377-0.611s0.373-0.314 0.602-0.404c0.511-0.189 1.076-0.189 1.587 0 0.224 0.087 0.427 0.221 0.591 0.393 0.167 0.177 0.295 0.386 0.375 0.613 0.089 0.255 0.133 0.523 0.13 0.792zM70.56 27.126c-0.001 0.205 0.029 0.41 0.090 0.606 0.054 0.178 0.144 0.344 0.265 0.489 0.12 0.139 0.271 0.251 0.441 0.327 0.192 0.083 0.4 0.124 0.61 0.12 0.211 0.004 0.42-0.037 0.613-0.12 0.171-0.075 0.322-0.188 0.441-0.329 0.12-0.147 0.209-0.315 0.262-0.495 0.060-0.202 0.089-0.411 0.088-0.621 0.002-0.205-0.028-0.41-0.088-0.606-0.052-0.179-0.14-0.346-0.26-0.491-0.119-0.14-0.27-0.252-0.441-0.327-0.192-0.082-0.401-0.122-0.61-0.117-0.201-0.005-0.401 0.035-0.583 0.116s-0.342 0.203-0.469 0.355c-0.121 0.148-0.213 0.318-0.269 0.5-0.060 0.193-0.089 0.394-0.088 0.596l-0.002-0.002z"></path>
<path fill="#e92944" style="fill: var(--color1, #e92944)" d="M75.671 28.989v-3.358h-1.243v-0.38h2.945v0.38h-1.252v3.358h-0.449z"></path>
<path fill="#000" style="fill: var(--color2, #000)" d="M81.711 27.126c0.003 0.264-0.040 0.527-0.128 0.777-0.080 0.225-0.206 0.433-0.373 0.608-0.166 0.173-0.37 0.309-0.597 0.397-0.254 0.098-0.525 0.145-0.798 0.141-0.271 0.003-0.54-0.043-0.794-0.137-0.225-0.085-0.429-0.218-0.595-0.389-0.168-0.175-0.296-0.382-0.374-0.608-0.091-0.256-0.135-0.526-0.13-0.796-0.003-0.264 0.041-0.527 0.13-0.777 0.080-0.226 0.208-0.434 0.374-0.611 0.168-0.175 0.374-0.313 0.602-0.404 0.512-0.189 1.078-0.189 1.59 0 0.224 0.087 0.426 0.221 0.591 0.393 0.167 0.177 0.293 0.386 0.373 0.613 0.090 0.255 0.134 0.523 0.13 0.792zM78.405 27.126c-0.002 0.205 0.028 0.41 0.088 0.606 0.055 0.178 0.145 0.344 0.264 0.489 0.12 0.139 0.271 0.251 0.441 0.327 0.193 0.079 0.401 0.12 0.61 0.12s0.417-0.041 0.61-0.12c0.172-0.075 0.323-0.187 0.441-0.329 0.121-0.146 0.21-0.315 0.262-0.495 0.116-0.401 0.116-0.826 0-1.228-0.052-0.179-0.14-0.346-0.26-0.491-0.119-0.14-0.27-0.252-0.441-0.327-0.192-0.082-0.401-0.122-0.61-0.117-0.201-0.006-0.401 0.034-0.584 0.116s-0.342 0.204-0.468 0.356c-0.122 0.148-0.213 0.318-0.269 0.5-0.058 0.194-0.085 0.394-0.082 0.596l-0.004-0.002z"></path>
<path fill="#e92944" style="fill: var(--color1, #e92944)" d="M83.428 28.989h-0.456v-3.738h0.904c0.15 0 0.298 0 0.441 0.019 0.138 0.012 0.276 0.035 0.41 0.068 0.124 0.028 0.244 0.071 0.357 0.128 0.106 0.054 0.201 0.126 0.28 0.213 0.081 0.086 0.144 0.187 0.185 0.297 0.047 0.129 0.069 0.265 0.066 0.401 0.005 0.176-0.040 0.35-0.13 0.504-0.089 0.14-0.209 0.258-0.353 0.346-0.158 0.093-0.331 0.16-0.512 0.199-0.198 0.043-0.401 0.065-0.604 0.064h-0.589v1.499zM83.428 25.631v1.482h0.693c0.136 0.002 0.271-0.013 0.403-0.043 0.114-0.023 0.222-0.068 0.318-0.13 0.092-0.057 0.167-0.134 0.22-0.226 0.052-0.101 0.078-0.212 0.075-0.325 0.005-0.128-0.024-0.255-0.084-0.369-0.054-0.096-0.135-0.175-0.234-0.228-0.11-0.061-0.232-0.101-0.357-0.117-0.152-0.022-0.307-0.033-0.461-0.032l-0.573-0.011z"></path>
<path fill="#000" style="fill: var(--color2, #000)" d="M39.718 22.484h-1.521v-12.47h1.521v5.431h7.085v-5.431h1.521v12.47h-1.521v-5.764h-7.085v5.764z"></path>
<path fill="#000" style="fill: var(--color2, #000)" d="M55.951 22.484v-11.202h-4.149v-1.268h9.842v1.268h-4.173v11.202h-1.521z"></path>
<path fill="#000" style="fill: var(--color2, #000)" d="M68.035 22.484v-11.202h-4.146v-1.268h9.842v1.268h-4.175v11.202h-1.521z"></path>
<path fill="#000" style="fill: var(--color2, #000)" d="M78.663 22.484h-1.51v-12.47h3.016c0.5 0 0.991 0.021 1.472 0.064 0.461 0.036 0.918 0.107 1.367 0.213 0.411 0.098 0.81 0.241 1.188 0.427 0.352 0.172 0.67 0.404 0.937 0.685 0.27 0.288 0.479 0.625 0.615 0.991 0.156 0.431 0.23 0.886 0.22 1.343 0.015 0.589-0.137 1.17-0.441 1.68-0.292 0.469-0.695 0.864-1.177 1.151-0.524 0.313-1.1 0.538-1.702 0.664-0.662 0.145-1.337 0.216-2.015 0.213h-1.964l-0.007 5.038zM78.663 11.283v4.91h2.308c0.453 0.004 0.904-0.044 1.345-0.143 0.379-0.077 0.74-0.222 1.065-0.427 0.293-0.191 0.533-0.448 0.699-0.749 0.176-0.338 0.262-0.713 0.251-1.091 0.017-0.426-0.079-0.849-0.278-1.23-0.181-0.32-0.451-0.584-0.778-0.764-0.371-0.198-0.776-0.329-1.195-0.386-0.511-0.075-1.027-0.11-1.543-0.107l-1.874-0.013z"></path>
<path fill="#f8b65f" style="fill: var(--color3, #f8b65f)" d="M28.009 19.528l-0.026-0.081c-0.006-0.018-0.012-0.036-0.020-0.053-0.293-0.873-0.611-1.813-1.323-2.468-0.22-0.199-0.928-0.901-1.422-1.006-0.030-0.013-0.064-0.017-0.097-0.013-0.064-0.004-0.127 0.009-0.183 0.038-0.021 0.010-0.038 0.026-0.048 0.046s-0.013 0.043-0.007 0.065c-0.264 0.196-0.548 0.367-0.846 0.51-0.331 0.208-0.678 0.393-1.036 0.553-0.571 0.213-1.245 0.013-1.764 0.363-0.029 0.014-0.051 0.039-0.062 0.069s-0.008 0.063 0.007 0.091c0.015 0.028 0.040 0.050 0.071 0.060s0.065 0.008 0.094-0.006h0.011c0.018 0.026 0.043 0.048 0.073 0.063s0.062 0.023 0.095 0.022c-0.11 0 0.112 0.147 0.174 0.175 0.341 0.15 0.664 0.336 0.963 0.555 0.32 0.243 0.35 0.64 0.809 0.553 1.317-0.262 2.687-0.104 3.904 0.45 0.032 0.013 0.066 0.018 0.1 0.014s0.066-0.017 0.094-0.037c0.020 0.058 0.042 0.117 0.062 0.177 0.068 0.213 0.441 0.137 0.39-0.081-0.002-0.030-0.009-0.045-0.013-0.060z"></path>
<path fill="#e92944" style="fill: var(--color1, #e92944)" d="M24.248 15.937c-0.846-0.213-1.492-0.453-2.072-1.129-0.441-0.504-0.752-1.091-1.195-1.588-0.721-0.809-2.334-0.796-3.353-0.758-0.444-0.11-0.909-0.106-1.351 0.011-0.725 0.167-1.589 0.367-2.242 0.713-0.568 0.277-1.081 0.649-1.514 1.099-0.339 0.361-0.882 0.807-0.972 1.319-0.004 0.021-0.002 0.043 0.005 0.063s0.019 0.038 0.036 0.053c0.016 0.014 0.036 0.025 0.057 0.030s0.044 0.005 0.065-0c0.339 1.268 1.223 2.562 2.451 3.143s2.442 1.172 3.747 1.012c-0.077 0.079-0.15 0.158-0.22 0.235-0.538 0.589-0.661 1.198-0.661 1.964 0 1.447 0.606 2.417 2.028 2.912 1.025 0.359 2.777-0.455 3.163-1.422 0.233-0.646 0.308-1.336 0.22-2.015-0.076-0.561-0.012-1.131 0.187-1.663 0.026-0.070 0.234-0.672 0.309-0.679 0.027-0.001 0.052-0.012 0.072-0.029s0.033-0.040 0.038-0.065h0.013l0.038-0.036c0.026-0.032 0.040-0.072 0.040-0.113s-0.014-0.081-0.040-0.113c-0.311-0.389-0.695-0.718-1.131-0.971-0.387-0.24-0.808-0.424-1.25-0.544 0.617-0.363 1.426-0.171 2.116-0.329 0.467-0.109 1.215-0.367 1.508-0.771 0.024-0.025 0.041-0.055 0.049-0.088s0.008-0.068-0.001-0.1c-0.009-0.033-0.027-0.063-0.052-0.087s-0.055-0.042-0.089-0.051z"></path>
<path fill="#e92944" style="fill: var(--color1, #e92944)" d="M26.525 11.454c0.365-0.441 0.762-0.856 1.188-1.242 0.322-0.271 0.727-0.487 1.007-0.794 0.022-0.026 0.036-0.057 0.041-0.089s0.002-0.066-0.009-0.097c-0.012-0.031-0.032-0.059-0.058-0.080s-0.058-0.036-0.091-0.042c-0.117-0.021-0.238-0.019-0.354 0.007s-0.226 0.073-0.323 0.141c-0.505 0.288-1.065 0.414-1.607 0.619s-1.085 0.374-1.631 0.564c-0.209 0.068-0.423 0.122-0.635 0.177 0.15-0.668 0.644-1.302 0.846-1.943 0.141-0.444 0.276-0.89 0.441-1.326 0.158-0.303 0.291-0.618 0.397-0.942 0.006-0.038-0-0.076-0.017-0.111s-0.043-0.064-0.076-0.085c-0.033-0.021-0.072-0.031-0.111-0.031s-0.078 0.011-0.111 0.032c-0.3 0.173-0.522 0.446-0.816 0.64-0.428 0.252-0.87 0.483-1.323 0.692-0.767 0.389-1.431 0.937-2.162 1.377 0-0.115 0-0.231-0.026-0.346-0.022-0.213-0.035-0.444-0.042-0.672 0-0.461 0.026-0.924 0.031-1.388 0-0.816-0.179-1.689 0.042-2.489 0.057-0.213-0.22-0.288-0.355-0.16-0.785 0.792-1.488 1.637-2.334 2.376-0.408 0.354-0.954 0.696-1.336 1.119-0.062-0.623-0.322-1.215-0.441-1.834-0.085-0.644-0.216-1.28-0.392-1.906-0.014-0.034-0.038-0.064-0.069-0.086s-0.068-0.034-0.106-0.035c-0.038-0.002-0.076 0.008-0.109 0.027s-0.059 0.047-0.076 0.080c-0.101 0.144-0.155 0.315-0.154 0.489 0.044 0.329-0.306 0.792-0.481 1.046-0.373 0.544-0.641 1.129-0.981 1.682-0.688-0.557-1.386-1.112-2.088-1.663-0.033-0.026-0.075-0.040-0.117-0.041s-0.085 0.012-0.119 0.036c-0.035 0.024-0.060 0.059-0.073 0.098s-0.012 0.082 0.003 0.121c0.309 0.76 0.403 1.644 0.622 2.438 0.099 0.359 0.141 0.734 0.234 1.095 0.108 0.412 0.044 0.833 0.242 1.217-0.018 0.020-0.029 0.045-0.033 0.072s0.001 0.053 0.013 0.078c0.012 0.024 0.031 0.044 0.054 0.058s0.051 0.021 0.078 0.021c1.029-0.098 2.090-0.043 3.126-0.051 0.286-0.002 0.571 0.034 0.846 0.107 0.016 0.031 0.042 0.056 0.073 0.073 0.093 0.056 0.187 0.105 0.282 0.158 0.562 0.348 1.096 0.737 1.596 1.164 0.533 0.44 1.232 0.679 1.808 1.067 0.256 0.171 0.408 0.546 0.586 0.792 0.22 0.314 0.463 0.626 0.699 0.931l0.062 0.077c-0.019-0.005-0.038-0.004-0.056 0.003s-0.033 0.019-0.044 0.034c-0.011 0.015-0.016 0.034-0.016 0.052s0.007 0.037 0.019 0.051c0.619 0.769 2.087 1.326 3.013 0.816 0.688-0.378 1.323-0.978 1.924-1.467 0.463-0.376 1.078-0.73 1.376-1.253 0.020-0.030 0.031-0.065 0.032-0.101s-0.010-0.071-0.030-0.101c-0.020-0.030-0.048-0.054-0.082-0.069s-0.071-0.020-0.107-0.015c-0.226 0.054-0.447 0.125-0.661 0.213-0.417 0.12-0.847 0.192-1.281 0.213-0.342 0.063-0.688 0.099-1.036 0.107h-0.033c0.071-0.109 0.145-0.254 0.174-0.301 0.344-0.493 0.728-0.96 1.146-1.396z"></path>
<path fill="#fff" style="fill: var(--color4, #fff)" d="M18.622 24.002c-0.054 0-0.107-0.016-0.152-0.045-0.672-0.427-0.999-1.334-0.851-2.348 0.053-0.341 0.187-0.665 0.391-0.948s0.472-0.516 0.784-0.681c0.032-0.015 0.067-0.024 0.102-0.027s0.071 0.002 0.105 0.013c0.034 0.011 0.065 0.029 0.092 0.051s0.049 0.051 0.064 0.082c0.016 0.031 0.025 0.064 0.028 0.098s-0.002 0.069-0.013 0.101c-0.011 0.033-0.029 0.063-0.052 0.088s-0.052 0.047-0.083 0.062c-0.234 0.127-0.436 0.304-0.588 0.518s-0.253 0.459-0.293 0.716c-0.117 0.798 0.126 1.52 0.615 1.838 0.030 0.019 0.055 0.044 0.075 0.073s0.034 0.061 0.041 0.095c0.007 0.034 0.007 0.069-0 0.103s-0.021 0.066-0.041 0.095c-0.025 0.035-0.058 0.064-0.097 0.084s-0.082 0.031-0.126 0.031z"></path>
<path fill="#000" style="fill: var(--color2, #000)" d="M7.376 28.522h-1.168c-0.038-0.003-0.076 0.001-0.112 0.013s-0.069 0.031-0.097 0.055c-0.028 0.025-0.050 0.055-0.066 0.089s-0.023 0.070-0.023 0.107 0.008 0.073 0.023 0.107c0.015 0.034 0.038 0.064 0.066 0.089s0.061 0.044 0.097 0.055 0.074 0.016 0.112 0.013h1.168c0.068-0.006 0.131-0.036 0.177-0.085s0.072-0.112 0.072-0.179-0.026-0.13-0.072-0.179c-0.046-0.049-0.109-0.079-0.177-0.085z"></path>
<path fill="#000" style="fill: var(--color2, #000)" d="M12.73 28.522h-3.913c-0.068 0.006-0.131 0.036-0.177 0.085s-0.072 0.113-0.072 0.179 0.025 0.13 0.072 0.179c0.046 0.049 0.109 0.079 0.177 0.085h3.913c0.068-0.006 0.131-0.036 0.177-0.085s0.072-0.112 0.072-0.179-0.026-0.13-0.072-0.179c-0.046-0.049-0.109-0.079-0.177-0.085z"></path>
<path fill="#000" style="fill: var(--color2, #000)" d="M29.538 8.636c-0.035-0.049-0.085-0.085-0.143-0.103s-0.121-0.016-0.178 0.005l-4.678 1.731 1.741-4.441c0.021-0.052 0.024-0.11 0.008-0.164s-0.048-0.102-0.094-0.137c-0.046-0.035-0.101-0.054-0.159-0.056s-0.115 0.015-0.162 0.047l-4.409 2.94-0.053-5.043c-0-0.051-0.017-0.102-0.046-0.144s-0.072-0.076-0.121-0.095c-0.049-0.022-0.105-0.030-0.159-0.022s-0.104 0.032-0.144 0.069l-3.591 3.45-0.683-3.806c-0.009-0.054-0.036-0.104-0.076-0.143s-0.092-0.064-0.148-0.073c-0.056-0.009-0.113-0-0.164 0.024s-0.092 0.064-0.119 0.112l-1.924 3.471-2.354-1.887c-0.043-0.036-0.097-0.058-0.154-0.063s-0.114 0.008-0.163 0.037c-0.049 0.029-0.087 0.072-0.109 0.122s-0.027 0.107-0.014 0.161l1.263 5.655c-1.792 0.538-3.512 1.793-5.257 3.824-2.566 2.982-2.817 5.745-2.985 7.566-0.029 0.318-0.057 0.619-0.093 0.886-0.242 1.791-1.669 4.981-2.317 5.961h-1.764c-0.038-0.003-0.076 0.001-0.112 0.013s-0.069 0.031-0.097 0.055c-0.028 0.025-0.050 0.055-0.066 0.089s-0.023 0.070-0.023 0.107c0 0.037 0.008 0.073 0.023 0.107s0.038 0.064 0.066 0.089c0.028 0.025 0.061 0.044 0.097 0.055s0.074 0.016 0.112 0.013h5.079c0.068-0.006 0.131-0.036 0.177-0.085s0.072-0.113 0.072-0.179-0.026-0.13-0.072-0.179c-0.046-0.049-0.109-0.079-0.177-0.085h-1.263c0.388-0.5 0.663-1.074 0.807-1.684 0.010-0.041 0.003-0.083-0.019-0.119s-0.058-0.061-0.1-0.071c-0.021-0.005-0.043-0.006-0.064-0.003s-0.042 0.011-0.060 0.021-0.034 0.025-0.047 0.042c-0.012 0.017-0.021 0.036-0.026 0.056-0.153 0.649-0.468 1.253-0.917 1.757h-0.996c0.736-1.257 1.984-4.15 2.224-5.892 0.037-0.277 0.066-0.585 0.095-0.907 0.172-1.866 0.406-4.419 2.866-7.276 2.583-3.006 5.070-4.24 7.845-3.883 0.618 0.086 1.218 0.263 1.781 0.525h-0.331l-0.289 0.534c-0.505-0.26-1.061-0.415-1.631-0.457-0.042-0.002-0.082 0.012-0.114 0.038s-0.051 0.063-0.056 0.104c-0.004 0.040 0.008 0.080 0.033 0.112s0.062 0.053 0.104 0.060c0.528 0.040 1.041 0.185 1.508 0.427l-0.168 0.31c-0.505-0.261-1.061-0.416-1.631-0.457-0.043-0.004-0.086 0.009-0.119 0.036s-0.054 0.065-0.058 0.107c-0.003 0.042 0.011 0.083 0.039 0.115s0.068 0.052 0.111 0.056c0.417 0.033 0.827 0.13 1.212 0.288-0.439 0.043-0.872 0.127-1.294 0.25-2.839-0.687-4.188 0.348-4.239 0.393-0.026 0.021-0.044 0.049-0.053 0.080s-0.008 0.065 0.004 0.095 0.032 0.057 0.059 0.076c0.027 0.019 0.060 0.029 0.094 0.029 0.038 0.001 0.075-0.012 0.104-0.036 0.022-0.011 1.124-0.865 3.459-0.438-1.249 0.486-2.289 1.369-2.949 2.504-0.028 0.053-0.036 0.113-0.022 0.171 0 0.036 0.661 2.869 3.496 4.095l-0.589 1.539 1.298-1.281c0.582 0.169 1.183 0.265 1.79 0.286-0.37 0.491-0.564 1.085-0.551 1.693 0 0.995 0.22 1.798 0.637 2.383-0.022 0.491-0.064 2.694 0.897 4.325h-1.671c-0.616-0.777-1.003-1.7-1.12-2.673-0.001-0.021-0.007-0.041-0.017-0.060s-0.023-0.035-0.039-0.049c-0.016-0.014-0.035-0.024-0.055-0.031s-0.042-0.009-0.063-0.008c-0.021 0.001-0.042 0.007-0.062 0.016s-0.036 0.022-0.051 0.038c-0.014 0.016-0.025 0.034-0.032 0.054s-0.010 0.041-0.008 0.061c0.108 0.955 0.467 1.868 1.040 2.651h-2.013c-0.068 0.006-0.131 0.036-0.177 0.085s-0.072 0.112-0.072 0.179 0.026 0.13 0.072 0.179c0.046 0.049 0.109 0.079 0.177 0.085h6.031c0.068-0.006 0.131-0.036 0.177-0.085s0.072-0.112 0.072-0.179-0.026-0.13-0.072-0.179c-0.046-0.049-0.109-0.079-0.177-0.085h-1.305c-0.822-1.174-0.977-2.867-0.994-3.768 0.53 0.38 1.177 0.575 1.836 0.553 0.812 0.025 1.602-0.262 2.196-0.8s0.943-1.281 0.972-2.067c-0.006-0.286-0.032-0.571-0.077-0.854-0.104-0.741-0.185-1.328 0.562-2.077 0.392-0.111 2.7-0.677 4.66 0.796 0.042 0.031 0.092 0.050 0.144 0.054s0.105-0.007 0.151-0.031c0.047-0.024 0.085-0.061 0.111-0.106s0.036-0.097 0.031-0.148c0-0.128-0.302-3.038-3.035-4.366l3.41-2.901c0.044-0.037 0.075-0.088 0.087-0.143s0.005-0.114-0.020-0.165c-0.025-0.052-0.066-0.094-0.118-0.121s-0.111-0.037-0.169-0.028l-2.645 0.361 3.536-3.747c0.042-0.045 0.066-0.102 0.070-0.162s-0.014-0.12-0.050-0.169zM11.815 15.467c0.247-0.427 1.506-2.304 4.376-2.585l-0.075 0.139c-1.885 0.378-2.67 1.134-2.696 1.166-0.028 0.029-0.043 0.067-0.043 0.107s0.015 0.078 0.043 0.107c0.015 0.014 0.033 0.026 0.053 0.033s0.041 0.012 0.062 0.011c0.022-0 0.043-0.005 0.063-0.013s0.038-0.021 0.053-0.036c0 0 0.677-0.64 2.268-1.023l-1.391 2.59h1.614l-0.961 2.519c-0.548-0.251-1.035-0.61-1.431-1.055-0.012-0.019-0.027-0.035-0.046-0.048s-0.040-0.021-0.062-0.026c-0.022-0.004-0.045-0.004-0.067 0.001s-0.043 0.014-0.061 0.027-0.034 0.029-0.045 0.048c-0.011 0.019-0.018 0.040-0.021 0.062s-0 0.044 0.007 0.065c0.007 0.021 0.018 0.040 0.033 0.057 0.428 0.501 0.967 0.902 1.576 1.174l-0.117 0.305c-2.308-1.001-3-3.147-3.128-3.627l-0.004 0.002zM22.273 21.645c0.042 0.264 0.065 0.53 0.071 0.796-0.027 0.648-0.319 1.259-0.811 1.699s-1.143 0.674-1.813 0.649c-2.149 0-2.469-1.86-2.469-2.968-0.011-0.472 0.129-0.936 0.403-1.327s0.666-0.69 1.123-0.855c0.068-0.021 0.125-0.068 0.158-0.131s0.039-0.134 0.016-0.2c-0.022-0.066-0.071-0.121-0.135-0.153s-0.139-0.037-0.207-0.016c-0.303 0.112-0.584 0.271-0.833 0.472-0.63 0.015-1.259-0.050-1.872-0.194l0.238-0.235c0.262 0.069 0.529 0.121 0.798 0.158h0.033c0.041-0.001 0.079-0.017 0.109-0.044s0.047-0.064 0.050-0.103c0.003-0.039-0.010-0.078-0.035-0.109s-0.061-0.051-0.101-0.058c-0.205-0.028-0.395-0.066-0.58-0.109l3.939-3.909h-1.323l1.193-2.035c0.441 0.275 0.661 0.606 0.977 1.052 0.293 0.44 0.62 0.857 0.979 1.249 0.247 0.273 0.553 0.49 0.895 0.638s0.714 0.221 1.089 0.216c-0.833 0.726-1.353 0.833-1.907 0.745-0.602-0.082-1.214 0.032-1.741 0.325-0.046 0.028-0.083 0.070-0.104 0.118s-0.027 0.103-0.017 0.155c0.009 0.053 0.035 0.103 0.075 0.141s0.091 0.064 0.146 0.072c0.771 0.189 1.463 0.603 1.984 1.185-0.723 0.48-1.071 1.341-0.999 2.511 0.013 0.237 0.026 0.468 0.024 0.681-0.001 0.021 0.003 0.041 0.011 0.061s0.020 0.037 0.035 0.052 0.033 0.026 0.053 0.034c0.020 0.008 0.041 0.012 0.062 0.011s0.043-0.004 0.062-0.011c0.020-0.008 0.038-0.019 0.053-0.034s0.027-0.032 0.035-0.051 0.012-0.040 0.012-0.060c0-0.213 0-0.468-0.024-0.7-0.064-1.067 0.234-1.83 0.882-2.246 0.029 0.036 0.055 0.077 0.082 0.115-0.82 0.89-0.714 1.663-0.611 2.408l-0.004 0.002zM23.344 18.962c-0.41-0.603-0.973-1.094-1.633-1.428 0.501-0.012 1.001 0.048 1.484 0.177 0.825 0.317 1.629 0.683 2.407 1.095-0.754-0.081-1.518-0.029-2.253 0.154l-0.004 0.002zM27.812 19.515c-0.332-0.19-0.685-0.346-1.051-0.463-1.23-0.66-2.826-1.439-3.465-1.64-0.057-0.019-0.119-0.034-0.179-0.051 0.207-0.056 0.407-0.137 0.593-0.241 0.421 0.17 0.826 0.375 1.212 0.611 0.026 0.018 0.058 0.028 0.090 0.028 0.027 0 0.053-0.006 0.077-0.018s0.044-0.029 0.060-0.050c0.022-0.034 0.030-0.076 0.022-0.115s-0.032-0.075-0.066-0.098c-0.341-0.212-0.698-0.398-1.069-0.555l0.13-0.092c0.417 0.168 0.818 0.371 1.199 0.606 0.028 0.017 0.060 0.026 0.093 0.026 0.026 0 0.052-0.006 0.076-0.018s0.044-0.029 0.058-0.050c0.022-0.034 0.030-0.075 0.022-0.115s-0.031-0.075-0.064-0.099c-0.351-0.218-0.72-0.409-1.102-0.57l0.132-0.113c0.403 0.163 0.791 0.358 1.16 0.583 0.035 0.022 0.078 0.030 0.119 0.022s0.078-0.031 0.101-0.065c0.023-0.034 0.031-0.076 0.023-0.115s-0.032-0.075-0.067-0.098c-0.345-0.217-0.709-0.405-1.087-0.564l0.17-0.166c1.894 0.818 2.581 2.515 2.817 3.42l-0.004 0.002zM25.066 12.897c-0.034 0.040-0.055 0.089-0.060 0.141s0.006 0.104 0.031 0.149 0.064 0.083 0.112 0.107c0.047 0.024 0.101 0.034 0.155 0.029l2.498-0.339-2.991 2.547c-0.326 0.088-0.669 0.106-1.003 0.053l0.939-0.971c0.028-0.029 0.043-0.067 0.043-0.107s-0.015-0.078-0.043-0.107c-0.031-0.029-0.072-0.046-0.116-0.046s-0.085 0.016-0.116 0.046l-1.056 1.093c-0.193-0.069-0.375-0.166-0.538-0.288l1.201-1.339c0.029-0.031 0.044-0.073 0.042-0.115s-0.022-0.082-0.054-0.11c-0.032-0.028-0.075-0.043-0.119-0.041s-0.085 0.021-0.114 0.053l-1.199 1.336c-0.022-0.020-0.044-0.042-0.064-0.064-0.342-0.373-0.654-0.771-0.935-1.189l-0.044-0.066 0.849-1.074c0.013-0.016 0.023-0.035 0.029-0.055s0.007-0.041 0.005-0.062c-0.003-0.021-0.009-0.041-0.020-0.059s-0.025-0.034-0.042-0.047c-0.017-0.013-0.036-0.022-0.057-0.028s-0.042-0.007-0.064-0.004-0.042 0.009-0.061 0.020c-0.019 0.010-0.035 0.024-0.048 0.040l-0.8 0.991c-0.123-0.171-0.26-0.332-0.41-0.482l1.102-1.494c0.025-0.034 0.035-0.077 0.028-0.118s-0.031-0.078-0.067-0.103c-0.035-0.024-0.079-0.034-0.122-0.027s-0.081 0.030-0.106 0.064l-1.082 1.473c-0.086-0.068-0.176-0.13-0.269-0.188l0.838-1.428h-2.7c-0.165-0.098-0.344-0.196-0.529-0.29l0.924-2.081c0.009-0.036 0.005-0.075-0.012-0.108s-0.046-0.060-0.081-0.075c-0.035-0.015-0.075-0.017-0.112-0.006s-0.069 0.034-0.090 0.066l-0.915 2.062c-0.179-0.083-0.364-0.162-0.553-0.233l0.366-1.43c0.007-0.039-0.002-0.079-0.025-0.112s-0.057-0.057-0.097-0.066c-0.040-0.010-0.082-0.005-0.117 0.014s-0.063 0.050-0.077 0.087l-0.362 1.398c-0.382-0.13-0.776-0.223-1.177-0.28-0.306-0.039-0.615-0.059-0.924-0.060v-2.233c0-0.042-0.017-0.082-0.048-0.112s-0.072-0.046-0.115-0.046c-0.043 0-0.085 0.017-0.115 0.046s-0.048 0.070-0.048 0.112v2.246c-0.172 0-0.342 0.017-0.511 0.034l-0.324-1.482c-0.009-0.041-0.035-0.077-0.071-0.1s-0.081-0.031-0.123-0.022c-0.042 0.009-0.079 0.033-0.103 0.069s-0.032 0.078-0.023 0.119l0.32 1.456c-0.154 0.024-0.311 0.053-0.465 0.088l-1.102-4.889 2.006 1.61c0.031 0.024 0.066 0.041 0.104 0.050s0.078 0.011 0.116 0.005c0.039-0.007 0.076-0.023 0.109-0.047s0.058-0.053 0.077-0.088l1.728-3.083 0.637 3.55c0.009 0.047 0.030 0.091 0.063 0.128s0.075 0.063 0.122 0.078 0.098 0.016 0.146 0.005c0.048-0.011 0.092-0.035 0.127-0.069l3.512-3.367 0.066 4.934c0.003 0.044 0.018 0.087 0.043 0.125s0.059 0.068 0.1 0.089c0.043 0.024 0.091 0.037 0.14 0.037s0.097-0.013 0.14-0.037l4.098-2.741-1.655 4.191c-0.019 0.047-0.023 0.099-0.012 0.149s0.036 0.095 0.074 0.131c0.037 0.036 0.084 0.061 0.136 0.071s0.105 0.006 0.154-0.012l4.188-1.546-3.28 3.473z"></path>
<path fill="#000" style="fill: var(--color2, #000)" d="M21.761 22.559c-0.042-0.008-0.086-0.001-0.122 0.022s-0.062 0.057-0.072 0.098c-0.056 0.255-0.164 0.497-0.315 0.713-0.022 0.035-0.030 0.076-0.021 0.116s0.033 0.075 0.067 0.098c0.036 0.021 0.078 0.029 0.119 0.020s0.077-0.032 0.101-0.065c0.173-0.249 0.297-0.527 0.364-0.82 0.007-0.039-0.002-0.080-0.024-0.114s-0.057-0.058-0.097-0.068z"></path>
<path fill="#000" style="fill: var(--color2, #000)" d="M20.736 23.782c-0.142 0.058-0.29 0.101-0.441 0.128-0.153 0.028-0.308 0.044-0.463 0.049-0.043 0-0.085 0.017-0.115 0.046s-0.048 0.070-0.048 0.112c-0.001 0.021 0.003 0.041 0.011 0.061s0.020 0.037 0.035 0.052c0.015 0.015 0.033 0.026 0.053 0.034s0.041 0.012 0.062 0.011c0.177-0.003 0.353-0.022 0.527-0.055 0.176-0.032 0.347-0.082 0.511-0.149 0.022-0.007 0.041-0.018 0.058-0.033s0.030-0.033 0.040-0.053c0.009-0.020 0.014-0.042 0.014-0.064s-0.005-0.044-0.014-0.064c-0.009-0.020-0.022-0.038-0.039-0.053s-0.037-0.026-0.058-0.033c-0.022-0.007-0.044-0.010-0.067-0.008s-0.045 0.009-0.064 0.019h-0.002z"></path>
<path fill="#000" style="fill: var(--color2, #000)" d="M12.406 15.523c0.089-0.123 0.191-0.237 0.304-0.339 0.018-0.013 0.034-0.030 0.045-0.049s0.018-0.041 0.020-0.063c0.002-0.022-0.001-0.044-0.008-0.065s-0.019-0.040-0.035-0.056c-0.016-0.016-0.034-0.029-0.055-0.038s-0.044-0.013-0.067-0.013c-0.023 0-0.045 0.005-0.066 0.015s-0.039 0.023-0.054 0.039c-0.159 0.138-0.295 0.297-0.406 0.474-0.009 0.020-0.014 0.042-0.014 0.064s0.005 0.044 0.014 0.064c0.166 0.417 0.388 0.811 0.661 1.172 0.015 0.020 0.035 0.037 0.058 0.048s0.048 0.018 0.074 0.018c0.034-0 0.067-0.011 0.095-0.030 0.033-0.024 0.056-0.060 0.062-0.1s-0.002-0.080-0.025-0.114c-0.242-0.318-0.445-0.663-0.604-1.027z"></path>
<path fill="#000" style="fill: var(--color2, #000)" d="M18.603 18.584c-0.432 0.030-0.843 0.197-1.168 0.474-0.028 0.029-0.044 0.067-0.044 0.107s0.016 0.078 0.044 0.107c0.015 0.017 0.033 0.031 0.054 0.040s0.044 0.014 0.067 0.013c0.040 0 0.079-0.014 0.108-0.041 0.266-0.226 0.598-0.364 0.95-0.395 0.023 0.003 0.046 0 0.068-0.006s0.042-0.018 0.059-0.033 0.031-0.033 0.040-0.053c0.009-0.020 0.014-0.042 0.014-0.065s-0.005-0.044-0.014-0.065c-0.009-0.020-0.023-0.038-0.040-0.053s-0.037-0.026-0.059-0.033c-0.022-0.007-0.045-0.009-0.068-0.006l-0.011 0.009z"></path>
<path fill="#000" style="fill: var(--color2, #000)" d="M7.949 15.384c-0.055 0.047-1.323 1.155-1.543 3.871-0.002 0.020 0.001 0.041 0.007 0.061s0.017 0.038 0.031 0.053c0.014 0.016 0.031 0.029 0.049 0.038s0.040 0.015 0.061 0.017h0.013c0.041-0 0.080-0.015 0.11-0.042s0.049-0.064 0.053-0.103c0.214-2.577 1.426-3.646 1.426-3.657 0.016-0.014 0.029-0.031 0.038-0.050s0.015-0.039 0.016-0.060c0.001-0.021-0.002-0.042-0.009-0.062s-0.018-0.038-0.033-0.053c-0.014-0.016-0.032-0.028-0.052-0.037s-0.041-0.014-0.062-0.015c-0.022-0.001-0.043 0.002-0.064 0.009s-0.039 0.018-0.055 0.032h0.013z"></path>
<path fill="#000" style="fill: var(--color2, #000)" d="M16.18 21.436c-0.041-0.011-0.086-0.005-0.123 0.015s-0.065 0.054-0.078 0.094c-0.015 0.058-0.388 1.407 0.611 2.931 0.014 0.023 0.034 0.042 0.058 0.055s0.051 0.020 0.079 0.020c0.029-0 0.058-0.008 0.083-0.022s0.046-0.035 0.060-0.060c0.014-0.025 0.021-0.053 0.020-0.081s-0.010-0.056-0.026-0.080c-0.543-0.786-0.748-1.747-0.571-2.677 0.012-0.040 0.006-0.083-0.015-0.12s-0.056-0.063-0.098-0.075z"></path>
<path fill="#000" style="fill: var(--color2, #000)" d="M15.409 21.68c-0.041-0.011-0.086-0.005-0.123 0.015s-0.065 0.054-0.078 0.094c-0.015 0.058-0.388 1.407 0.611 2.931 0.015 0.022 0.035 0.040 0.059 0.053s0.051 0.019 0.078 0.020c0.031 0.001 0.062-0.007 0.088-0.023 0.035-0.022 0.060-0.057 0.070-0.097s0.003-0.082-0.019-0.117c-0.547-0.785-0.752-1.747-0.571-2.677 0.007-0.020 0.009-0.042 0.007-0.063s-0.009-0.042-0.020-0.060c-0.011-0.019-0.025-0.035-0.043-0.048s-0.038-0.022-0.059-0.027z"></path>
<path fill="#000" style="fill: var(--color2, #000)" d="M13.184 19.641c-1.074-0.665-1.899-1.648-2.35-2.803-0.007-0.020-0.017-0.038-0.031-0.054s-0.031-0.029-0.050-0.038c-0.019-0.009-0.040-0.015-0.061-0.016s-0.043 0.001-0.063 0.008c-0.041 0.013-0.075 0.041-0.094 0.079s-0.023 0.080-0.010 0.12c0.465 1.236 1.341 2.288 2.491 2.989 0.025 0.015 0.054 0.023 0.084 0.023 0.028-0 0.056-0.007 0.080-0.021s0.045-0.033 0.059-0.056c0.013-0.018 0.022-0.039 0.026-0.061s0.004-0.044-0.001-0.066c-0.005-0.022-0.015-0.042-0.029-0.060s-0.031-0.033-0.051-0.044z"></path>
<path fill="#000" style="fill: var(--color2, #000)" d="M10.541 18.482c-0.010-0.020-0.024-0.038-0.041-0.053s-0.038-0.025-0.059-0.032c-0.022-0.006-0.045-0.008-0.068-0.006s-0.045 0.010-0.064 0.021c-0.020 0.011-0.037 0.027-0.050 0.045s-0.022 0.039-0.026 0.061c-0.004 0.022-0.004 0.044 0.001 0.066s0.015 0.042 0.029 0.059c0.315 0.517 0.708 0.986 1.166 1.39 0.029 0.027 0.068 0.041 0.108 0.041 0.023 0 0.046-0.005 0.067-0.014s0.040-0.023 0.055-0.039c0.028-0.029 0.043-0.067 0.043-0.107s-0.015-0.078-0.043-0.107c-0.438-0.386-0.815-0.833-1.118-1.326z"></path>
<path fill="#000" style="fill: var(--color2, #000)" d="M4.975 26c0.023 0.011 0.047 0.017 0.073 0.017 0.030-0 0.060-0.008 0.086-0.024s0.046-0.038 0.060-0.064c0.507-1.003 0.779-2.102 0.798-3.219-0.002-0.042-0.021-0.081-0.052-0.11s-0.072-0.045-0.116-0.046c-0.021 0.001-0.043 0.005-0.062 0.014s-0.037 0.021-0.052 0.036c-0.015 0.015-0.026 0.033-0.034 0.052s-0.011 0.040-0.011 0.061c-0.022 1.065-0.282 2.114-0.763 3.072-0.019 0.037-0.022 0.081-0.009 0.12s0.043 0.072 0.081 0.091z"></path>
<path fill="#000" style="fill: var(--color2, #000)" d="M6.009 26.018c0.030-0 0.060-0.008 0.086-0.024s0.046-0.038 0.060-0.064c0.509-1.002 0.782-2.102 0.798-3.219-0.001-0.042-0.019-0.081-0.050-0.11s-0.072-0.045-0.115-0.045c-0.021 0.001-0.043 0.005-0.062 0.014s-0.037 0.021-0.052 0.036c-0.015 0.015-0.026 0.033-0.034 0.052s-0.011 0.040-0.011 0.061c-0.023 1.066-0.284 2.113-0.765 3.072-0.010 0.019-0.016 0.039-0.017 0.060s0.001 0.042 0.008 0.062c0.007 0.020 0.018 0.038 0.032 0.054s0.031 0.029 0.051 0.038c0.023 0.010 0.048 0.015 0.073 0.015z"></path>
<path fill="#000" style="fill: var(--color2, #000)" d="M11.242 23.866c-0.021-0.001-0.043 0.001-0.063 0.008s-0.039 0.017-0.055 0.031-0.029 0.031-0.038 0.050c-0.009 0.019-0.014 0.039-0.015 0.060 0 0.088-0.099 2.158 0.677 3.721 0.013 0.027 0.034 0.049 0.059 0.065s0.056 0.024 0.086 0.025c0.025-0 0.049-0.006 0.071-0.017 0.020-0.009 0.037-0.022 0.052-0.037s0.026-0.034 0.033-0.054c0.007-0.020 0.010-0.041 0.009-0.062s-0.007-0.042-0.017-0.060c-0.738-1.494-0.644-3.548-0.644-3.57 0.001-0.041-0.015-0.080-0.044-0.11s-0.068-0.048-0.11-0.050z"></path>
<path fill="#000" style="fill: var(--color2, #000)" d="M10.083 23.866c-0.021-0.001-0.043 0.001-0.063 0.008s-0.039 0.018-0.055 0.031c-0.016 0.014-0.029 0.031-0.038 0.050s-0.014 0.039-0.014 0.060c0 0.088-0.099 2.158 0.675 3.721 0.014 0.027 0.035 0.049 0.061 0.065s0.056 0.024 0.087 0.024c0.027-0.001 0.054-0.008 0.077-0.021s0.043-0.032 0.058-0.054c0.014-0.022 0.023-0.048 0.025-0.074s-0.003-0.053-0.014-0.077c-0.736-1.494-0.644-3.548-0.641-3.569 0.001-0.042-0.014-0.082-0.044-0.113s-0.070-0.049-0.113-0.051z"></path>
<path fill="#000" style="fill: var(--color2, #000)" d="M9.159 26.959h0.044c0.041-0.011 0.076-0.038 0.098-0.075s0.026-0.079 0.015-0.12c-0.139-0.496-0.232-1.002-0.278-1.514-0.002-0.021-0.008-0.041-0.017-0.059s-0.023-0.035-0.040-0.048c-0.016-0.013-0.035-0.023-0.056-0.029s-0.042-0.008-0.063-0.006c-0.043 0.004-0.083 0.025-0.11 0.057s-0.041 0.074-0.037 0.116c0.048 0.528 0.146 1.051 0.291 1.563 0.009 0.033 0.030 0.062 0.057 0.082s0.062 0.032 0.097 0.033z"></path>
<path fill="#000" style="fill: var(--color2, #000)" d="M12.267 11.97c0.591-0.124 1.202-0.124 1.792 0h0.035c0.037-0 0.073-0.013 0.102-0.035s0.050-0.054 0.059-0.089c0.009-0.041 0-0.084-0.023-0.119s-0.060-0.060-0.102-0.069c-0.641-0.138-1.305-0.138-1.946 0-0.041 0.011-0.077 0.038-0.098 0.075s-0.027 0.079-0.016 0.12c0.005 0.021 0.014 0.040 0.026 0.057s0.029 0.032 0.047 0.043c0.019 0.011 0.039 0.018 0.061 0.021s0.043 0.002 0.064-0.004z"></path>
<path fill="#f8b65f" style="fill: var(--color3, #f8b65f)" d="M18.492 14.491c0 0.2-0.061 0.396-0.175 0.563s-0.278 0.297-0.468 0.374c-0.191 0.077-0.401 0.097-0.604 0.058s-0.389-0.135-0.536-0.276c-0.146-0.141-0.246-0.322-0.287-0.518s-0.020-0.4 0.059-0.585c0.079-0.185 0.213-0.343 0.385-0.454s0.374-0.171 0.581-0.171c0.277 0 0.542 0.106 0.738 0.296s0.306 0.446 0.307 0.714z"></path>
<path fill="#000" style="fill: var(--color2, #000)" d="M17.932 14.491c0 0.093-0.028 0.184-0.081 0.262s-0.129 0.138-0.217 0.174c-0.089 0.036-0.186 0.046-0.28 0.028s-0.181-0.062-0.249-0.128c-0.068-0.066-0.114-0.149-0.133-0.24s-0.009-0.186 0.027-0.272c0.037-0.086 0.099-0.159 0.179-0.211s0.174-0.079 0.27-0.079c0.128 0 0.251 0.049 0.342 0.137s0.142 0.207 0.143 0.331z"></path>
<path fill="#fff" style="fill: var(--color4, #fff)" d="M18.038 14.024c0 0.054-0.017 0.107-0.048 0.152s-0.075 0.080-0.127 0.101c-0.052 0.021-0.108 0.026-0.163 0.016s-0.105-0.037-0.144-0.075c-0.040-0.038-0.066-0.087-0.077-0.14s-0.005-0.108 0.016-0.158c0.021-0.050 0.058-0.093 0.104-0.123s0.101-0.046 0.157-0.046c0.075 0 0.147 0.029 0.2 0.080s0.083 0.121 0.083 0.193z"></path>
<path fill="#fff" style="fill: var(--color4, #fff)" d="M27.076 18.825c-0.053-0-0.105-0.015-0.149-0.043s-0.079-0.068-0.1-0.115c-0.165-0.326-0.382-0.624-0.644-0.884-0.051-0.049-0.079-0.116-0.079-0.186s0.029-0.136 0.079-0.186c0.051-0.049 0.12-0.077 0.192-0.077s0.141 0.028 0.192 0.077c0.31 0.306 0.567 0.659 0.758 1.046 0.014 0.032 0.022 0.066 0.023 0.1s-0.006 0.069-0.019 0.101c-0.013 0.032-0.033 0.061-0.057 0.086s-0.054 0.045-0.087 0.058c-0.034 0.014-0.071 0.022-0.108 0.021z"></path>
<path fill="#fff" style="fill: var(--color4, #fff)" d="M20.324 7.391c-0.071-0.002-0.138-0.031-0.188-0.080s-0.077-0.115-0.077-0.184v-1.774c0.006-0.066 0.037-0.127 0.088-0.172s0.116-0.069 0.184-0.069 0.134 0.025 0.184 0.069c0.050 0.045 0.082 0.106 0.088 0.172v1.774c-0 0.035-0.008 0.070-0.022 0.102s-0.035 0.062-0.061 0.086-0.057 0.044-0.091 0.057c-0.034 0.013-0.070 0.019-0.106 0.019z"></path>
<path fill="#fff" style="fill: var(--color4, #fff)" d="M20.997 15.002c-0.056 0-0.111-0.017-0.157-0.048s-0.080-0.076-0.099-0.127c-0.072-0.227-0.206-0.432-0.388-0.591-0.058-0.041-0.098-0.103-0.109-0.172s0.006-0.14 0.048-0.196c0.042-0.057 0.106-0.095 0.178-0.106s0.144 0.006 0.203 0.047c0.274 0.22 0.475 0.512 0.58 0.841 0.015 0.040 0.020 0.082 0.014 0.124s-0.022 0.082-0.047 0.116c-0.025 0.034-0.059 0.062-0.097 0.082s-0.082 0.029-0.125 0.028v0.002z"></path>
<path fill="#fff" style="fill: var(--color4, #fff)" d="M23.662 9.899c-0.033 0.001-0.066-0.005-0.097-0.017-0.033-0.012-0.064-0.030-0.090-0.053s-0.047-0.052-0.062-0.083c-0.015-0.031-0.023-0.065-0.023-0.1s0.005-0.069 0.019-0.101l0.743-1.898c0.012-0.032 0.031-0.062 0.055-0.087s0.053-0.046 0.086-0.060c0.032-0.014 0.067-0.022 0.103-0.023s0.071 0.005 0.104 0.018c0.033 0.012 0.064 0.030 0.090 0.053s0.047 0.052 0.062 0.083 0.023 0.065 0.024 0.1c0.001 0.034-0.005 0.069-0.017 0.101l-0.743 1.898c-0.020 0.050-0.055 0.092-0.1 0.122s-0.099 0.046-0.154 0.047z"></path>
<path fill="#fff" style="fill: var(--color4, #fff)" d="M16.202 6.657c-0.070-0-0.136-0.027-0.187-0.074s-0.080-0.111-0.082-0.178l-0.062-1.035c-0.008-0.037-0.008-0.075 0.001-0.112s0.025-0.071 0.049-0.101c0.024-0.030 0.054-0.055 0.088-0.072s0.072-0.028 0.111-0.030c0.039-0.002 0.078 0.003 0.114 0.017s0.069 0.034 0.096 0.061c0.027 0.027 0.048 0.059 0.061 0.095s0.018 0.073 0.015 0.111l0.066 1.040c0.002 0.035-0.002 0.069-0.014 0.102s-0.029 0.063-0.053 0.089c-0.024 0.026-0.052 0.047-0.084 0.062s-0.067 0.024-0.102 0.026h-0.018z"></path>
</symbol>
</defs>
</svg>
