<svg aria-hidden="true" style="position: absolute; width: 0; height: 0; overflow: hidden;" version="1.1" xmlns="http://www.w3.org/2000/svg" xmlns:xlink="http://www.w3.org/1999/xlink">
<defs>
<symbol id="icon-Http-logo" viewBox="0 0 84 32">
<path fill="#e92944" style="fill: var(--color1, #e92944)" d="M37.716 29.265h-0.446v-3.774h0.446v1.644h2.075v-1.644h0.446v3.774h-0.446v-1.746h-2.075z"></path>
<path fill="#000" style="fill: var(--color2, #000)" d="M42.159 29.265h-0.446v-3.774h0.446z"></path>
<path fill="#000" style="fill: var(--color2, #000)" d="M46.362 26.164c-0.063-0.061-0.134-0.114-0.21-0.159l-0.005-0.003c-0.072-0.042-0.155-0.079-0.243-0.107l-0.009-0.003c-0.079-0.028-0.174-0.051-0.271-0.066l-0.009-0.001c-0.088-0.012-0.19-0.019-0.294-0.019-0 0-0.001 0-0.001 0h0c-0.009-0-0.019-0-0.030-0-0.219 0-0.427 0.049-0.613 0.138l0.009-0.004c-0.181 0.089-0.333 0.21-0.455 0.358l-0.002 0.002c-0.119 0.145-0.212 0.316-0.271 0.502l-0.003 0.011c-0.059 0.177-0.093 0.381-0.093 0.592 0 0.003 0 0.006 0 0.009v-0c-0 0.007-0 0.015-0 0.023 0 0.213 0.033 0.419 0.095 0.612l-0.004-0.014c0.059 0.187 0.153 0.349 0.275 0.484l-0.001-0.001c0.125 0.134 0.278 0.241 0.451 0.31l0.008 0.003c0.181 0.071 0.391 0.112 0.61 0.112 0.013 0 0.026-0 0.038-0l-0.002 0c0.001 0 0.002 0 0.003 0 0.151 0 0.299-0.013 0.443-0.039l-0.015 0.002c0.149-0.026 0.282-0.065 0.407-0.117l-0.013 0.005v-1.103h-0.935v-0.384h1.381v1.75c-0.186 0.092-0.403 0.166-0.629 0.213l-0.017 0.003c-0.199 0.038-0.427 0.060-0.661 0.060h-0.001c-0.013 0-0.028 0-0.043 0-0.279 0-0.547-0.050-0.794-0.141l0.016 0.005c-0.233-0.085-0.432-0.214-0.595-0.379l-0-0c-0.157-0.164-0.281-0.362-0.359-0.581l-0.004-0.011c-0.077-0.219-0.121-0.471-0.121-0.734 0-0.012 0-0.025 0-0.037l-0 0.002c0-0.002 0-0.005 0-0.007 0-0.187 0.021-0.369 0.061-0.544l-0.003 0.016c0.040-0.183 0.1-0.344 0.178-0.494l-0.005 0.011c0.079-0.157 0.171-0.292 0.28-0.413l-0.002 0.002c0.11-0.122 0.236-0.228 0.374-0.315l0.007-0.004c0.136-0.088 0.294-0.162 0.461-0.212l0.013-0.003c0.164-0.045 0.352-0.071 0.546-0.071 0.006 0 0.013 0 0.019 0h-0.001c0.003 0 0.007-0 0.010-0 0.125 0 0.247 0.010 0.367 0.030l-0.013-0.002c0.126 0.020 0.237 0.050 0.344 0.090l-0.012-0.004c0.11 0.042 0.204 0.091 0.292 0.15l-0.005-0.003c0.087 0.063 0.162 0.134 0.227 0.213l0.002 0.002z"></path>
<path fill="#000" style="fill: var(--color2, #000)" d="M48.431 29.265h-0.444v-3.774h0.444v1.644h2.078v-1.644h0.444v3.774h-0.444v-1.746h-2.078z"></path>
<path fill="#000" style="fill: var(--color2, #000)" d="M54.78 26.606l-0.164-0.571-0.179 0.571-0.845 2.659h-0.552l-1.101-3.774h0.483l0.81 2.869 0.099 0.416 0.112-0.377 0.955-2.907h0.47l0.929 2.879 0.121 0.403 0.093-0.369 0.806-2.914h0.466l-1.095 3.774h-0.55z"></path>
<path fill="#000" style="fill: var(--color2, #000)" d="M58.063 29.265h-0.483l1.567-3.774h0.478l1.569 3.774h-0.496l-0.431-1.028h-1.808zM58.61 27.853h1.509l-0.601-1.56c-0.015-0.032-0.030-0.071-0.045-0.114s-0.030-0.086-0.043-0.127-0.034-0.093-0.050-0.142c-0.017 0.056-0.034 0.108-0.052 0.159l-0.045 0.127-0.039 0.099z"></path>
<path fill="#000" style="fill: var(--color2, #000)" d="M62.64 29.265v-1.509l-1.381-2.265h0.496l1.116 1.89 1.127-1.89h0.496l-1.407 2.259v1.509z"></path>
<path fill="#e92944" style="fill: var(--color1, #e92944)" d="M66.313 29.265v-3.39h-1.216v-0.384h2.884v0.384h-1.222v3.39z"></path>
<path fill="#000" style="fill: var(--color2, #000)" d="M72.218 27.384c0 0.007 0 0.015 0 0.023 0 0.273-0.047 0.534-0.132 0.778l0.005-0.016c-0.083 0.238-0.207 0.443-0.365 0.616l0.001-0.001c-0.159 0.171-0.353 0.307-0.571 0.397l-0.011 0.004c-0.221 0.090-0.478 0.142-0.747 0.142-0.012 0-0.023-0-0.035-0l0.002 0c-0.008 0-0.018 0-0.028 0-0.269 0-0.526-0.051-0.762-0.143l0.014 0.005c-0.229-0.090-0.424-0.224-0.583-0.392l-0.001-0.001c-0.16-0.171-0.285-0.375-0.363-0.602l-0.004-0.012c-0.081-0.231-0.127-0.497-0.127-0.775 0-0.010 0-0.020 0-0.031v0.002c-0-0.006-0-0.014-0-0.022 0-0.273 0.047-0.535 0.132-0.779l-0.005 0.016c0.084-0.239 0.209-0.445 0.37-0.617l-0.001 0.001c0.161-0.174 0.357-0.312 0.578-0.403l0.011-0.004c0.23-0.091 0.497-0.143 0.776-0.143s0.546 0.053 0.791 0.148l-0.015-0.005c0.227 0.092 0.42 0.227 0.577 0.396l0.001 0.001c0.158 0.173 0.283 0.379 0.363 0.606l0.004 0.012c0.081 0.231 0.127 0.498 0.127 0.775 0 0.009-0 0.017-0 0.026v-0.001zM68.985 27.384c-0 0.004-0 0.008-0 0.012 0 0.214 0.032 0.42 0.092 0.615l-0.004-0.015c0.057 0.19 0.145 0.354 0.261 0.496l-0.002-0.003c0.116 0.139 0.26 0.25 0.424 0.327l0.008 0.003c0.167 0.076 0.362 0.121 0.568 0.121 0.010 0 0.021-0 0.031-0l-0.002 0c0.008 0 0.017 0 0.027 0 0.207 0 0.404-0.045 0.582-0.125l-0.009 0.004c0.172-0.079 0.316-0.191 0.429-0.33l0.002-0.002c0.113-0.141 0.201-0.308 0.254-0.49l0.003-0.010c0.055-0.184 0.086-0.396 0.086-0.615 0-0.004 0-0.008-0-0.012v0.001c0-0.006 0-0.012 0-0.019 0-0.211-0.032-0.415-0.090-0.608l0.004 0.015c-0.054-0.19-0.141-0.356-0.256-0.498l0.002 0.003c-0.116-0.139-0.26-0.251-0.424-0.327l-0.007-0.003c-0.166-0.075-0.359-0.119-0.563-0.119-0.012 0-0.024 0-0.036 0l0.002-0c-0.010-0-0.022-0-0.034-0-0.401 0-0.758 0.185-0.992 0.474l-0.002 0.002c-0.114 0.143-0.204 0.311-0.26 0.494l-0.003 0.011c-0.055 0.176-0.086 0.378-0.086 0.588 0 0.005 0 0.010 0 0.014v-0.001z"></path>
<path fill="#e92944" style="fill: var(--color1, #e92944)" d="M73.983 29.265v-3.39h-1.216v-0.384h2.879v0.384h-1.224v3.39z"></path>
<path fill="#000" style="fill: var(--color2, #000)" d="M79.888 27.384c0 0.009 0 0.019 0 0.029 0 0.27-0.046 0.53-0.13 0.772l0.005-0.016c-0.083 0.238-0.207 0.443-0.365 0.616l0.001-0.001c-0.16 0.171-0.354 0.307-0.573 0.397l-0.011 0.004c-0.221 0.090-0.477 0.143-0.746 0.143-0.012 0-0.024-0-0.036-0l0.002 0c-0.008 0-0.017 0-0.025 0-0.27 0-0.528-0.051-0.765-0.143l0.014 0.005c-0.229-0.090-0.423-0.224-0.581-0.391l-0.001-0.001c-0.16-0.171-0.285-0.375-0.363-0.602l-0.004-0.012c-0.081-0.229-0.127-0.492-0.127-0.767 0-0.013 0-0.026 0-0.039l-0 0.002c-0-0.009-0-0.020-0-0.031 0-0.27 0.047-0.529 0.132-0.77l-0.005 0.016c0.084-0.239 0.209-0.444 0.368-0.618l-0.001 0.001c0.161-0.173 0.357-0.311 0.577-0.403l0.011-0.004c0.231-0.091 0.498-0.143 0.777-0.143s0.546 0.053 0.792 0.148l-0.015-0.005c0.227 0.092 0.42 0.227 0.577 0.396l0.001 0.001c0.158 0.173 0.282 0.379 0.361 0.606l0.004 0.012c0.081 0.229 0.127 0.492 0.127 0.767 0 0.012-0 0.023-0 0.035l0-0.002zM76.655 27.384c-0 0.006-0 0.012-0 0.019 0 0.211 0.032 0.415 0.090 0.608l-0.004-0.015c0.058 0.189 0.146 0.354 0.261 0.496l-0.002-0.003c0.116 0.138 0.26 0.25 0.423 0.327l0.008 0.003c0.176 0.076 0.381 0.121 0.597 0.121s0.421-0.044 0.607-0.125l-0.010 0.004c0.172-0.078 0.316-0.191 0.429-0.33l0.002-0.002c0.114-0.141 0.202-0.308 0.254-0.49l0.002-0.010c0.054-0.186 0.085-0.399 0.085-0.62s-0.031-0.434-0.089-0.636l0.004 0.016c-0.054-0.19-0.141-0.356-0.256-0.498l0.002 0.003c-0.116-0.139-0.26-0.251-0.424-0.327l-0.007-0.003c-0.166-0.075-0.36-0.119-0.564-0.119-0.011 0-0.023 0-0.034 0l0.002-0c-0.011-0-0.025-0.001-0.038-0.001-0.4 0-0.756 0.185-0.988 0.474l-0.002 0.003c-0.115 0.143-0.205 0.311-0.26 0.494l-0.003 0.010c-0.051 0.17-0.080 0.365-0.080 0.567 0 0.012 0 0.024 0 0.037l-0-0.002z"></path>
<path fill="#e92944" style="fill: var(--color1, #e92944)" d="M81.567 29.265h-0.446v-3.774h0.884c0.147 0 0.291 0 0.431 0.019 0.15 0.014 0.286 0.038 0.418 0.073l-0.017-0.004c0.132 0.031 0.249 0.075 0.357 0.133l-0.008-0.004c0.107 0.056 0.198 0.128 0.273 0.214l0.001 0.001c0.077 0.084 0.139 0.184 0.179 0.293l0.002 0.006c0.041 0.114 0.065 0.245 0.065 0.382 0 0.008-0 0.016-0 0.024l0-0.001c0 0.008 0 0.017 0 0.026 0 0.178-0.047 0.344-0.13 0.488l0.003-0.005c-0.088 0.142-0.204 0.259-0.34 0.347l-0.004 0.003c-0.144 0.089-0.311 0.159-0.489 0.198l-0.011 0.002c-0.174 0.041-0.375 0.065-0.581 0.065-0.004 0-0.007 0-0.011-0h-0.575zM81.567 25.875v1.496h0.677c0.006 0 0.012 0 0.019 0 0.133 0 0.263-0.016 0.386-0.046l-0.011 0.002c0.118-0.025 0.222-0.071 0.313-0.133l-0.003 0.002c0.090-0.058 0.162-0.135 0.214-0.225l0.002-0.003c0.046-0.091 0.073-0.198 0.073-0.312 0-0.005-0-0.011-0-0.016v0.001c0-0.008 0.001-0.018 0.001-0.027 0-0.126-0.030-0.245-0.084-0.35l0.002 0.004c-0.054-0.097-0.132-0.176-0.226-0.229l-0.003-0.002c-0.101-0.059-0.218-0.1-0.344-0.118l-0.005-0.001c-0.13-0.021-0.279-0.032-0.432-0.032-0.007 0-0.013 0-0.020 0h0.001z"></path>
<path fill="#000" style="fill: var(--color2, #000)" d="M38.832 22.698h-1.487v-12.588h1.487v5.483h6.927v-5.483h1.487v12.588h-1.487v-5.819h-6.927z"></path>
<path fill="#000" style="fill: var(--color2, #000)" d="M54.703 22.698v-11.308h-4.056v-1.28h9.623v1.28h-4.080v11.308z"></path>
<path fill="#000" style="fill: var(--color2, #000)" d="M66.517 22.698v-11.308h-4.054v-1.28h9.623v1.28h-4.082v11.308z"></path>
<path fill="#000" style="fill: var(--color2, #000)" d="M76.907 22.698h-1.476v-12.588h2.948q0.733 0 1.44 0.065c0.497 0.041 0.953 0.117 1.395 0.228l-0.059-0.012c0.442 0.111 0.829 0.258 1.192 0.445l-0.031-0.014c0.356 0.181 0.659 0.413 0.914 0.69l0.002 0.002c0.255 0.281 0.459 0.613 0.595 0.979l0.007 0.021c0.137 0.38 0.216 0.818 0.216 1.275 0 0.028-0 0.057-0.001 0.085l0-0.004c0.001 0.024 0.001 0.053 0.001 0.082 0 0.594-0.16 1.151-0.44 1.63l0.008-0.015c-0.291 0.477-0.678 0.867-1.136 1.153l-0.015 0.009c-0.478 0.3-1.035 0.532-1.629 0.664l-0.035 0.007c-0.58 0.137-1.247 0.216-1.931 0.216-0.013 0-0.027-0-0.040-0h-1.918zM76.907 11.39v4.957h2.256c0.014 0 0.031 0 0.048 0 0.449 0 0.886-0.053 1.305-0.152l-0.038 0.008c0.394-0.084 0.743-0.234 1.052-0.438l-0.011 0.007c0.286-0.194 0.516-0.448 0.678-0.745l0.006-0.011c0.155-0.302 0.247-0.659 0.247-1.037 0-0.023-0-0.045-0.001-0.068l0 0.003c0.001-0.029 0.002-0.063 0.002-0.097 0-0.418-0.101-0.812-0.28-1.159l0.007 0.014c-0.18-0.325-0.439-0.587-0.751-0.766l-0.010-0.005c-0.337-0.19-0.731-0.327-1.15-0.388l-0.019-0.002c-0.433-0.069-0.932-0.108-1.44-0.108-0.024 0-0.048 0-0.072 0l0.004-0z"></path>
<path fill="#f8b65f" style="fill: var(--color3, #f8b65f)" d="M27.384 19.713v0l-0.026-0.082c-0.007-0.022-0.013-0.040-0.021-0.057l0.001 0.003c-0.287-0.881-0.597-1.83-1.293-2.491-0.216-0.2-0.907-0.909-1.39-1.015-0.021-0.009-0.045-0.015-0.070-0.015-0.009 0-0.017 0.001-0.026 0.002l0.001-0c-0.007-0-0.014-0.001-0.022-0.001-0.058 0-0.112 0.015-0.159 0.040l0.002-0.001c-0.034 0.016-0.056 0.050-0.056 0.090 0 0.008 0.001 0.016 0.003 0.023l-0-0.001c-0.241 0.186-0.512 0.358-0.799 0.502l-0.029 0.013c-0.286 0.189-0.618 0.375-0.963 0.537l-0.050 0.021c-0.558 0.216-1.218 0.013-1.724 0.366-0.040 0.020-0.067 0.061-0.067 0.108 0 0.067 0.054 0.12 0.12 0.12 0.020 0 0.038-0.005 0.055-0.013l-0.001 0h0.011c0.036 0.052 0.095 0.086 0.162 0.086 0 0 0.001 0 0.001 0h-0c-0.108 0 0.11 0.149 0.17 0.177 0.36 0.165 0.669 0.352 0.954 0.569l-0.012-0.009c0.313 0.246 0.343 0.647 0.791 0.558 0.368-0.079 0.792-0.125 1.226-0.125 0.941 0 1.832 0.214 2.628 0.595l-0.037-0.016c0.022 0.010 0.048 0.016 0.075 0.016 0.043 0 0.083-0.015 0.115-0.040l-0 0c0.019 0.058 0.041 0.119 0.060 0.179 0.067 0.216 0.431 0.138 0.381-0.082-0.002-0.030-0.009-0.045-0.013-0.060z"></path>
<path fill="#e92944" style="fill: var(--color1, #e92944)" d="M23.707 16.088c-0.828-0.216-1.459-0.457-2.026-1.14-0.431-0.509-0.735-1.101-1.168-1.603-0.705-0.817-2.282-0.804-3.278-0.765-0.192-0.051-0.413-0.080-0.64-0.080-0.242 0-0.477 0.033-0.699 0.096l0.018-0.004c-0.709 0.168-1.554 0.371-2.192 0.72-0.575 0.292-1.064 0.664-1.478 1.107l-0.003 0.003c-0.332 0.364-0.862 0.815-0.95 1.332-0.001 0.006-0.002 0.014-0.002 0.021 0 0.071 0.058 0.129 0.129 0.129 0.011 0 0.022-0.001 0.033-0.004l-0.001 0c0.332 1.28 1.196 2.586 2.397 3.172s2.388 1.183 3.664 1.022c-0.075 0.080-0.147 0.159-0.216 0.237-0.526 0.595-0.647 1.209-0.647 1.983 0 1.461 0.593 2.44 1.983 2.94 1.002 0.362 2.716-0.459 3.093-1.435 0.158-0.44 0.25-0.949 0.25-1.478 0-0.196-0.013-0.389-0.037-0.579l0.002 0.022c-0.019-0.14-0.030-0.301-0.030-0.465 0-0.436 0.078-0.853 0.222-1.239l-0.008 0.025c0.026-0.071 0.228-0.679 0.302-0.685 0.054-0.003 0.098-0.043 0.108-0.094l0-0.001h0.013l0.037-0.037c0.025-0.031 0.039-0.071 0.039-0.114s-0.015-0.083-0.040-0.115l0 0c-0.305-0.391-0.672-0.718-1.088-0.971l-0.018-0.010c-0.351-0.229-0.757-0.416-1.19-0.542l-0.032-0.008c0.603-0.366 1.394-0.172 2.069-0.332 0.457-0.11 1.188-0.371 1.474-0.778 0.034-0.036 0.054-0.084 0.054-0.137 0-0.091-0.061-0.168-0.143-0.192l-0.001-0z"></path>
<path fill="#e92944" style="fill: var(--color1, #e92944)" d="M25.933 11.563c0.369-0.457 0.749-0.867 1.155-1.248l0.006-0.006c0.315-0.274 0.711-0.491 0.985-0.802 0.027-0.033 0.043-0.076 0.043-0.122 0-0.094-0.067-0.173-0.156-0.19l-0.001-0c-0.047-0.009-0.102-0.014-0.157-0.014-0.19 0-0.365 0.061-0.507 0.165l0.002-0.002c-0.494 0.291-1.041 0.418-1.571 0.625s-1.060 0.377-1.595 0.569c-0.205 0.069-0.414 0.123-0.621 0.179 0.147-0.675 0.629-1.315 0.828-1.961 0.138-0.448 0.269-0.899 0.431-1.338 0.138-0.265 0.269-0.579 0.375-0.905l0.013-0.045c0.001-0.009 0.002-0.018 0.002-0.028 0-0.111-0.090-0.2-0.2-0.2-0.041 0-0.079 0.012-0.111 0.033l0.001-0c-0.293 0.175-0.511 0.45-0.797 0.647-0.348 0.217-0.771 0.449-1.207 0.661l-0.086 0.038c-0.75 0.392-1.399 0.946-2.114 1.39 0-0.116 0-0.233-0.026-0.349-0.022-0.216-0.034-0.448-0.041-0.679 0-0.466 0.026-0.933 0.030-1.401 0-0.823-0.175-1.705 0.041-2.513 0.056-0.216-0.216-0.291-0.347-0.162-0.767 0.8-1.455 1.653-2.282 2.399-0.399 0.358-0.933 0.703-1.306 1.129-0.060-0.629-0.315-1.226-0.431-1.851-0.096-0.739-0.23-1.391-0.408-2.025l0.024 0.1c-0.029-0.072-0.098-0.123-0.179-0.123-0.075 0-0.14 0.043-0.172 0.107l-0.001 0.001c-0.094 0.138-0.151 0.308-0.151 0.492 0 0.001 0 0.001 0 0.002v-0c0.043 0.332-0.3 0.8-0.47 1.056-0.364 0.55-0.627 1.14-0.959 1.698-0.672-0.563-1.356-1.123-2.041-1.679-0.032-0.026-0.074-0.042-0.119-0.042-0.106 0-0.192 0.086-0.192 0.192 0 0.023 0.004 0.046 0.012 0.067l-0-0.001c0.302 0.767 0.394 1.659 0.608 2.461 0.097 0.362 0.138 0.741 0.228 1.106 0.106 0.416 0.043 0.841 0.237 1.228v0c-0.021 0.024-0.033 0.056-0.033 0.091 0 0.077 0.063 0.14 0.14 0.14 0.001 0 0.002 0 0.003-0h-0c1.006-0.099 2.043-0.043 3.056-0.052 0.006-0 0.013-0 0.021-0 0.287 0 0.565 0.039 0.829 0.113l-0.022-0.005c0.016 0.031 0.041 0.056 0.070 0.073l0.001 0c0.091 0.056 0.183 0.106 0.276 0.159 0.587 0.377 1.096 0.764 1.574 1.186l-0.013-0.012c0.522 0.444 1.205 0.685 1.767 1.078 0.25 0.172 0.399 0.552 0.573 0.8 0.216 0.317 0.453 0.631 0.683 0.94l0.060 0.078c-0.007-0.002-0.015-0.003-0.023-0.003-0.050 0-0.091 0.041-0.091 0.091 0 0.021 0.007 0.040 0.018 0.055l-0-0c0.606 0.776 2.041 1.338 2.946 0.823 0.672-0.381 1.293-0.987 1.881-1.481 0.453-0.379 1.054-0.737 1.345-1.265 0.019-0.029 0.031-0.065 0.031-0.103 0-0.104-0.084-0.188-0.188-0.188-0.009 0-0.019 0.001-0.028 0.002l0.001-0c-0.251 0.062-0.467 0.136-0.674 0.226l0.027-0.011c-0.369 0.114-0.797 0.192-1.239 0.215l-0.013 0.001c-0.3 0.060-0.649 0.099-1.006 0.108l-0.007 0h-0.032c0.069-0.11 0.142-0.256 0.17-0.304 0.358-0.527 0.727-0.987 1.127-1.416l-0.006 0.007z"></path>
<path fill="#fff" style="fill: var(--color4, #fff)" d="M18.207 24.231c-0.055-0-0.107-0.017-0.15-0.046l0.001 0.001c-0.657-0.431-0.976-1.347-0.832-2.371 0.111-0.713 0.541-1.307 1.137-1.639l0.012-0.006c0.034-0.017 0.075-0.028 0.118-0.028 0.104 0 0.194 0.060 0.237 0.147l0.001 0.002c0.018 0.034 0.028 0.075 0.028 0.118 0 0.103-0.059 0.192-0.145 0.235l-0.002 0.001c-0.456 0.259-0.778 0.708-0.861 1.236l-0.001 0.010c-0.114 0.806 0.123 1.534 0.601 1.856 0.072 0.048 0.118 0.129 0.118 0.221 0 0.055-0.017 0.106-0.046 0.149l0.001-0.001c-0.048 0.070-0.128 0.115-0.218 0.116h-0z"></path>
<path fill="#000" style="fill: var(--color2, #000)" d="M7.211 28.793h-1.142c-0.007-0.001-0.016-0.001-0.024-0.001-0.148 0-0.267 0.12-0.267 0.267s0.12 0.267 0.267 0.267c0.008 0 0.017-0 0.025-0.001l-0.001 0h1.142c0.137-0.013 0.243-0.127 0.243-0.266s-0.106-0.253-0.242-0.266l-0.001-0z"></path>
<path fill="#000" style="fill: var(--color2, #000)" d="M12.446 28.793h-3.825c-0.137 0.013-0.243 0.127-0.243 0.266s0.106 0.253 0.242 0.266l0.001 0h3.825c0.137-0.013 0.243-0.127 0.243-0.266s-0.106-0.253-0.242-0.266l-0.001-0z"></path>
<path fill="#000" style="fill: var(--color2, #000)" d="M28.879 8.718c-0.049-0.071-0.129-0.116-0.221-0.116-0.034 0-0.066 0.006-0.096 0.018l0.002-0.001-4.573 1.748 1.703-4.483c0.011-0.028 0.017-0.061 0.017-0.095 0-0.146-0.119-0.265-0.265-0.265-0.057 0-0.109 0.018-0.152 0.048l0.001-0.001-4.31 2.968-0.052-5.091c-0.001-0.109-0.068-0.201-0.162-0.241l-0.002-0.001c-0.033-0.016-0.072-0.025-0.113-0.025-0.071 0-0.135 0.028-0.182 0.073l0-0-3.511 3.483-0.668-3.843c-0.022-0.126-0.131-0.221-0.261-0.221-0.101 0-0.189 0.057-0.234 0.14l-0.001 0.001-1.881 3.504-2.302-1.905c-0.046-0.040-0.107-0.064-0.173-0.064-0.146 0-0.265 0.119-0.265 0.265 0 0.021 0.002 0.042 0.007 0.062l-0-0.002 1.235 5.709c-1.752 0.543-3.433 1.81-5.14 3.86-2.509 3.011-2.754 5.8-2.918 7.638-0.028 0.321-0.056 0.625-0.091 0.894-0.237 1.808-1.631 5.028-2.265 6.017h-1.724c-0.007-0.001-0.016-0.001-0.024-0.001-0.148 0-0.267 0.12-0.267 0.267s0.12 0.267 0.267 0.267c0.008 0 0.017-0 0.025-0.001l-0.001 0h4.966c0.137-0.013 0.243-0.127 0.243-0.266s-0.106-0.253-0.242-0.266l-0.001-0h-1.235c0.364-0.48 0.638-1.050 0.783-1.67l0.006-0.030c0.003-0.011 0.004-0.024 0.004-0.037 0-0.074-0.051-0.137-0.12-0.154l-0.001-0c-0.011-0.003-0.025-0.005-0.038-0.005-0.075 0-0.137 0.052-0.153 0.122l-0 0.001c-0.16 0.687-0.472 1.284-0.901 1.779l0.004-0.005h-0.974c0.72-1.269 1.94-4.19 2.175-5.948 0.037-0.28 0.065-0.591 0.093-0.916 0.168-1.884 0.397-4.461 2.802-7.345 2.526-3.034 4.957-4.28 7.67-3.92 0.65 0.096 1.236 0.281 1.777 0.546l-0.035-0.016h-0.323l-0.282 0.539c-0.462-0.25-1.005-0.416-1.581-0.46l-0.014-0.001c-0.002-0-0.005-0-0.007-0-0.088 0-0.159 0.071-0.159 0.159 0 0.079 0.058 0.145 0.133 0.157l0.001 0c0.546 0.043 1.047 0.198 1.494 0.441l-0.020-0.010-0.164 0.313c-0.462-0.251-1.005-0.417-1.581-0.46l-0.013-0.001c-0.004-0-0.009-0.001-0.014-0.001-0.083 0-0.151 0.063-0.159 0.144l-0 0.001c-0 0.003-0 0.007-0 0.011 0 0.084 0.064 0.153 0.146 0.161l0.001 0c0.436 0.036 0.838 0.14 1.21 0.3l-0.025-0.010c-0.471 0.049-0.9 0.137-1.313 0.265l0.048-0.013c-2.776-0.694-4.095 0.351-4.144 0.397-0.035 0.029-0.058 0.074-0.058 0.123 0 0.088 0.071 0.159 0.159 0.159h0c0.001 0 0.002 0 0.003 0 0.038 0 0.072-0.014 0.099-0.037l-0 0c0.022-0.011 1.099-0.873 3.381-0.442-1.236 0.505-2.232 1.386-2.869 2.5l-0.015 0.028c-0.018 0.034-0.028 0.073-0.028 0.116 0 0.020 0.002 0.040 0.007 0.059l-0-0.002c0 0.037 0.647 2.897 3.418 4.134l-0.575 1.554 1.269-1.293c0.519 0.162 1.118 0.266 1.737 0.288l0.012 0c-0.337 0.457-0.539 1.031-0.539 1.653 0 0.020 0 0.040 0.001 0.059l-0-0.003c0 1.004 0.216 1.815 0.623 2.405-0.022 0.496-0.063 2.72 0.877 4.366h-1.634c-0.579-0.748-0.972-1.668-1.092-2.672l-0.003-0.026c-0.006-0.084-0.075-0.149-0.159-0.149-0.088 0-0.16 0.072-0.16 0.16 0 0.004 0 0.008 0 0.011l-0-0c0.114 1.014 0.479 1.925 1.029 2.694l-0.012-0.017h-1.968c-0.137 0.013-0.243 0.127-0.243 0.266s0.106 0.253 0.242 0.266l0.001 0h5.897c0.137-0.013 0.243-0.127 0.243-0.266s-0.106-0.253-0.242-0.266l-0.001-0h-1.276c-0.804-1.185-0.955-2.894-0.972-3.804 0.468 0.35 1.058 0.56 1.697 0.56 0.035 0 0.069-0.001 0.103-0.002l-0.005 0c0.029 0.001 0.063 0.002 0.097 0.002 1.621 0 2.941-1.284 3-2.891l0-0.005c-0.006-0.31-0.034-0.608-0.080-0.899l0.005 0.037c-0.101-0.748-0.181-1.341 0.55-2.097 0.384-0.112 2.64-0.683 4.556 0.804 0.044 0.035 0.101 0.056 0.163 0.056 0.046 0 0.090-0.012 0.128-0.033l-0.001 0.001c0.083-0.045 0.139-0.131 0.139-0.231 0-0.009-0-0.018-0.001-0.027l0 0.001c0-0.129-0.295-3.067-2.968-4.407l3.334-2.929c0.055-0.049 0.090-0.12 0.090-0.199 0-0.146-0.119-0.265-0.265-0.265-0.014 0-0.028 0.001-0.042 0.003l0.002-0-2.586 0.364 3.457-3.782c0.043-0.047 0.069-0.11 0.069-0.179 0-0.058-0.019-0.112-0.050-0.156l0.001 0.001zM11.552 15.614c0.241-0.431 1.472-2.325 4.278-2.61l-0.073 0.14c-1.843 0.381-2.61 1.144-2.636 1.177-0.026 0.028-0.042 0.066-0.042 0.108s0.016 0.079 0.042 0.108l-0-0c0.028 0.028 0.067 0.045 0.11 0.045 0.001 0 0.001 0 0.002 0h-0c0.045-0.001 0.085-0.020 0.114-0.050l0-0s0.662-0.647 2.218-1.032l-1.36 2.614h1.578l-0.94 2.543c-0.551-0.264-1.016-0.623-1.394-1.059l-0.005-0.005c-0.028-0.047-0.079-0.077-0.137-0.077-0.088 0-0.159 0.071-0.159 0.159 0 0.040 0.015 0.077 0.040 0.105l-0-0c0.415 0.499 0.929 0.899 1.514 1.174l0.027 0.011-0.114 0.308c-2.256-1.011-2.933-3.177-3.058-3.662zM21.776 21.851c0.038 0.237 0.063 0.515 0.069 0.798l0 0.006c-0.056 1.322-1.141 2.372-2.472 2.372-0.033 0-0.065-0.001-0.097-0.002l0.005 0c-2.101 0-2.414-1.877-2.414-2.996-0-0.016-0.001-0.035-0.001-0.054 0-0.979 0.613-1.814 1.476-2.143l0.016-0.005c0.107-0.036 0.183-0.135 0.183-0.252 0-0.146-0.119-0.265-0.265-0.265-0.029 0-0.057 0.005-0.084 0.014l0.002-0.001c-0.312 0.121-0.582 0.282-0.819 0.48l0.005-0.004c-0.052 0.001-0.114 0.002-0.176 0.002-0.587 0-1.157-0.072-1.702-0.209l0.048 0.010 0.233-0.237c0.212 0.061 0.476 0.116 0.745 0.155l0.035 0.004h0.032c0.086-0.002 0.155-0.073 0.155-0.159 0-0.079-0.057-0.145-0.133-0.157l-0.001-0c-0.2-0.028-0.386-0.067-0.567-0.11l3.851-3.946h-1.293l1.166-2.054c0.431 0.278 0.647 0.612 0.955 1.063 0.308 0.474 0.623 0.885 0.966 1.271l-0.009-0.011c0.467 0.53 1.147 0.862 1.905 0.862 0.012 0 0.025-0 0.037-0l-0.002 0c-0.815 0.733-1.323 0.841-1.864 0.752-0.112-0.017-0.241-0.026-0.372-0.026-0.489 0-0.948 0.131-1.343 0.36l0.013-0.007c-0.075 0.048-0.124 0.13-0.124 0.224 0 0.018 0.002 0.036 0.005 0.053l-0-0.002c0.018 0.111 0.105 0.197 0.214 0.215l0.002 0c0.779 0.202 1.441 0.622 1.936 1.192l0.004 0.005c-0.707 0.485-1.047 1.353-0.976 2.534 0.013 0.239 0.026 0.472 0.024 0.688-0 0.001-0 0.003-0 0.004 0 0.086 0.069 0.155 0.155 0.155 0.001 0 0.002 0 0.002-0h-0c0.001 0 0.001 0 0.002 0 0.087 0 0.157-0.070 0.157-0.157 0 0 0 0 0-0v0c0-0.216 0-0.472-0.024-0.707-0.063-1.078 0.228-1.847 0.862-2.267 0.028 0.037 0.054 0.078 0.080 0.116-0.802 0.899-0.698 1.679-0.597 2.431zM22.823 19.142c-0.405-0.607-0.942-1.095-1.574-1.431l-0.023-0.011c0.036-0.001 0.079-0.001 0.121-0.001 0.473 0 0.931 0.066 1.364 0.189l-0.035-0.009c0.94 0.374 1.715 0.746 2.461 1.161l-0.108-0.055c-0.203-0.024-0.439-0.038-0.677-0.038-0.542 0-1.067 0.070-1.568 0.202l0.043-0.010zM27.192 19.7c-0.294-0.177-0.634-0.336-0.991-0.457l-0.037-0.011c-1.203-0.666-2.763-1.453-3.388-1.655-0.056-0.019-0.116-0.034-0.175-0.052 0.221-0.062 0.413-0.145 0.591-0.25l-0.012 0.006c0.459 0.194 0.849 0.4 1.218 0.636l-0.032-0.019c0.025 0.018 0.055 0.028 0.088 0.028 0 0 0 0 0 0v0c0 0 0.001 0 0.001 0 0.055 0 0.103-0.027 0.132-0.068l0-0c0.015-0.024 0.025-0.054 0.025-0.085 0-0.054-0.027-0.101-0.067-0.13l-0-0c-0.297-0.195-0.64-0.382-0.998-0.542l-0.047-0.019 0.127-0.093c0.453 0.19 0.838 0.395 1.202 0.63l-0.030-0.018c0.026 0.016 0.057 0.026 0.090 0.026 0 0 0 0 0 0h-0c0 0 0 0 0 0 0.054 0 0.102-0.027 0.131-0.068l0-0.001c0.015-0.024 0.025-0.054 0.025-0.086 0-0.053-0.026-0.1-0.065-0.13l-0-0c-0.306-0.2-0.66-0.393-1.029-0.556l-0.048-0.019 0.129-0.114c0.439 0.185 0.812 0.382 1.164 0.607l-0.031-0.018c0.024 0.016 0.054 0.025 0.086 0.025 0.054 0 0.101-0.027 0.13-0.068l0-0.001c0.016-0.024 0.025-0.054 0.025-0.086 0-0.054-0.027-0.101-0.068-0.13l-0.001-0c-0.303-0.199-0.651-0.39-1.016-0.551l-0.046-0.018 0.166-0.168c1.851 0.825 2.524 2.539 2.754 3.453zM24.506 13.019c-0.037 0.045-0.059 0.104-0.059 0.167 0 0.146 0.119 0.265 0.265 0.265 0.010 0 0.019-0.001 0.028-0.002l-0.001 0 2.442-0.343-2.925 2.571c-0.184 0.053-0.394 0.084-0.612 0.084-0.13 0-0.257-0.011-0.382-0.032l0.013 0.002 0.918-0.981c0.026-0.028 0.042-0.066 0.042-0.108s-0.016-0.079-0.042-0.108l0 0c-0.029-0.029-0.069-0.046-0.113-0.046s-0.084 0.018-0.113 0.046l0-0-1.032 1.103c-0.201-0.075-0.375-0.174-0.53-0.294l0.005 0.003 1.175-1.351c0.026-0.028 0.041-0.066 0.041-0.108 0-0.089-0.072-0.161-0.161-0.161-0.047 0-0.090 0.021-0.119 0.053l-0 0-1.172 1.349c-0.022-0.021-0.042-0.042-0.062-0.064l-0.001-0.001c-0.318-0.358-0.619-0.749-0.89-1.162l-0.024-0.038-0.043-0.067 0.83-1.084c0.021-0.027 0.034-0.061 0.034-0.098 0-0.088-0.072-0.16-0.16-0.16-0.051 0-0.097 0.024-0.126 0.061l-0 0-0.782 1c-0.127-0.181-0.259-0.34-0.402-0.488l0.001 0.001 1.078-1.509c0.018-0.026 0.030-0.058 0.030-0.093 0-0.088-0.072-0.16-0.16-0.16-0.054 0-0.101 0.026-0.13 0.067l-0 0-1.058 1.487c-0.077-0.063-0.163-0.125-0.252-0.183l-0.011-0.007 0.819-1.442h-2.64c-0.162-0.099-0.336-0.198-0.517-0.293l0.903-2.101c0.003-0.012 0.005-0.025 0.005-0.039 0-0.088-0.071-0.159-0.159-0.159-0.056 0-0.105 0.029-0.134 0.072l-0 0.001-0.894 2.082c-0.175-0.084-0.356-0.164-0.541-0.235l0.358-1.444c0.001-0.008 0.002-0.017 0.002-0.026 0-0.088-0.071-0.159-0.159-0.159-0.069 0-0.129 0.044-0.15 0.106l-0 0.001-0.353 1.412c-0.328-0.12-0.716-0.218-1.117-0.278l-0.034-0.004c-0.27-0.037-0.584-0.059-0.902-0.060h-0.001v-2.254c0-0.088-0.071-0.159-0.159-0.159s-0.159 0.071-0.159 0.159v0 2.267c-0.168 0-0.334 0.017-0.5 0.034l-0.317-1.496c-0.016-0.073-0.080-0.126-0.156-0.126-0.088 0-0.16 0.072-0.16 0.16 0 0.012 0.001 0.023 0.004 0.034l-0-0.001 0.313 1.47c-0.151 0.024-0.304 0.054-0.455 0.088l-1.078-4.935 1.961 1.625c0.046 0.037 0.106 0.060 0.171 0.060 0.016 0 0.031-0.001 0.046-0.004l-0.002 0c0.079-0.016 0.145-0.066 0.18-0.134l0.001-0.001 1.69-3.112 0.623 3.584c0.022 0.126 0.131 0.22 0.261 0.22 0.073 0 0.139-0.030 0.187-0.077v0l3.433-3.399 0.065 4.981c0.007 0.094 0.061 0.173 0.139 0.215l0.001 0.001c0.039 0.023 0.086 0.037 0.137 0.037s0.098-0.014 0.138-0.038l-0.001 0.001 4.006-2.767-1.619 4.231c-0.011 0.028-0.018 0.061-0.018 0.095 0 0.146 0.119 0.265 0.265 0.265 0.034 0 0.067-0.007 0.097-0.018l-0.002 0.001 4.095-1.56z"></path>
<path fill="#000" style="fill: var(--color2, #000)" d="M21.276 22.774c-0.010-0.002-0.021-0.003-0.032-0.003-0.076 0-0.14 0.052-0.157 0.123l-0 0.001c-0.060 0.273-0.167 0.515-0.313 0.727l0.004-0.007c-0.015 0.024-0.024 0.053-0.024 0.084 0 0.054 0.027 0.102 0.069 0.131l0.001 0c0.024 0.015 0.053 0.024 0.084 0.024 0.054 0 0.102-0.027 0.131-0.069l0-0.001c0.161-0.236 0.285-0.513 0.352-0.811l0.003-0.016c0.001-0.008 0.002-0.017 0.002-0.027 0-0.075-0.051-0.138-0.12-0.156l-0.001-0z"></path>
<path fill="#000" style="fill: var(--color2, #000)" d="M20.274 24.009c-0.123 0.054-0.268 0.099-0.418 0.127l-0.013 0.002c-0.133 0.027-0.289 0.044-0.448 0.049l-0.005 0c-0.088 0-0.159 0.071-0.159 0.159v0c-0 0.001-0 0.003-0 0.004 0 0.086 0.069 0.155 0.155 0.155 0.001 0 0.002 0 0.002-0h-0c0.184-0.003 0.362-0.024 0.534-0.059l-0.018 0.003c0.189-0.036 0.357-0.088 0.516-0.157l-0.016 0.006c0.064-0.022 0.11-0.081 0.11-0.152 0-0.088-0.071-0.159-0.159-0.159-0.028 0-0.055 0.007-0.078 0.020l0.001-0z"></path>
<path fill="#000" style="fill: var(--color2, #000)" d="M12.129 15.67c0.090-0.128 0.188-0.24 0.296-0.341l0.001-0.001c0.039-0.029 0.064-0.076 0.064-0.128 0-0.088-0.071-0.159-0.159-0.159-0.048 0-0.091 0.021-0.12 0.054l-0 0c-0.153 0.138-0.285 0.295-0.391 0.469l-0.005 0.009c-0.009 0.019-0.014 0.041-0.014 0.065s0.005 0.046 0.014 0.066l-0-0.001c0.176 0.452 0.394 0.842 0.656 1.197l-0.010-0.014c0.029 0.040 0.076 0.066 0.129 0.067h0c0.035-0 0.067-0.012 0.093-0.030l-0.001 0c0.039-0.029 0.063-0.075 0.063-0.127 0-0.033-0.010-0.063-0.027-0.089l0 0.001c-0.223-0.3-0.421-0.641-0.578-1.004l-0.013-0.033z"></path>
<path fill="#000" style="fill: var(--color2, #000)" d="M18.188 18.761c-0.441 0.033-0.836 0.208-1.144 0.48l0.002-0.002c-0.026 0.028-0.043 0.066-0.043 0.108s0.016 0.080 0.043 0.108l-0-0c0.028 0.033 0.069 0.054 0.116 0.054 0.001 0 0.002 0 0.003-0h-0c0 0 0 0 0.001 0 0.041 0 0.078-0.016 0.105-0.041l-0 0c0.25-0.22 0.57-0.365 0.922-0.398l0.006-0c0.006 0.001 0.012 0.001 0.018 0.001 0.088 0 0.159-0.071 0.159-0.159s-0.071-0.159-0.159-0.159c-0.007 0-0.013 0-0.019 0.001l0.001-0z"></path>
<path fill="#000" style="fill: var(--color2, #000)" d="M7.772 15.53c-0.054 0.047-1.293 1.166-1.509 3.907-0 0.004-0.001 0.009-0.001 0.013 0 0.083 0.064 0.15 0.144 0.157l0.001 0h0.013c0.083-0.001 0.152-0.064 0.159-0.146l0-0.001c0.209-2.601 1.394-3.681 1.394-3.692 0.033-0.030 0.053-0.072 0.053-0.12 0-0.089-0.072-0.161-0.161-0.161-0.042 0-0.079 0.016-0.108 0.041l0-0z"></path>
<path fill="#000" style="fill: var(--color2, #000)" d="M15.819 21.64c-0.012-0.003-0.027-0.005-0.041-0.005-0.073 0-0.134 0.048-0.155 0.114l-0 0.001c-0.015 0.058-0.379 1.42 0.597 2.959 0.028 0.046 0.077 0.075 0.133 0.075 0 0 0 0 0.001 0h-0c0.088-0 0.159-0.072 0.159-0.159 0-0.032-0.009-0.062-0.026-0.087l0 0.001c-0.388-0.572-0.619-1.278-0.619-2.038 0-0.235 0.022-0.465 0.064-0.688l-0.004 0.023c0.004-0.013 0.006-0.028 0.006-0.043 0-0.073-0.048-0.134-0.115-0.153l-0.001-0z"></path>
<path fill="#000" style="fill: var(--color2, #000)" d="M15.065 21.886c-0.012-0.003-0.027-0.005-0.041-0.005-0.073 0-0.134 0.048-0.155 0.114l-0 0.001c-0.015 0.058-0.379 1.42 0.597 2.959 0.029 0.044 0.078 0.073 0.134 0.073h0c0.001 0 0.003 0 0.004 0 0.030 0 0.059-0.009 0.083-0.024l-0.001 0c0.044-0.029 0.072-0.078 0.072-0.134 0-0.030-0.008-0.059-0.023-0.083l0 0.001c-0.389-0.569-0.621-1.273-0.621-2.030 0-0.238 0.023-0.47 0.066-0.695l-0.004 0.023c0.005-0.014 0.007-0.031 0.007-0.048 0-0.073-0.050-0.135-0.118-0.152l-0.001-0z"></path>
<path fill="#000" style="fill: var(--color2, #000)" d="M12.89 19.828c-1.042-0.673-1.84-1.643-2.284-2.79l-0.013-0.040c-0.021-0.064-0.080-0.11-0.15-0.11-0.018 0-0.035 0.003-0.052 0.009l0.001-0c-0.064 0.022-0.109 0.081-0.109 0.151 0 0.018 0.003 0.034 0.008 0.050l-0-0.001c0.471 1.27 1.321 2.308 2.411 3.003l0.024 0.014c0.023 0.014 0.052 0.023 0.082 0.024h0c0.057-0 0.108-0.031 0.135-0.077l0-0.001c0.018-0.026 0.029-0.058 0.029-0.092 0-0.060-0.033-0.113-0.082-0.141l-0.001-0z"></path>
<path fill="#000" style="fill: var(--color2, #000)" d="M10.306 18.657c-0.026-0.055-0.081-0.092-0.145-0.092-0.088 0-0.159 0.071-0.159 0.159 0 0.036 0.012 0.070 0.033 0.097l-0-0c0.321 0.538 0.699 1 1.135 1.399l0.005 0.004c0.027 0.025 0.063 0.041 0.103 0.041 0.001 0 0.002 0 0.002-0h-0c0.047 0 0.090-0.021 0.118-0.054l0-0c0.026-0.028 0.042-0.066 0.042-0.108s-0.016-0.079-0.042-0.108l0 0c-0.422-0.385-0.784-0.825-1.078-1.312l-0.015-0.026z"></path>
<path fill="#000" style="fill: var(--color2, #000)" d="M4.864 26.248c0.021 0.011 0.045 0.017 0.071 0.017h0c0.062-0 0.116-0.036 0.142-0.087l0-0.001c0.475-0.948 0.761-2.064 0.78-3.244l0-0.006c-0.005-0.087-0.076-0.156-0.164-0.157h-0c-0.086 0.002-0.155 0.073-0.155 0.159 0 0.002 0 0.003 0 0.005v-0c-0.023 1.132-0.296 2.196-0.765 3.145l0.019-0.043c-0.011 0.021-0.017 0.045-0.017 0.071 0 0.062 0.035 0.116 0.087 0.142l0.001 0z"></path>
<path fill="#000" style="fill: var(--color2, #000)" d="M5.875 26.265c0.062-0 0.116-0.036 0.142-0.087l0-0.001c0.477-0.948 0.763-2.064 0.78-3.244l0-0.006c-0.002-0.087-0.074-0.157-0.162-0.157-0 0-0 0-0 0v0c-0.086 0.002-0.155 0.073-0.155 0.159 0 0.002 0 0.003 0 0.005v-0c-0.025 1.133-0.298 2.196-0.767 3.145l0.019-0.044c-0.011 0.021-0.018 0.046-0.018 0.073 0 0.062 0.036 0.116 0.088 0.142l0.001 0c0.021 0.010 0.045 0.015 0.071 0.015 0 0 0 0 0.001 0h-0z"></path>
<path fill="#000" style="fill: var(--color2, #000)" d="M10.991 24.093c-0.003-0-0.007-0-0.011-0-0.085 0-0.154 0.067-0.157 0.151v0c0 0.088-0.097 2.179 0.662 3.756 0.026 0.054 0.080 0.090 0.142 0.091h0c0.025-0 0.049-0.007 0.070-0.018l-0.001 0c0.055-0.026 0.092-0.081 0.092-0.145 0-0.026-0.006-0.050-0.017-0.072l0 0.001c-0.722-1.509-0.629-3.582-0.629-3.603 0-0.001 0-0.002 0-0.002 0-0.085-0.067-0.155-0.15-0.159l-0-0z"></path>
<path fill="#000" style="fill: var(--color2, #000)" d="M9.858 24.093c-0.003-0-0.007-0-0.011-0-0.084 0-0.153 0.067-0.155 0.151v0c0 0.088-0.097 2.179 0.659 3.756 0.027 0.054 0.081 0.090 0.144 0.091h0c0.087-0.003 0.157-0.074 0.157-0.162 0-0.024-0.005-0.047-0.015-0.068l0 0.001c-0.72-1.509-0.629-3.582-0.627-3.603 0-0.001 0-0.003 0-0.005 0-0.086-0.068-0.157-0.153-0.161l-0-0z"></path>
<path fill="#000" style="fill: var(--color2, #000)" d="M8.955 27.216h0.043c0.067-0.020 0.116-0.081 0.116-0.153 0-0.015-0.002-0.030-0.006-0.044l0 0.001c-0.125-0.441-0.221-0.961-0.269-1.494l-0.002-0.034c-0.007-0.081-0.074-0.145-0.157-0.145-0.005 0-0.011 0-0.016 0.001l0.001-0c-0.082 0.009-0.145 0.077-0.145 0.161 0 0.005 0 0.010 0.001 0.014l-0-0.001c0.053 0.586 0.154 1.123 0.3 1.64l-0.015-0.063c0.019 0.067 0.079 0.115 0.151 0.116h0z"></path>
<path fill="#000" style="fill: var(--color2, #000)" d="M11.994 12.084c0.263-0.059 0.566-0.094 0.876-0.094s0.613 0.034 0.904 0.099l-0.028-0.005h0.034c0.076-0.001 0.139-0.053 0.157-0.124l0-0.001c0.002-0.010 0.003-0.021 0.003-0.032 0-0.077-0.053-0.141-0.125-0.157l-0.001-0c-0.286-0.066-0.614-0.104-0.951-0.104s-0.666 0.038-0.981 0.11l0.029-0.006c-0.068 0.020-0.117 0.082-0.117 0.155 0 0.014 0.002 0.028 0.005 0.042l-0-0.001c0.016 0.071 0.079 0.124 0.154 0.124 0.014 0 0.028-0.002 0.041-0.005l-0.001 0z"></path>
<path fill="#f8b65f" style="fill: var(--color3, #f8b65f)" d="M18.080 14.629c0 0.001 0 0.001 0 0.002 0 0.564-0.457 1.022-1.022 1.022s-1.022-0.457-1.022-1.022c0-0.564 0.457-1.022 1.022-1.022v0c0 0 0 0 0 0 0.563 0 1.020 0.456 1.022 1.019v0z"></path>
<path fill="#000" style="fill: var(--color2, #000)" d="M17.532 14.629c0 0.001 0 0.001 0 0.002 0 0.262-0.212 0.474-0.474 0.474s-0.474-0.212-0.474-0.474c0-0.262 0.212-0.474 0.474-0.474v0c0 0 0 0 0 0 0.261 0 0.473 0.211 0.474 0.472v0z"></path>
<path fill="#fff" style="fill: var(--color4, #fff)" d="M17.636 14.157c0 0.152-0.123 0.276-0.276 0.276s-0.276-0.123-0.276-0.276c0-0.152 0.123-0.276 0.276-0.276v0c0.152 0 0.276 0.123 0.276 0.276v0z"></path>
<path fill="#fff" style="fill: var(--color4, #fff)" d="M26.472 19.004c-0.108-0-0.201-0.065-0.243-0.158l-0.001-0.002c-0.17-0.343-0.381-0.637-0.63-0.893l0.001 0.001c-0.048-0.048-0.078-0.114-0.078-0.188 0-0.146 0.119-0.265 0.265-0.265 0.073 0 0.14 0.030 0.188 0.078v0c0.296 0.301 0.544 0.649 0.731 1.033l0.010 0.023c0.014 0.031 0.022 0.068 0.022 0.106 0 0.108-0.065 0.202-0.158 0.243l-0.002 0.001c-0.030 0.014-0.066 0.022-0.103 0.022-0.001 0-0.002 0-0.003 0h0z"></path>
<path fill="#fff" style="fill: var(--color4, #fff)" d="M19.871 7.461c-0.144-0.005-0.259-0.123-0.259-0.267 0-0 0-0 0-0v0-1.791c0.013-0.137 0.127-0.243 0.266-0.243s0.253 0.106 0.266 0.242l0 0.001v1.791c-0.001 0.148-0.121 0.267-0.269 0.267-0.002 0-0.003 0-0.005-0h0z"></path>
<path fill="#fff" style="fill: var(--color4, #fff)" d="M20.528 15.144c-0 0-0 0-0 0-0.115 0-0.212-0.073-0.249-0.175l-0.001-0.002c-0.074-0.238-0.205-0.439-0.378-0.596l-0.001-0.001c-0.067-0.049-0.11-0.127-0.11-0.216 0-0.147 0.119-0.266 0.266-0.266 0.059 0 0.113 0.019 0.157 0.051l-0.001-0.001c0.262 0.218 0.459 0.507 0.563 0.836l0.003 0.013c0.010 0.027 0.016 0.058 0.016 0.091 0 0.145-0.118 0.263-0.263 0.263-0.001 0-0.002 0-0.003-0h0z"></path>
<path fill="#fff" style="fill: var(--color4, #fff)" d="M23.134 9.994c-0.002 0-0.004 0-0.006 0-0.032 0-0.063-0.006-0.091-0.018l0.002 0.001c-0.101-0.038-0.171-0.133-0.171-0.245 0-0.034 0.007-0.067 0.019-0.097l-0.001 0.002 0.726-1.916c0.038-0.101 0.133-0.171 0.245-0.171 0.034 0 0.067 0.007 0.097 0.019l-0.002-0.001c0.101 0.038 0.172 0.134 0.172 0.247 0 0.034-0.006 0.066-0.018 0.095l0.001-0.002-0.726 1.916c-0.040 0.1-0.136 0.17-0.248 0.17h-0z"></path>
<path fill="#fff" style="fill: var(--color4, #fff)" d="M15.841 6.72c-0.142-0.001-0.257-0.113-0.263-0.254l-0-0.001-0.060-1.045c-0.004-0.016-0.006-0.035-0.006-0.054 0-0.146 0.119-0.265 0.265-0.265s0.265 0.119 0.265 0.265c0 0.008-0 0.015-0.001 0.023l0-0.001 0.065 1.050c0 0.005 0.001 0.011 0.001 0.018 0 0.141-0.109 0.256-0.248 0.265l-0.001 0z"></path>
</symbol>
</defs>
</svg>
